
<svg version="1.1" id="Layer_1" xmlns="http://www.w3.org/2000/svg" xmlns:xlink="http://www.w3.org/1999/xlink" x="0px" y="0px"
	 viewBox="0 0 18 12" style="enable-background:new 0 0 18 12;" xml:space="preserve">
<g>
	<g id="Home-Patient-1" transform="translate(-268.000000, -480.000000)">
		<g id="Patients">
			<g id="P1_hover" transform="translate(0.000000, 2.000000)">
				<g id="button_hover" transform="translate(159.000000, 464.000000)">
					<path id="Shape" class="st0" d="M121.2,14.5c-0.3-0.3-0.8-0.3-1.1,0c-0.3,0.3-0.3,0.8,0,1.1l3.7,3.7h-13.4
						c-0.4,0-0.8,0.3-0.8,0.8c0,0.4,0.4,0.8,0.8,0.8h13.4l-3.7,3.7c-0.3,0.3-0.3,0.8,0,1.1c0.2,0.2,0.4,0.2,0.6,0.2
						c0.2,0,0.4-0.1,0.6-0.2l5-5c0.3-0.3,0.3-0.8,0-1.1L121.2,14.5z"/>
				</g>
			</g>
		</g>
	</g>
</g>
</svg>
