
<svg version="1.1" id="Layer_1" xmlns="http://www.w3.org/2000/svg" xmlns:xlink="http://www.w3.org/1999/xlink" x="0px" y="0px"
	 viewBox="0 0 13 13" style="enable-background:new 0 0 13 13;" xml:space="preserve">
<g>
	<g id="Home-Patient-1" transform="translate(-823.000000, -591.000000)">
		<g id="sub_menu" transform="translate(0.000000, 579.000000)">
			<g id="noun_1167420_cc" transform="translate(824.000000, 12.000000)">
				<path id="Shape" class="st0" d="M0.8,11.9h9.3l0,0c0.4,0,0.7-0.3,0.7-0.7V5.9H9.5v4.7h-8v-8h4.7V1.2H0.8l0,0
					c-0.4,0-0.7,0.3-0.7,0.7v9.3C0.1,11.6,0.4,11.9,0.8,11.9z"/>
			</g>
		</g>
	</g>
</g>
<g>
	<g id="Home-Patient-1_1_" transform="translate(-829.000000, -590.000000)">
		<g id="sub_menu_1_" transform="translate(0.000000, 579.000000)">
			<g id="noun_1167420_cc_1_" transform="translate(824.000000, 12.000000)">
				<polygon id="Shape_1_" class="st0" points="11.6,4.6 12.5,5.6 16.8,1.3 16.8,2.7 18.2,2.7 18.2,-1 14.4,-1 14.4,0.3 15.9,0.3 
									"/>
			</g>
		</g>
	</g>
</g>
</svg>
