<?xml version="1.0" encoding="UTF-8"?>
<svg width="148px" height="50px" viewBox="0 0 148 50" version="1.1" xmlns="http://www.w3.org/2000/svg" xmlns:xlink="http://www.w3.org/1999/xlink">
    <!-- Generator: Sketch 48.1 (47250) - http://www.bohemiancoding.com/sketch -->
    <title>Logo</title>
    <desc>Created with Sketch.</desc>
    <defs>
        <polygon id="path-1" points="0 49.2716049 148 49.2716049 148 0 0 0"></polygon>
    </defs>
    <g id="белый-лого" stroke="none" stroke-width="1" fill="none" fill-rule="evenodd" transform="translate(-5.000000, -5.000000)">
        <g id="Logo" transform="translate(5.000000, 5.000000)">
            <g id="Group-58" transform="translate(0.000000, 0.160494)">
                <path d="M60.9911512,22.1481481 L60.9911512,6.05679937 L57.3001393,18.3179526 C56.6059486,20.5793311 55.8486787,22.1481481 51.4944568,22.1481481 L49.4120445,22.1481481 L44.3950917,6.02988002 L44.3950917,22.1481481 L40.2623656,22.1481481 L40.2623656,3.37037037 L48.1183618,3.37037037 L53.0720757,19.2489645 L56.5428694,7.41286175 C57.3948379,4.56705794 58.2782662,3.37037037 61.4012459,3.37037037 L65.5655914,3.37037037 L65.5655914,22.1481481 L60.9911512,22.1481481 Z" id="Fill-2" fill="#FFFFFF"></path>
                <polygon id="Fill-4" fill="#FFFFFF" points="81.3204301 3.37037037 81.3204301 5.95003967 74.2210697 5.95003967 74.2210697 10.9769228 81.1639704 10.9769228 81.1639704 13.5572039 74.2210697 13.5572039 74.2210697 22.1481481 69.2258065 22.1481481 69.2258065 3.37037037"></polygon>
                <mask id="mask-2" fill="white">
                    <use xlink:href="#path-1"></use>
                </mask>
                <g id="Clip-7"></g>
                <polygon id="Fill-6" fill="#FFFFFF" mask="url(#mask-2)" points="83.3892473 22.1481481 88.3225806 22.1481481 88.3225806 3.37037037 83.3892473 3.37037037"></polygon>
                <path d="M112.034409,16.7226308 C112.034409,20.0205843 111.342897,22.1481481 106.723274,22.1481481 L104.428734,22.1481481 L96.1632044,6.74801185 L96.1632044,22.1481481 L91.9827957,22.1481481 L91.9827957,3.37037037 L99.2112964,3.37037037 L107.759826,18.983416 L107.759826,3.37037037 L112.034409,3.37037037 L112.034409,16.7226308 Z" id="Fill-8" fill="#FFFFFF" mask="url(#mask-2)"></path>
                <polygon id="Fill-9" fill="#FFFFFF" mask="url(#mask-2)" points="132.086022 3.37037037 119.994756 19.5677141 131.738 19.5677141 131.738 22.1481481 112.670968 22.1481481 124.856189 5.84389177 114.344283 5.84389177 114.344283 3.37037037"></polygon>
                <polygon id="Fill-10" fill="#FFFFFF" mask="url(#mask-2)" points="133.836559 22.1481481 138.769892 22.1481481 138.769892 3.37037037 133.836559 3.37037037"></polygon>
                <path d="M147.134501,6.90123457 L147.134501,4.22973414 L146.626452,6.18852309 C146.539983,6.52432883 146.410278,6.90123457 145.815599,6.90123457 L145.414914,6.90123457 L144.690692,4.24016483 L144.690692,6.90123457 L143.814263,6.90123457 L143.814263,3.37037037 L145.306908,3.37037037 L145.966358,5.86392645 L146.421047,4.12496026 C146.518285,3.74805452 146.756156,3.37037037 147.458842,3.37037037 L148,3.37037037 L148,6.90123457 L147.134501,6.90123457 Z M142.224541,6.90123457 L141.337988,6.90123457 L141.337988,4.11452958 L140.202151,4.11452958 L140.202151,3.37037037 L143.360218,3.37037037 L143.360218,4.11452958 L142.224541,4.11452958 L142.224541,6.90123457 Z" id="Fill-11" fill="#FFFFFF" mask="url(#mask-2)"></path>
                <polygon id="Fill-12" fill="#FFFFFF" mask="url(#mask-2)" points="31.6688172 47.9876543 32.2769785 47.9876543 32.2769785 43.0123457 31.6688172 43.0123457"></polygon>
                <path d="M33.1010753,44.2331166 L33.6780252,44.2331166 L33.6780252,44.6746546 L33.6927985,44.6746546 C33.8516503,44.3310477 34.2556106,44.1358025 34.6303422,44.1358025 C35.6473118,44.1358025 35.6473118,44.8848593 35.6473118,45.3262431 L35.6473118,47.9876543 L35.0416097,47.9876543 L35.0416097,45.3962599 C35.0416097,45.1089441 35.0203235,44.6396462 34.4721257,44.6396462 C34.1467971,44.6396462 33.7067774,44.8496967 33.7067774,45.3962599 L33.7067774,47.9876543 L33.1010753,47.9876543 L33.1010753,44.2331166 Z" id="Fill-13" fill="#FFFFFF" mask="url(#mask-2)"></path>
                <path d="M36.4398229,43.6813034 L37.0795699,43.6813034 L37.0795699,43.0123457 L36.4398229,43.0123457 L36.4398229,43.6813034 Z M37.0795699,48.3509631 C37.0795699,48.9645197 36.7976987,49.2716049 36.1040942,49.2716049 C36.0047681,49.2716049 35.9061132,49.2573326 35.8064516,49.2502732 L35.8064516,48.7484398 C35.882624,48.7554992 35.966682,48.7696181 36.0428543,48.7696181 C36.4391518,48.7696181 36.4391518,48.4903102 36.4391518,48.1419426 L36.4391518,44.2529638 L37.0795699,44.2529638 L37.0795699,48.3509631 Z" id="Fill-14" fill="#FFFFFF" mask="url(#mask-2)"></path>
                <path d="M39.7778052,45.6791902 L39.7778052,45.4814164 C39.7778052,45.0709793 39.6390184,44.5860951 39.0975567,44.5860951 C38.4538565,44.5860951 38.381404,45.3239493 38.381404,45.5420269 L38.381404,45.6791902 L39.7778052,45.6791902 Z M38.3591852,46.129934 C38.3591852,46.6903183 38.3591852,47.5369105 39.1125302,47.5369105 C39.6973024,47.5369105 39.7778052,46.9632912 39.7778052,46.6903183 L40.3917193,46.6903183 C40.3917193,47.0798499 40.1432878,47.9876543 39.075982,47.9876543 C38.1181599,47.9876543 37.716129,47.366058 37.716129,46.1097807 C37.716129,45.193554 37.9056326,44.1358025 39.1125302,44.1358025 C40.3118606,44.1358025 40.4215054,45.1126397 40.4215054,45.8980198 L40.4215054,46.129934 L38.3591852,46.129934 Z" id="Fill-15" fill="#FFFFFF" mask="url(#mask-2)"></path>
                <path d="M42.8544939,45.3445627 C42.8544939,44.9892131 42.7067109,44.5866439 42.2567007,44.5866439 C41.8906511,44.5866439 41.5176306,44.763642 41.5176306,46.1024816 C41.5176306,46.5805419 41.5247564,47.5369633 42.2351684,47.5369633 C42.7418752,47.5369633 42.8544939,47.0172475 42.8544939,46.6215958 L43.4451613,46.6215958 C43.4451613,47.201915 43.1502149,47.9876543 42.2071299,47.9876543 C41.2857321,47.9876543 40.8989247,47.3655293 40.8989247,46.1095495 C40.8989247,45.194182 41.0812524,44.1358025 42.2422942,44.1358025 C43.2693398,44.1358025 43.4451613,44.9209402 43.4451613,45.3445627 L42.8544939,45.3445627 Z" id="Fill-16" fill="#FFFFFF" mask="url(#mask-2)"></path>
                <path d="M44.347787,43.1728395 L44.9771462,43.1728395 L44.9771462,44.2487563 L45.6731183,44.2487563 L45.6731183,44.7041563 L44.9771462,44.7041563 L44.9771462,47.0770062 C44.9771462,47.3739732 45.0589283,47.4916966 45.3882001,47.4916966 C45.5234043,47.4916966 45.5982613,47.4774179 45.6655337,47.4704305 L45.6655337,47.9469448 C45.5835867,47.9603121 45.4187035,47.9876543 45.156704,47.9876543 C44.5050856,47.9876543 44.347787,47.7392957 44.347787,47.257313 L44.347787,44.7041563 L43.7634409,44.7041563 L43.7634409,44.2487563 L44.347787,44.2487563 L44.347787,43.1728395 Z" id="Fill-17" fill="#FFFFFF" mask="url(#mask-2)"></path>
                <path d="M45.9913978,47.9876543 L46.5720261,47.9876543 L46.5720261,44.2525675 L45.9913978,44.2525675 L45.9913978,47.9876543 Z M45.9913978,43.6810898 L46.5720261,43.6810898 L46.5720261,43.0123457 L45.9913978,43.0123457 L45.9913978,43.6810898 Z" id="Fill-18" fill="#FFFFFF" mask="url(#mask-2)"></path>
                <path d="M49.475733,46.0615028 C49.475733,45.2693281 49.3492564,44.5864759 48.6815774,44.5864759 C48.0509917,44.5864759 47.9169983,45.2693281 47.9169983,46.0615028 C47.9169983,46.8535272 48.043475,47.5369809 48.6815774,47.5369809 C49.3423933,47.5369809 49.475733,46.8535272 49.475733,46.0615028 M48.6967742,44.1358025 C49.8466658,44.1358025 50.1290323,45.0303825 50.1290323,46.0615028 C50.1290323,47.0930743 49.8391491,47.9876543 48.6967742,47.9876543 C47.5460655,47.9876543 47.2645161,47.0930743 47.2645161,46.0615028 C47.2645161,45.0303825 47.5537457,44.1358025 48.6967742,44.1358025" id="Fill-19" fill="#FFFFFF" mask="url(#mask-2)"></path>
                <path d="M50.6064516,44.2331166 L51.1834016,44.2331166 L51.1834016,44.6746546 L51.1981748,44.6746546 C51.3570267,44.3310477 51.760987,44.1358025 52.1357185,44.1358025 C53.1526882,44.1358025 53.1526882,44.8848593 53.1526882,45.3262431 L53.1526882,47.9876543 L52.546986,47.9876543 L52.546986,45.3962599 C52.546986,45.1089441 52.5256999,44.6396462 51.9773432,44.6396462 C51.6521734,44.6396462 51.2121538,44.8496967 51.2121538,45.3962599 L51.2121538,47.9876543 L50.6064516,47.9876543 L50.6064516,44.2331166 Z" id="Fill-20" fill="#FFFFFF" mask="url(#mask-2)"></path>
                <path d="M55.9649913,44.7490759 L55.3806452,44.7490759 L55.3806452,44.2935749 L55.9649913,44.2935749 L55.9649913,43.8600752 C55.9649913,43.3016996 56.2269907,43.0123457 56.8334312,43.0123457 L57.2903226,43.0123457 L57.2903226,43.5083592 L56.9984793,43.5083592 C56.7288952,43.5083592 56.5943505,43.6047094 56.5943505,43.8600752 L56.5943505,44.2935749 L57.282738,44.2935749 L57.282738,44.7490759 L56.5943505,44.7490759 L56.5943505,47.9876543 L55.9649913,47.9876543 L55.9649913,44.7490759 Z" id="Fill-21" fill="#FFFFFF" mask="url(#mask-2)"></path>
                <path d="M59.6606793,46.0615028 C59.6606793,45.2693281 59.5342026,44.5864759 58.8665236,44.5864759 C58.2359379,44.5864759 58.1019446,45.2693281 58.1019446,46.0615028 C58.1019446,46.8535272 58.2284212,47.5369809 58.8665236,47.5369809 C59.5273396,47.5369809 59.6606793,46.8535272 59.6606793,46.0615028 M58.8817204,44.1358025 C60.031612,44.1358025 60.3139785,45.0303825 60.3139785,46.0615028 C60.3139785,47.0930743 60.0240953,47.9876543 58.8817204,47.9876543 C57.7310118,47.9876543 57.4494624,47.0930743 57.4494624,46.0615028 C57.4494624,45.0303825 57.7386919,44.1358025 58.8817204,44.1358025" id="Fill-22" fill="#FFFFFF" mask="url(#mask-2)"></path>
                <path d="M60.7913978,44.2331166 L61.4063601,44.2331166 L61.4063601,44.7938683 L61.4211979,44.7938683 C61.5968322,44.436073 61.8314953,44.1358025 62.2708231,44.1358025 C62.3954929,44.1358025 62.4837133,44.1495282 62.5419355,44.1772882 L62.5419355,44.7517656 C62.4837133,44.7446714 62.4104919,44.7238514 62.2124396,44.7238514 C61.9047166,44.7238514 61.4063601,44.9897304 61.4063601,45.6134047 L61.4063601,47.9876543 L60.7913978,47.9876543 L60.7913978,44.2331166 Z" id="Fill-23" fill="#FFFFFF" mask="url(#mask-2)"></path>
                <polygon id="Fill-24" fill="#FFFFFF" mask="url(#mask-2)" points="64.7698925 47.9876543 65.3780538 47.9876543 65.3780538 43.0123457 64.7698925 43.0123457"></polygon>
                <path d="M66.2021505,44.2331166 L66.7791005,44.2331166 L66.7791005,44.6746546 L66.7938737,44.6746546 C66.9527256,44.3310477 67.3566859,44.1358025 67.7314175,44.1358025 C68.7483871,44.1358025 68.7483871,44.8848593 68.7483871,45.3262431 L68.7483871,47.9876543 L68.1426849,47.9876543 L68.1426849,45.3962599 C68.1426849,45.1089441 68.1213988,44.6396462 67.5730421,44.6396462 C67.2478724,44.6396462 66.8078527,44.8496967 66.8078527,45.3962599 L66.8078527,47.9876543 L66.2021505,47.9876543 L66.2021505,44.2331166 Z" id="Fill-25" fill="#FFFFFF" mask="url(#mask-2)"></path>
                <path d="M69.8101526,43.1728395 L70.4388523,43.1728395 L70.4388523,44.2487563 L71.1354839,44.2487563 L71.1354839,44.7041563 L70.4388523,44.7041563 L70.4388523,47.0770062 C70.4388523,47.3739732 70.521129,47.4916966 70.8505657,47.4916966 C70.9857699,47.4916966 71.0606269,47.4774179 71.1278992,47.4704305 L71.1278992,47.9469448 C71.0459523,47.9603121 70.8810691,47.9876543 70.6190696,47.9876543 C69.9674512,47.9876543 69.8101526,47.7392957 69.8101526,47.257313 L69.8101526,44.7041563 L69.2258065,44.7041563 L69.2258065,44.2487563 L69.8101526,44.2487563 L69.8101526,43.1728395 Z" id="Fill-26" fill="#FFFFFF" mask="url(#mask-2)"></path>
                <path d="M71.4537634,44.2331166 L72.0687257,44.2331166 L72.0687257,44.7938683 L72.0835635,44.7938683 C72.2591978,44.436073 72.4938608,44.1358025 72.9331887,44.1358025 C73.0578585,44.1358025 73.1460788,44.1495282 73.2043011,44.1772882 L73.2043011,44.7517656 C73.1460788,44.7446714 73.0722124,44.7238514 72.8748052,44.7238514 C72.5670822,44.7238514 72.0687257,44.9897304 72.0687257,45.6134047 L72.0687257,47.9876543 L71.4537634,47.9876543 L71.4537634,44.2331166 Z" id="Fill-27" fill="#FFFFFF" mask="url(#mask-2)"></path>
                <path d="M75.4608724,45.897663 C75.2399093,46.122783 74.7121403,46.1707544 74.4415861,46.328203 C74.2488712,46.4439962 74.149375,46.5874594 74.149375,46.9086726 C74.149375,47.2772558 74.2844952,47.5369633 74.6909542,47.5369633 C75.0828184,47.5369633 75.4608724,47.2159004 75.4608724,46.8397983 L75.4608724,45.897663 Z M73.6150148,45.3374948 C73.6150148,44.5043856 73.9856929,44.1358025 74.8974793,44.1358025 C76.0592617,44.1358025 76.0592617,44.8046959 76.0592617,45.1871141 L76.0592617,47.229134 C76.0592617,47.3795147 76.0592617,47.5231283 76.2446007,47.5231283 C76.3230677,47.5231283 76.3586917,47.5092932 76.3870968,47.4888415 L76.3870968,47.8986289 C76.3442538,47.9055464 76.1879475,47.932615 76.0380756,47.932615 C75.8098936,47.932615 75.5249014,47.932615 75.4964964,47.4616226 L75.4820585,47.4616226 C75.2899712,47.7891518 74.9192932,47.9876543 74.563053,47.9876543 C73.849788,47.9876543 73.5225806,47.5775661 73.5225806,46.9219061 C73.5225806,46.4097094 73.7501349,46.0546605 74.2416522,45.9110469 L75.0471944,45.6790095 C75.4820585,45.5495317 75.4820585,45.4335881 75.4820585,45.1257588 C75.4820585,44.7845449 75.2681574,44.5864935 74.8690743,44.5864935 C74.2132471,44.5864935 74.2132471,45.1732791 74.2132471,45.3035088 L74.2132471,45.3374948 L73.6150148,45.3374948 Z" id="Fill-28" fill="#FFFFFF" mask="url(#mask-2)"></path>
                <polygon id="Fill-29" fill="#FFFFFF" mask="url(#mask-2)" points="76.5462366 44.2962963 77.2291124 44.2962963 77.9709779 47.2577222 77.9860113 47.2577222 78.7278769 44.2962963 79.4107527 44.2962963 78.3350476 47.9876543 77.6219416 47.9876543"></polygon>
                <path d="M81.6315686,45.6791902 L81.6315686,45.4814164 C81.6315686,45.0709793 81.4921378,44.5860951 80.9513201,44.5860951 C80.3076199,44.5860951 80.2353284,45.3239493 80.2353284,45.5420269 L80.2353284,45.6791902 L81.6315686,45.6791902 Z M80.2129487,46.129934 C80.2129487,46.6903183 80.2129487,47.5369105 80.9662937,47.5369105 C81.5510658,47.5369105 81.6315686,46.9632912 81.6315686,46.6903183 L82.2454828,46.6903183 C82.2454828,47.0798499 81.9970512,47.9876543 80.9297454,47.9876543 C79.9712793,47.9876543 79.5698925,47.366058 79.5698925,46.1097807 C79.5698925,45.193554 79.759396,44.1358025 80.9662937,44.1358025 C82.165624,44.1358025 82.2752688,45.1126397 82.2752688,45.8980198 L82.2752688,46.129934 L80.2129487,46.129934 Z" id="Fill-30" fill="#FFFFFF" mask="url(#mask-2)"></path>
                <path d="M82.911828,44.2331166 L83.4887779,44.2331166 L83.4887779,44.6746546 L83.5035512,44.6746546 C83.662403,44.3310477 84.0665222,44.1358025 84.4410949,44.1358025 C85.4580645,44.1358025 85.4580645,44.8848593 85.4580645,45.3262431 L85.4580645,47.9876543 L84.8523624,47.9876543 L84.8523624,45.3962599 C84.8523624,45.1089441 84.8310762,44.6396462 84.2827196,44.6396462 C83.9575498,44.6396462 83.5175301,44.8496967 83.5175301,45.3962599 L83.5175301,47.9876543 L82.911828,47.9876543 L82.911828,44.2331166 Z" id="Fill-31" fill="#FFFFFF" mask="url(#mask-2)"></path>
                <path d="M88.1467008,46.0615028 C88.1467008,45.2693281 88.0203875,44.5864759 87.3525451,44.5864759 C86.7219594,44.5864759 86.5879661,45.2693281 86.5879661,46.0615028 C86.5879661,46.8535272 86.7144427,47.5369809 87.3525451,47.5369809 C88.0133611,47.5369809 88.1467008,46.8535272 88.1467008,46.0615028 M87.3677419,44.1358025 C88.5176335,44.1358025 88.8,45.0303825 88.8,46.0615028 C88.8,47.0930743 88.5101169,47.9876543 87.3677419,47.9876543 C86.2170333,47.9876543 85.9354839,47.0930743 85.9354839,46.0615028 C85.9354839,45.0303825 86.2247134,44.1358025 87.3677419,44.1358025" id="Fill-32" fill="#FFFFFF" mask="url(#mask-2)"></path>
                <path d="M91.9827957,48.0502328 L91.4058457,48.0502328 L91.4058457,47.6087655 L91.3910725,47.6087655 C91.2322206,47.9523174 90.8282603,48.1481481 90.4528934,48.1481481 C89.4365591,48.1481481 89.4365591,47.3987486 89.4365591,46.9572814 L89.4365591,44.2962963 L90.0422613,44.2962963 L90.0422613,46.8878925 C90.0422613,47.1745456 90.0635475,47.6437683 90.6119041,47.6437683 C90.9370739,47.6437683 91.3764581,47.4337514 91.3764581,46.8878925 L91.3764581,44.2962963 L91.9827957,44.2962963 L91.9827957,48.0502328 Z" id="Fill-33" fill="#FFFFFF" mask="url(#mask-2)"></path>
                <path d="M94.3145788,45.3034176 C94.3145788,44.8393789 94.1858144,44.5866087 93.7508421,44.5866087 C93.5580097,44.5866087 93.1308889,44.6339749 93.1308889,45.1465828 C93.1308889,45.5770892 93.6010358,45.6587395 94.0716538,45.8091085 C94.5356766,45.958876 95.0064516,46.1163123 95.0064516,46.840339 C95.0064516,47.6114311 94.4855841,47.9876543 93.7726693,47.9876543 C92.4741907,47.9876543 92.4602151,47.0651406 92.4602151,46.6898196 L93.0597544,46.6898196 C93.0597544,47.13416 93.1877336,47.5368481 93.7726693,47.5368481 C93.9653447,47.5368481 94.4070693,47.4484312 94.4070693,46.9287559 C94.4070693,46.4375005 93.9362942,46.3350992 93.4728996,46.1845799 C93.0095049,46.0342109 92.5315065,45.9045928 92.5315065,45.1465828 C92.5315065,44.4639076 93.0880198,44.1358025 93.7508421,44.1358025 C94.8638686,44.1358025 94.9061096,44.8730616 94.913333,45.3034176 L94.3145788,45.3034176 Z" id="Fill-34" fill="#FFFFFF" mask="url(#mask-2)"></path>
                <path d="M97.3935484,43.0123457 L98.0288864,43.0123457 L98.0288864,46.4435826 C98.0288864,47.1607686 98.2740906,47.4955859 98.9019597,47.4955859 C99.5800456,47.4955859 99.7825019,47.1267602 99.7825019,46.4435826 L99.7825019,43.0123457 L100.417204,43.0123457 L100.417204,46.4435826 C100.417204,47.3791146 99.9128114,47.9876543 98.9019597,47.9876543 C97.8698135,47.9876543 97.3935484,47.4481848 97.3935484,46.4435826 L97.3935484,43.0123457 Z" id="Fill-35" fill="#FFFFFF" mask="url(#mask-2)"></path>
                <path d="M102.748987,45.3034176 C102.748987,44.8393789 102.620851,44.5866087 102.185251,44.5866087 C101.992418,44.5866087 101.564669,44.6339749 101.564669,45.1465828 C101.564669,45.5770892 102.036073,45.6587395 102.506691,45.8091085 C102.970085,45.958876 103.44086,46.1163123 103.44086,46.840339 C103.44086,47.6114311 102.919993,47.9876543 102.206921,47.9876543 C100.909227,47.9876543 100.894624,47.0651406 100.894624,46.6898196 L101.494006,46.6898196 C101.494006,47.13416 101.622142,47.5368481 102.206921,47.5368481 C102.399753,47.5368481 102.842106,47.4484312 102.842106,46.9287559 C102.842106,46.4375005 102.371331,46.3350992 101.907308,46.1845799 C101.443285,46.0342109 100.965915,45.9045928 100.965915,45.1465828 C100.965915,44.4639076 101.522428,44.1358025 102.185251,44.1358025 C103.29812,44.1358025 103.340518,44.8730616 103.347742,45.3034176 L102.748987,45.3034176 Z" id="Fill-36" fill="#FFFFFF" mask="url(#mask-2)"></path>
                <path d="M106.13974,45.6791902 L106.13974,45.4814164 C106.13974,45.0709793 106.000953,44.5860951 105.459491,44.5860951 C104.816435,44.5860951 104.743499,45.3239493 104.743499,45.5420269 L104.743499,45.6791902 L106.13974,45.6791902 Z M104.72112,46.129934 C104.72112,46.6903183 104.72112,47.5369105 105.474465,47.5369105 C106.059237,47.5369105 106.13974,46.9632912 106.13974,46.6903183 L106.753654,46.6903183 C106.753654,47.0798499 106.505222,47.9876543 105.437916,47.9876543 C104.480094,47.9876543 104.077419,47.366058 104.077419,46.1097807 C104.077419,45.193554 104.267567,44.1358025 105.474465,44.1358025 C106.673151,44.1358025 106.782796,45.1126397 106.782796,45.8980198 L106.782796,46.129934 L104.72112,46.129934 Z" id="Fill-37" fill="#FFFFFF" mask="url(#mask-2)"></path>
                <path d="M109.418505,43.1728395 L111.682356,43.1728395 L111.682356,43.7212841 L109.898658,43.7212841 L109.698331,45.1615702 L109.712212,45.1750337 C109.919795,44.9292859 110.256723,44.8031623 110.600117,44.8031623 C111.360098,44.8031623 111.875269,45.3932354 111.875269,46.4406037 C111.875269,47.3681931 111.460261,48.1481481 110.399948,48.1481481 C109.19641,48.1481481 109.010753,47.1711925 109.010753,46.771156 L109.640599,46.771156 C109.640599,47.0312958 109.740763,47.6849724 110.41446,47.6849724 C111.130589,47.6849724 111.245422,46.897744 111.245422,46.3912374 C111.245422,45.8427928 111.037209,45.266957 110.399948,45.266957 C109.962857,45.266957 109.683031,45.6320193 109.683031,45.7522624 L109.139309,45.7234783 L109.418505,43.1728395 Z" id="Fill-38" fill="#FFFFFF" mask="url(#mask-2)"></path>
                <path d="M113.944086,47.532912 C114.709767,47.532912 114.75175,46.5474094 114.75175,45.5204839 C114.75175,44.4456109 114.709767,43.4672397 113.944086,43.4672397 C113.178405,43.4672397 113.136422,44.4456109 113.136422,45.5204839 C113.136422,46.5474094 113.178405,47.532912 113.944086,47.532912 M112.511828,45.5204839 C112.511828,44.4456109 112.590487,43.0123457 113.944086,43.0123457 C115.297529,43.0123457 115.376344,44.3219489 115.376344,45.5204839 C115.376344,46.5543891 115.297529,47.9876543 113.944086,47.9876543 C112.590487,47.9876543 112.511828,46.6782029 112.511828,45.5204839" id="Fill-39" fill="#FFFFFF" mask="url(#mask-2)"></path>
                <path d="M117.922581,44.2331166 L118.49921,44.2331166 L118.49921,44.6746546 L118.513975,44.6746546 C118.672103,44.3310477 119.076473,44.1358025 119.450996,44.1358025 C119.898074,44.1358025 120.164479,44.3031335 120.287204,44.7310999 C120.460732,44.4016814 120.806519,44.1358025 121.202951,44.1358025 C122.219355,44.1358025 122.219355,44.8848593 122.219355,45.3262431 L122.219355,47.9876543 L121.614149,47.9876543 L121.614149,45.3962599 C121.614149,45.1089441 121.592715,44.6396462 121.094833,44.6396462 C120.813822,44.6396462 120.374047,44.8082109 120.374047,45.3962599 L120.374047,47.9876543 L119.768682,47.9876543 L119.768682,45.3962599 C119.768682,45.1089441 119.746614,44.6396462 119.248732,44.6396462 C118.96772,44.6396462 118.527946,44.8082109 118.527946,45.3962599 L118.527946,47.9876543 L117.922581,47.9876543 L117.922581,44.2331166 Z" id="Fill-40" fill="#FFFFFF" mask="url(#mask-2)"></path>
                <path d="M123.494521,46.108658 C123.494521,46.7173378 123.589242,47.4802287 124.198299,47.4802287 C124.857672,47.4802287 124.989291,46.8778653 124.989291,46.108658 C124.989291,45.3812003 124.857672,44.6391071 124.205647,44.6391071 C123.639558,44.6391071 123.494521,45.2129699 123.494521,46.108658 Z M125.56129,47.7458231 C125.56129,48.8656644 125.024911,49.2716049 124.241267,49.2716049 C124.002149,49.2716049 123.066121,49.2716049 122.964691,48.3337051 L123.573748,48.3337051 C123.603299,48.6764823 123.878676,48.8091254 124.198299,48.8091254 C124.981943,48.8091254 124.952393,48.2283301 124.952393,47.9699763 L124.952393,47.4802287 L124.937538,47.4802287 C124.807357,47.7949674 124.444606,47.9841495 124.060611,47.9841495 C122.928432,47.9841495 122.855914,46.6061085 122.855914,46.108658 C122.855914,45.0945 123.139278,44.1358025 124.124983,44.1358025 C124.546035,44.1358025 124.887222,44.4157243 124.966449,44.7098193 L124.981943,44.7098193 L124.981943,44.2330125 L125.56129,44.2330125 L125.56129,47.7458231 Z" id="Fill-41" fill="#FFFFFF" mask="url(#mask-2)"></path>
                <polygon id="Fill-42" fill="#FFFFFF" mask="url(#mask-2)" points="127.773376 42.8518519 128.266667 42.8518519 126.532659 47.9876543 126.03871 47.9876543"></polygon>
                <path d="M128.425806,44.2331166 L129.002435,44.2331166 L129.002435,44.6746546 L129.017042,44.6746546 C129.175329,44.3310477 129.579699,44.1358025 129.954222,44.1358025 C130.4013,44.1358025 130.667705,44.3031335 130.790429,44.7310999 C130.963958,44.4016814 131.309745,44.1358025 131.706177,44.1358025 C132.722581,44.1358025 132.722581,44.8848593 132.722581,45.3262431 L132.722581,47.9876543 L132.117216,47.9876543 L132.117216,45.3962599 C132.117216,45.1089441 132.095941,44.6396462 131.598059,44.6396462 C131.317048,44.6396462 130.877273,44.8082109 130.877273,45.3962599 L130.877273,47.9876543 L130.271908,47.9876543 L130.271908,45.3962599 C130.271908,45.1089441 130.24984,44.6396462 129.751958,44.6396462 C129.470946,44.6396462 129.031172,44.8082109 129.031172,45.3962599 L129.031172,47.9876543 L128.425806,47.9876543 L128.425806,44.2331166 Z" id="Fill-43" fill="#FFFFFF" mask="url(#mask-2)"></path>
                <polygon id="Fill-44" fill="#FFFFFF" mask="url(#mask-2)" points="133.677419 43.0123457 134.306951 43.0123457 134.306951 47.4439282 136.382796 47.4439282 136.382796 47.9876543 133.677419 47.9876543"></polygon>
                <path d="M34.8431585,36.5578249 C36.4300071,36.5578249 36.6858933,35.1411035 36.6858933,33.1777718 C36.6858933,31.504224 36.3792808,29.7977187 34.8431585,29.7977187 C33.511552,29.7977187 33.1703167,31.1173898 33.1703167,33.1777718 C33.1703167,35.2381538 33.511552,36.5578249 34.8431585,36.5578249 Z M38.0344086,37.4912694 L36.6683404,37.4912694 L36.6683404,36.4288802 L36.6343618,36.4288802 C36.4469159,37.0731482 35.6454398,37.7160494 34.6557126,37.7160494 C32.4880073,37.7160494 31.6688172,35.8976097 31.6688172,33.1777718 C31.6688172,31.3752793 31.9762349,28.6394942 34.5528106,28.6394942 C35.3718396,28.6394942 36.241756,29.105457 36.5667266,29.8461679 L36.6005442,29.8461679 L36.6005442,26 L38.0344086,26 L38.0344086,37.4912694 Z" id="Fill-45" fill="#FFFFFF" mask="url(#mask-2)"></path>
                <path d="M45.5139785,37.4913041 L44.1786482,37.4913041 L44.1786482,36.480253 L44.1462213,36.480253 C43.7788205,37.2661044 42.8452069,37.7160494 41.9769196,37.7160494 C39.6258065,37.7160494 39.6258065,35.9985044 39.6258065,34.9873019 L39.6258065,28.8888889 L41.0267777,28.8888889 L41.0267777,34.8269209 C41.0267777,35.4852551 41.0763627,36.5605192 42.3443204,36.5605192 C43.0953354,36.5605192 44.1123776,36.0786191 44.1123776,34.8269209 L44.1123776,28.8888889 L45.5139785,28.8888889 L45.5139785,37.4913041 Z" id="Fill-46" fill="#FFFFFF" mask="url(#mask-2)"></path>
                <path d="M47.2645161,28.7926427 L48.6627392,28.7926427 L48.6627392,30.0767282 L48.6963594,30.0767282 C49.0952458,29.2580272 49.6282987,28.5679012 50.6274784,28.5679012 C50.9107364,28.5679012 51.1096297,28.60031 51.2430108,28.6646733 L51.2430108,29.9799561 C51.1096297,29.9646604 50.9430997,29.9163501 50.4940973,29.9163501 C49.7946716,29.9163501 48.6627392,30.5262112 48.6627392,31.9541676 L48.6627392,37.3950617 L47.2645161,37.3950617 L47.2645161,28.7926427 Z" id="Fill-47" fill="#FFFFFF" mask="url(#mask-2)"></path>
                <polygon id="Fill-48" fill="#FFFFFF" mask="url(#mask-2)" points="51.8795699 28.8888889 53.4346649 28.8888889 55.1251866 35.8416907 55.1593224 35.8416907 56.8492061 28.8888889 58.4043011 28.8888889 55.95322 37.5555556 54.3304914 37.5555556"></polygon>
                <path d="M63.5121673,32.7530344 C62.9840888,33.2876942 61.7243798,33.4017285 61.0774153,33.7749036 C60.6174552,34.0508818 60.3790407,34.3913008 60.3790407,35.1531107 C60.3790407,36.0295672 60.7026033,36.6459643 61.6731303,36.6459643 C62.6099194,36.6459643 63.5121673,35.8829298 63.5121673,34.991626 L63.5121673,32.7530344 Z M59.1026234,31.4230431 C59.1026234,29.4437454 59.9873597,28.5679012 62.1668283,28.5679012 C64.9420118,28.5679012 64.9420118,30.1579518 64.9420118,31.0659399 L64.9420118,35.915686 C64.9420118,36.2727892 64.9420118,36.6132082 65.3842997,36.6132082 C65.5721073,36.6132082 65.6570947,36.580452 65.7247312,36.5320831 L65.7247312,37.5057366 C65.6227142,37.5210432 65.2479021,37.5867085 64.8906017,37.5867085 C64.3456542,37.5867085 63.6654338,37.5867085 63.5973154,36.4671831 L63.5627742,36.4671831 C63.1036174,37.2456773 62.2180778,37.7160494 61.3664367,37.7160494 C59.6646004,37.7160494 58.8817204,36.742549 58.8817204,35.1854077 C58.8817204,33.9691445 59.4261859,33.1255972 60.6005863,32.7851782 L62.5241287,32.2338342 C63.5627742,31.9255591 63.5627742,31.6494278 63.5627742,30.9197618 C63.5627742,30.1089707 63.0522073,29.6385986 62.0985492,29.6385986 C60.5324678,29.6385986 60.5324678,31.0330307 60.5324678,31.341918 L60.5324678,31.4230431 L59.1026234,31.4230431 Z" id="Fill-49" fill="#FFFFFF" mask="url(#mask-2)"></path>
                <polygon id="Fill-50" fill="#FFFFFF" mask="url(#mask-2)" points="66.8387097 37.5555556 68.2709677 37.5555556 68.2709677 26 66.8387097 26"></polygon>
                <path d="M75.7505376,37.4913041 L74.416324,37.4913041 L74.416324,36.480253 L74.3832638,36.480253 C74.0159812,37.2661044 73.0814807,37.7160494 72.2138876,37.7160494 C69.8623656,37.7160494 69.8623656,35.9985044 69.8623656,34.9873019 L69.8623656,28.8888889 L71.2634867,28.8888889 L71.2634867,34.8269209 C71.2634867,35.4852551 71.3130769,36.5605192 72.5811702,36.5605192 C73.3322656,36.5605192 74.3494165,36.0786191 74.3494165,34.8269209 L74.3494165,28.8888889 L75.7505376,28.8888889 L75.7505376,37.4913041 Z" id="Fill-51" fill="#FFFFFF" mask="url(#mask-2)"></path>
                <path d="M77.6602151,28.7926427 L79.0062496,28.7926427 L79.0062496,29.8036764 L79.039587,29.8036764 C79.4101076,29.01799 80.3516492,28.5679012 81.2265161,28.5679012 C82.2696572,28.5679012 82.8922716,28.9530209 83.1786551,29.9322516 C83.5817194,29.1777624 84.3892766,28.5679012 85.3147845,28.5679012 C87.6860215,28.5679012 87.6860215,30.2855682 87.6860215,31.2966019 L87.6860215,37.3950617 L86.2731535,37.3950617 L86.2731535,31.4569801 C86.2731535,30.7986572 86.2231475,29.7234116 85.062532,29.7234116 C84.4059453,29.7234116 83.3794729,30.1085313 83.3794729,31.4569801 L83.3794729,37.3950617 L81.9667637,37.3950617 L81.9667637,31.4569801 C81.9667637,30.7986572 81.9165989,29.7234116 80.7561422,29.7234116 C80.0993967,29.7234116 79.073083,30.1085313 79.073083,31.4569801 L79.073083,37.3950617 L77.6602151,37.3950617 L77.6602151,28.7926427 Z" id="Fill-52" fill="#FFFFFF" mask="url(#mask-2)"></path>
                <path d="M93.7487265,32.7530344 C93.220648,33.2876942 91.9609389,33.4017285 91.3139745,33.7749036 C90.8540144,34.0508818 90.6155999,34.3913008 90.6155999,35.1531107 C90.6155999,36.0295672 90.939805,36.6459643 91.9096894,36.6459643 C92.8456753,36.6459643 93.7487265,35.8829298 93.7487265,34.991626 L93.7487265,32.7530344 Z M89.3391825,31.4230431 C89.3391825,29.4437454 90.2239189,28.5679012 92.4033874,28.5679012 C95.178571,28.5679012 95.178571,30.1579518 95.178571,31.0659399 L95.178571,35.915686 C95.178571,36.2727892 95.178571,36.6132082 95.6208588,36.6132082 C95.8086665,36.6132082 95.8936539,36.580452 95.9612903,36.5320831 L95.9612903,37.5057366 C95.8592733,37.5210432 95.4844613,37.5867085 95.1271608,37.5867085 C94.5822134,37.5867085 93.901993,37.5867085 93.8338745,36.4671831 L93.7993333,36.4671831 C93.3401765,37.2456773 92.4546369,37.7160494 91.6029958,37.7160494 C89.9011596,37.7160494 89.1182796,36.742549 89.1182796,35.1854077 C89.1182796,33.9691445 89.6627451,33.1255972 90.8371454,32.7851782 L92.7606879,32.2338342 C93.7993333,31.9255591 93.7993333,31.6494278 93.7993333,30.9197618 C93.7993333,30.1089707 93.2887664,29.6385986 92.3351083,29.6385986 C90.769027,29.6385986 90.769027,31.0330307 90.769027,31.341918 L90.769027,31.4230431 L89.3391825,31.4230431 Z" id="Fill-53" fill="#FFFFFF" mask="url(#mask-2)"></path>
                <path d="M100.107702,36.5578249 C101.438799,36.5578249 101.780069,35.1411035 101.780069,33.1777718 C101.780069,31.1173898 101.438799,29.7977187 100.107702,29.7977187 C98.5707802,29.7977187 98.2641366,31.504224 98.2641366,33.1777718 C98.2641366,34.948218 98.5707802,36.5578249 100.107702,36.5578249 Z M96.916129,26 L98.3494943,26 L98.3494943,29.8461679 L98.3839595,29.8461679 C98.7083188,29.105457 99.5783232,28.6394942 100.499703,28.6394942 C102.974272,28.6394942 103.28172,31.3752793 103.28172,33.1777718 C103.28172,35.6084332 102.411072,37.7160494 100.295167,37.7160494 C99.3046954,37.7160494 98.5031382,37.0731482 98.3155123,36.4288802 L98.2816913,36.4288802 L98.2816913,37.4912694 L96.916129,37.4912694 L96.916129,26 Z" id="Fill-54" fill="#FFFFFF" mask="url(#mask-2)"></path>
                <path d="M16.0731183,12.117284 C16.0731183,10.5659938 14.7551318,9.30864198 13.1290323,9.30864198 C11.5029327,9.30864198 10.1849462,10.5659938 10.1849462,12.117284 C10.1849462,13.6685741 11.5029327,14.9259259 13.1290323,14.9259259 C14.7551318,14.9259259 16.0731183,13.6685741 16.0731183,12.117284" id="Fill-55" fill="#FFFFFF" mask="url(#mask-2)"></path>
                <polygon id="Fill-56" fill="#FFFFFF" mask="url(#mask-2)" points="9.38924731 8.82716049 3.9079415 0.641975309 4.60723221 4.85623957 0 4.80275252"></polygon>
                <path d="M12.9357041,0.000797932806 C12.8227224,0.00201346203 12.7143554,0.0187269888 12.6066249,0.0358963391 C12.5663652,0.0436453379 12.5216499,0.0460763963 12.4828223,0.0558006301 C12.4393801,0.0653729227 12.3992795,0.0819345084 12.3571102,0.0940898006 C12.2579727,0.123414443 12.1604265,0.154714321 12.0714733,0.193763197 C12.0065486,0.223087839 11.9456021,0.258186246 11.8848147,0.293284652 C11.837235,0.319570471 11.7883824,0.345096585 11.7443036,0.374421227 C11.6459617,0.441579217 11.5530302,0.514966794 11.4686918,0.597318899 C11.4659866,0.599901898 11.4626448,0.601877133 11.4599396,0.604460133 C11.2820332,0.778736635 11.140249,0.984464956 11.0379289,1.21116116 C11.031882,1.22529168 11.0231299,1.23927027 11.017083,1.25400856 C10.9836659,1.3331699 10.9623425,1.41749724 10.9395871,1.50121682 C10.8097376,2.00839638 10.8800727,2.55644812 11.1649141,3.01242352 C11.1690514,3.01880505 11.1715975,3.02518658 11.1757348,3.03156811 C11.2352492,3.12425221 11.3054252,3.21177031 11.3824437,3.29473018 C11.3931054,3.30688548 11.403767,3.31964853 11.4152243,3.33180383 C11.4974941,3.41673893 11.5883569,3.49605221 11.689404,3.56822426 C11.6941779,3.57141502 11.6981561,3.57521355 11.7027708,3.57840432 C12.0312136,3.80768352 12.4560886,3.96296737 12.9778734,3.99745802 C12.9952185,3.99867354 13.0112905,4.00125654 13.0286356,4.00247207 C14.8328428,3.99168425 16.5132475,4.51223464 17.9094474,5.4103588 C20.5538569,6.94010232 21.7672173,9.48359722 21.7465305,12.1329951 C21.747167,12.1503164 21.7498722,12.166878 21.7498722,12.1840473 C21.761966,13.1850356 21.5765805,14.1360353 21.244796,15.0207886 C20.0627841,18.169769 16.9086836,20.4180423 13.1791719,20.5547893 C2.57893729,20.9437587 0.353355874,10.6076579 0.353355874,10.6076579 C-0.327717232,13.3154012 0.772661396,17.6703385 3.80980189,20.7936408 C5.95916041,23.0043846 9.07713855,24.5993109 13.2267515,24.5546402 C20.3169135,24.4779099 26.0191503,18.908203 25.9389492,12.1387689 C25.8585889,5.36933468 20.0253887,-0.0757804082 12.9357041,0.000797932806" id="Fill-57" fill="#FFFFFF" mask="url(#mask-2)"></path>
                <polygon id="Fill-5" fill="#FFFFFF" mask="url(#mask-2)" points="31.6688172 22.1481481 36.6021505 22.1481481 36.6021505 3.5308642 31.6688172 3.5308642"></polygon>
            </g>
        </g>
    </g>
</svg>