<?xml version="1.0" encoding="UTF-8"?>
<svg width="148px" height="49px" viewBox="0 0 148 49" version="1.1" xmlns="http://www.w3.org/2000/svg" xmlns:xlink="http://www.w3.org/1999/xlink">
    <!-- Generator: Sketch 48.1 (47250) - http://www.bohemiancoding.com/sketch -->
    <title>Logo</title>
    <desc>Created with Sketch.</desc>
    <defs>
        <polygon id="path-1" points="0 48.9998488 147.980086 48.9998488 147.980086 0.14170679 0 0.14170679"></polygon>
    </defs>
    <g id="цветной-лого" stroke="none" stroke-width="1" fill="none" fill-rule="evenodd" transform="translate(-4.000000, -5.000000)">
        <g id="Color-logo" transform="translate(4.000000, 5.000000)">
            <g id="Group-58">
                <path d="M60.873786,22.1019037 L60.873786,6.19111975 L57.1916288,18.3146877 C56.4991036,20.5506907 55.7436504,22.1019037 51.3998743,22.1019037 L49.3224577,22.1019037 L44.3175406,6.16450247 L44.3175406,22.1019037 L40.194729,22.1019037 L40.194729,3.5348358 L48.0318786,3.5348358 L52.9737085,19.2352525 L56.4361757,7.53196543 C57.2861003,4.71809506 58.1674093,3.5348358 61.2828969,3.5348358 L65.4372521,3.5348358 L65.4372521,22.1019037 L60.873786,22.1019037 Z" id="Fill-2" fill="#AC1E2D"></path>
                <polygon id="Fill-4" fill="#AC1E2D" points="81.3186558 3.53491142 81.3186558 6.08563364 74.205575 6.08563364 74.205575 11.056109 81.1618936 11.056109 81.1618936 13.6074361 74.205575 13.6074361 74.205575 22.1019793 69.2006579 22.1019793 69.2006579 3.53491142"></polygon>
                <mask id="mask-2" fill="white">
                    <use xlink:href="#path-1"></use>
                </mask>
                <g id="Clip-7"></g>
                <polygon id="Fill-6" fill="#AC1E2D" mask="url(#mask-2)" points="83.4312164 22.1017222 88.341662 22.1017222 88.341662 3.53465432 83.4312164 3.53465432"></polygon>
                <path d="M112.105523,16.7369935 C112.105523,19.9979133 111.412998,22.1015861 106.786604,22.1015861 L104.488701,22.1015861 L96.2110562,6.87438241 L96.2110562,22.1015861 L92.0245201,22.1015861 L92.0245201,3.53466944 L99.2636159,3.53466944 L107.824675,18.9723917 L107.824675,3.53466944 L112.105523,3.53466944 L112.105523,16.7369935 Z" id="Fill-8" fill="#AC1E2D" mask="url(#mask-2)"></path>
                <polygon id="Fill-9" fill="#AC1E2D" mask="url(#mask-2)" points="132.014741 3.53491142 119.959671 19.5505009 131.667762 19.5505009 131.667762 22.1019793 112.657807 22.1019793 124.806552 5.98067685 114.326113 5.98067685 114.326113 3.53491142"></polygon>
                <polygon id="Fill-10" fill="#AC1E2D" mask="url(#mask-2)" points="133.844573 22.1017222 138.755018 22.1017222 138.755018 3.53465432 133.844573 3.53465432"></polygon>
                <path d="M147.122068,6.96701358 L147.122068,4.3718284 L146.618486,6.27466173 C146.532777,6.60087469 146.404213,6.96701358 145.814762,6.96701358 L145.417599,6.96701358 L144.699743,4.38196111 L144.699743,6.96701358 L143.83102,6.96701358 L143.83102,3.53701358 L145.310542,3.53701358 L145.964195,5.95933765 L146.414887,4.27004753 C146.51127,3.90390864 146.74705,3.53701358 147.443558,3.53701358 L147.979959,3.53701358 L147.979959,6.96701358 L147.122068,6.96701358 Z M142.255274,6.96701358 L141.376514,6.96701358 L141.376514,4.25991481 L140.250663,4.25991481 L140.250663,3.53701358 L143.380966,3.53701358 L143.380966,4.25991481 L142.255274,4.25991481 L142.255274,6.96701358 Z" id="Fill-11" fill="#AC1E2D" mask="url(#mask-2)"></path>
                <polygon id="Fill-12" fill="#7CA2D5" mask="url(#mask-2)" points="31.6168784 47.7361327 32.2538041 47.7361327 32.2538041 42.8315957 31.6168784 42.8315957"></polygon>
                <path d="M33.0891677,44.0539642 L33.6677856,44.0539642 L33.6677856,44.4869488 L33.6826015,44.4869488 C33.8419126,44.1499981 34.2470407,43.9585352 34.6228555,43.9585352 C35.6427651,43.9585352 35.6427651,44.6930815 35.6427651,45.1259148 L35.6427651,47.7357698 L35.0353119,47.7357698 L35.0353119,45.1945753 C35.0353119,44.9128253 35.0139643,44.4526185 34.4641817,44.4526185 C34.1379126,44.4526185 33.6966209,44.6586 33.6966209,45.1945753 L33.6966209,47.7357698 L33.0891677,47.7357698 L33.0891677,44.0539642 Z" id="Fill-13" fill="#7CA2D5" mask="url(#mask-2)"></path>
                <path d="M36.4073628,43.4908272 L37.0148159,43.4908272 L37.0148159,42.8315957 L36.4073628,42.8315957 L36.4073628,43.4908272 Z M37.0148159,48.0925926 C37.0148159,48.6972284 36.7471733,48.9998488 36.0885813,48.9998488 C35.9942691,48.9998488 35.9005942,48.985784 35.8059634,48.9788272 L35.8059634,48.4842901 C35.8782906,48.4912469 35.9581055,48.5051605 36.0304327,48.5051605 C36.4067255,48.5051605 36.4067255,48.2299136 36.4067255,47.8866111 L36.4067255,44.0541759 L37.0148159,44.0541759 L37.0148159,48.0925926 Z" id="Fill-14" fill="#7CA2D5" mask="url(#mask-2)"></path>
                <path d="M39.6993352,45.5104892 L39.6993352,45.3116157 C39.6993352,44.8988966 39.562009,44.4113164 39.0262459,44.4113164 C38.3893201,44.4113164 38.3176301,45.1532731 38.3176301,45.3725633 L38.3176301,45.5104892 L39.6993352,45.5104892 Z M38.2956452,45.9637392 C38.2956452,46.5272392 38.2956452,47.3785386 39.0410618,47.3785386 C39.6196797,47.3785386 39.6993352,46.8017299 39.6993352,46.5272392 L40.3067884,46.5272392 C40.3067884,46.9189367 40.0609714,47.8317886 39.0048982,47.8317886 C38.0571565,47.8317886 37.6593567,47.2067361 37.6593567,45.9434738 C37.6593567,45.0221528 37.8468659,43.9585201 39.0410618,43.9585201 C40.2277701,43.9585201 40.3362609,44.9407886 40.3362609,45.7305355 L40.3362609,45.9637392 L38.2956452,45.9637392 Z" id="Fill-15" fill="#7CA2D5" mask="url(#mask-2)"></path>
                <path d="M42.8396594,45.1740377 C42.8396594,44.8166704 42.6876766,44.4118154 42.2248779,44.4118154 C41.8484258,44.4118154 41.4648047,44.5898185 41.4648047,45.9362599 C41.4648047,46.4170346 41.472133,47.3788864 42.2027337,47.3788864 C42.7238403,47.3788864 42.8396594,46.8562198 42.8396594,46.4583216 L43.4471126,46.4583216 C43.4471126,47.0419358 43.1437843,47.8321364 42.1738984,47.8321364 C41.226316,47.8321364 40.8285163,47.206479 40.8285163,45.9433679 C40.8285163,45.0228031 41.0160254,43.9584142 42.210062,43.9584142 C43.2662945,43.9584142 43.4471126,44.7480099 43.4471126,45.1740377 L42.8396594,45.1740377 Z" id="Fill-16" fill="#7CA2D5" mask="url(#mask-2)"></path>
                <path d="M44.3184168,42.982921 L44.9265072,42.982921 L44.9265072,44.0541154 L45.5989593,44.0541154 L45.5989593,44.5075167 L44.9265072,44.5075167 L44.9265072,46.8699519 C44.9265072,47.1656154 45.0055255,47.2828222 45.3236698,47.2828222 C45.4543048,47.2828222 45.5266321,47.2686062 45.591631,47.2616494 L45.591631,47.7360722 C45.5124534,47.7493809 45.3531423,47.7766031 45.099997,47.7766031 C44.4703996,47.7766031 44.3184168,47.5293346 44.3184168,47.0494673 L44.3184168,44.5075167 L43.7538183,44.5075167 L43.7538183,44.0541154 L44.3184168,44.0541154 L44.3184168,42.982921 Z" id="Fill-17" fill="#7CA2D5" mask="url(#mask-2)"></path>
                <path d="M46.0614553,47.7361327 L46.6695457,47.7361327 L46.6695457,44.0541759 L46.0614553,44.0541759 L46.0614553,47.7361327 Z M46.0614553,43.4908272 L46.6695457,43.4908272 L46.6695457,42.8315957 L46.0614553,42.8315957 L46.0614553,43.4908272 Z" id="Fill-18" fill="#7CA2D5" mask="url(#mask-2)"></path>
                <path d="M49.4446971,45.8949123 C49.4446971,45.0982086 49.3213903,44.4114525 48.6704452,44.4114525 C48.0556637,44.4114525 47.9250286,45.0982086 47.9250286,45.8949123 C47.9250286,46.6914648 48.0483354,47.3788259 48.6704452,47.3788259 C49.3146992,47.3788259 49.4446971,46.6914648 49.4446971,45.8949123 M48.6852611,43.9582025 C49.8063333,43.9582025 50.0816228,44.8578969 50.0816228,45.8949123 C50.0816228,46.9323815 49.799005,47.8320759 48.6852611,47.8320759 C47.5633925,47.8320759 47.2888995,46.9323815 47.2888995,45.8949123 C47.2888995,44.8578969 47.5708801,43.9582025 48.6852611,43.9582025" id="Fill-19" fill="#7CA2D5" mask="url(#mask-2)"></path>
                <path d="M50.6801227,44.0539642 L51.2587406,44.0539642 L51.2587406,44.4869488 L51.2735565,44.4869488 C51.4328676,44.1499981 51.8379957,43.9585352 52.2138105,43.9585352 C53.2337201,43.9585352 53.2337201,44.6930815 53.2337201,45.1259148 L53.2337201,47.7357698 L52.626267,47.7357698 L52.626267,45.1945753 C52.626267,44.9128253 52.6049193,44.4526185 52.0549774,44.4526185 C51.7288676,44.4526185 51.2875759,44.6586 51.2875759,45.1945753 L51.2875759,47.7357698 L50.6801227,47.7357698 L50.6801227,44.0539642 Z" id="Fill-20" fill="#7CA2D5" mask="url(#mask-2)"></path>
                <path d="M55.9456409,44.5078191 L55.3810424,44.5078191 L55.3810424,44.053813 L55.9456409,44.053813 L55.9456409,43.6217358 C55.9456409,43.0651926 56.1987862,42.7767883 56.7847324,42.7767883 L57.2261834,42.7767883 L57.2261834,43.2711741 L56.9442028,43.2711741 C56.6837292,43.2711741 56.5537313,43.367208 56.5537313,43.6217358 L56.5537313,44.053813 L57.2188551,44.053813 L57.2188551,44.5078191 L56.5537313,44.5078191 L56.5537313,47.7357698 L55.9456409,47.7357698 L55.9456409,44.5078191 Z" id="Fill-21" fill="#7CA2D5" mask="url(#mask-2)"></path>
                <path d="M59.6059884,45.8949123 C59.6059884,45.0982086 59.4826816,44.4114525 58.8317365,44.4114525 C58.216955,44.4114525 58.0863199,45.0982086 58.0863199,45.8949123 C58.0863199,46.6914648 58.2096267,47.3788259 58.8317365,47.3788259 C59.4759905,47.3788259 59.6059884,46.6914648 59.6059884,45.8949123 M58.8465524,43.9582025 C59.9676245,43.9582025 60.2429141,44.8578969 60.2429141,45.8949123 C60.2429141,46.9323815 59.9602962,47.8320759 58.8465524,47.8320759 C57.7246837,47.8320759 57.4501907,46.9323815 57.4501907,45.8949123 C57.4501907,44.8578969 57.7321714,43.9582025 58.8465524,43.9582025" id="Fill-22" fill="#7CA2D5" mask="url(#mask-2)"></path>
                <path d="M60.8414299,44.0539642 L61.4488831,44.0539642 L61.4488831,44.6038531 L61.4635397,44.6038531 C61.6370295,44.2529889 61.8688271,43.9585352 62.3027905,43.9585352 C62.425938,43.9585352 62.5130812,43.9719951 62.5705925,43.9992173 L62.5705925,44.562566 C62.5130812,44.5556093 62.4407539,44.5351926 62.2451199,44.5351926 C61.9411544,44.5351926 61.4488831,44.795921 61.4488831,45.4075136 L61.4488831,47.7357698 L60.8414299,47.7357698 L60.8414299,44.0539642 Z" id="Fill-23" fill="#7CA2D5" mask="url(#mask-2)"></path>
                <polygon id="Fill-24" fill="#7CA2D5" mask="url(#mask-2)" points="64.7400431 47.7361327 65.3769688 47.7361327 65.3769688 42.8315957 64.7400431 42.8315957"></polygon>
                <path d="M66.2119501,44.0539642 L66.7905679,44.0539642 L66.7905679,44.4869488 L66.8053839,44.4869488 C66.9646949,44.1499981 67.369823,43.9585352 67.7456379,43.9585352 C68.7655475,43.9585352 68.7655475,44.6930815 68.7655475,45.1259148 L68.7655475,47.7357698 L68.1580943,47.7357698 L68.1580943,45.1945753 C68.1580943,44.9128253 68.1367466,44.4526185 67.5868047,44.4526185 C67.2606949,44.4526185 66.8194032,44.6586 66.8194032,45.1945753 L66.8194032,47.7357698 L66.2119501,47.7357698 L66.2119501,44.0539642 Z" id="Fill-25" fill="#7CA2D5" mask="url(#mask-2)"></path>
                <path d="M69.7597283,42.982921 L70.3671815,42.982921 L70.3671815,44.0541154 L71.0402708,44.0541154 L71.0402708,44.5075167 L70.3671815,44.5075167 L70.3671815,46.8699519 C70.3671815,47.1656154 70.4466777,47.2828222 70.7649813,47.2828222 C70.8956164,47.2828222 70.9679436,47.2686062 71.0329425,47.2616494 L71.0329425,47.7360722 C70.9537649,47.7493809 70.7944538,47.7766031 70.5413085,47.7766031 C69.9117111,47.7766031 69.7597283,47.5293346 69.7597283,47.0494673 L69.7597283,44.5075167 L69.1951298,44.5075167 L69.1951298,44.0541154 L69.7597283,44.0541154 L69.7597283,42.982921 Z" id="Fill-26" fill="#7CA2D5" mask="url(#mask-2)"></path>
                <path d="M71.4854019,44.0539642 L72.0928551,44.0539642 L72.0928551,44.6038531 L72.1075117,44.6038531 C72.2810015,44.2529889 72.5127991,43.9585352 72.9467625,43.9585352 C73.06991,43.9585352 73.1570532,43.9719951 73.2145645,43.9992173 L73.2145645,44.562566 C73.1570532,44.5556093 73.0840887,44.5351926 72.8890919,44.5351926 C72.5851264,44.5351926 72.0928551,44.795921 72.0928551,45.4075136 L72.0928551,47.7357698 L71.4854019,47.7357698 L71.4854019,44.0539642 Z" id="Fill-27" fill="#7CA2D5" mask="url(#mask-2)"></path>
                <path d="M75.4601658,45.7302481 C75.2358558,45.9566463 74.7000926,46.0048901 74.4254403,46.1632327 C74.2298062,46.2796833 74.128803,46.4239611 74.128803,46.7469981 C74.128803,47.1176741 74.2659699,47.3788562 74.6785856,47.3788562 C75.0763854,47.3788562 75.4601658,47.0559704 75.4601658,46.6777327 L75.4601658,45.7302481 Z M73.5863488,45.1668994 C73.5863488,44.3290599 73.9626416,43.958384 74.888239,43.958384 C76.0676189,43.958384 76.0676189,44.6310753 76.0676189,45.0156648 L76.0676189,47.069279 C76.0676189,47.2205136 76.0676189,47.3649426 76.2557653,47.3649426 C76.3354209,47.3649426 76.3715845,47.351029 76.4004198,47.3304611 L76.4004198,47.7425753 C76.3569279,47.7495321 76.198254,47.7767543 76.0461119,47.7767543 C75.8144736,47.7767543 75.5251647,47.7767543 75.4963294,47.3030877 L75.4816728,47.3030877 C75.286676,47.6324765 74.9103832,47.8321062 74.548747,47.8321062 C73.8246781,47.8321062 73.4925145,47.4196895 73.4925145,46.7603068 C73.4925145,46.2452019 73.7235156,45.888137 74.2224779,45.743708 L75.0402217,45.5103531 C75.4816728,45.3801401 75.4816728,45.2635383 75.4816728,44.9539611 C75.4816728,44.6108099 75.2645318,44.411634 74.8594037,44.411634 C74.1936426,44.411634 74.1936426,45.0017512 74.1936426,45.1327204 L74.1936426,45.1668994 L73.5863488,45.1668994 Z" id="Fill-28" fill="#7CA2D5" mask="url(#mask-2)"></path>
                <polygon id="Fill-29" fill="#7CA2D5" mask="url(#mask-2)" points="76.4857309 44.0539642 77.1514919 44.0539642 77.8747643 47.0077265 77.8894209 47.0077265 78.6126932 44.0539642 79.2784543 44.0539642 78.2297094 47.7357698 77.5344758 47.7357698"></polygon>
                <path d="M81.5704629,45.5104892 L81.5704629,45.3116157 C81.5704629,44.8988966 81.4324995,44.4113164 80.8973735,44.4113164 C80.2604478,44.4113164 80.1889171,45.1532731 80.1889171,45.3725633 L80.1889171,45.5104892 L81.5704629,45.5104892 Z M80.1667729,45.9637392 C80.1667729,46.5272392 80.1667729,47.3785386 80.9121895,47.3785386 C81.4908073,47.3785386 81.5704629,46.8017299 81.5704629,46.5272392 L82.177916,46.5272392 C82.177916,46.9189367 81.932099,47.8317886 80.8760258,47.8317886 C79.9276469,47.8317886 79.5304844,47.2067361 79.5304844,45.9434738 C79.5304844,45.0221528 79.7179935,43.9585201 80.9121895,43.9585201 C82.0988977,43.9585201 82.2073886,44.9407886 82.2073886,45.7305355 L82.2073886,45.9637392 L80.1667729,45.9637392 Z" id="Fill-30" fill="#7CA2D5" mask="url(#mask-2)"></path>
                <path d="M82.8356159,44.0539642 L83.4142338,44.0539642 L83.4142338,44.4869488 L83.4290497,44.4869488 C83.5883608,44.1499981 83.9936482,43.9585352 84.3693038,43.9585352 C85.3892133,43.9585352 85.3892133,44.6930815 85.3892133,45.1259148 L85.3892133,47.7357698 L84.7817602,47.7357698 L84.7817602,45.1945753 C84.7817602,44.9128253 84.7604125,44.4526185 84.2104706,44.4526185 C83.8843608,44.4526185 83.4430691,44.6586 83.4430691,45.1945753 L83.4430691,47.7357698 L82.8356159,47.7357698 L82.8356159,44.0539642 Z" id="Fill-31" fill="#7CA2D5" mask="url(#mask-2)"></path>
                <path d="M88.1358161,45.8949123 C88.1358161,45.0982086 88.0126687,44.4114525 87.3615643,44.4114525 C86.7467828,44.4114525 86.6161477,45.0982086 86.6161477,45.8949123 C86.6161477,46.6914648 86.7394545,47.3788259 87.3615643,47.3788259 C88.0058183,47.3788259 88.1358161,46.6914648 88.1358161,45.8949123 M87.3763802,43.9582025 C88.4974523,43.9582025 88.7727419,44.8578969 88.7727419,45.8949123 C88.7727419,46.9323815 88.490124,47.8320759 87.3763802,47.8320759 C86.2545115,47.8320759 85.9800185,46.9323815 85.9800185,45.8949123 C85.9800185,44.8578969 86.2619991,43.9582025 87.3763802,43.9582025" id="Fill-32" fill="#7CA2D5" mask="url(#mask-2)"></path>
                <path d="M91.9164276,47.7357244 L91.3378097,47.7357244 L91.3378097,47.3027398 L91.3229938,47.3027398 C91.1636827,47.6396904 90.7585546,47.8317583 90.3821025,47.8317583 C89.3628301,47.8317583 89.3628301,47.0967583 89.3628301,46.6637738 L89.3628301,44.0539188 L89.9702833,44.0539188 L89.9702833,46.5957182 C89.9702833,46.8768633 89.991631,47.3370701 90.5415729,47.3370701 C90.8676827,47.3370701 91.3083371,47.1310886 91.3083371,46.5957182 L91.3083371,44.0539188 L91.9164276,44.0539188 L91.9164276,47.7357244 Z" id="Fill-33" fill="#7CA2D5" mask="url(#mask-2)"></path>
                <path d="M94.364115,45.1324028 C94.364115,44.6656929 94.2334799,44.4114676 93.7921882,44.4114676 C93.5965541,44.4114676 93.163228,44.4591065 93.163228,44.9746651 C93.163228,45.4076497 93.6402054,45.4897701 94.1176607,45.6410046 C94.588425,45.7916343 95.0660396,45.9499769 95.0660396,46.6781713 C95.0660396,47.4537022 94.5376047,47.832091 93.8143324,47.832091 C92.496989,47.832091 92.4828103,46.904267 92.4828103,46.5267855 L93.0910601,46.5267855 C93.0910601,46.9736836 93.2208986,47.3786898 93.8143324,47.3786898 C94.0098071,47.3786898 94.4579492,47.2897639 94.4579492,46.7670972 C94.4579492,46.2730139 93.9803346,46.1700231 93.5102075,46.0186373 C93.0400805,45.8674028 92.5551376,45.7370386 92.5551376,44.9746651 C92.5551376,44.2880602 93.1197361,43.9580664 93.7921882,43.9580664 C94.9213851,43.9580664 94.9642398,44.6995694 94.9715681,45.1324028 L94.364115,45.1324028 Z" id="Fill-34" fill="#7CA2D5" mask="url(#mask-2)"></path>
                <path d="M97.3431845,42.8315352 L97.9801102,42.8315352 L97.9801102,46.2799858 C97.9801102,47.0007698 98.2259272,47.3372667 98.8553653,47.3372667 C99.5351457,47.3372667 99.7381081,46.9665907 99.7381081,46.2799858 L99.7381081,42.8315352 L100.374397,42.8315352 L100.374397,46.2799858 C100.374397,47.2202111 99.8687432,47.8318037 98.8553653,47.8318037 C97.8206398,47.8318037 97.3431845,47.2896278 97.3431845,46.2799858 L97.3431845,42.8315352 Z" id="Fill-35" fill="#7CA2D5" mask="url(#mask-2)"></path>
                <path d="M102.8416,45.1324028 C102.8416,44.6656929 102.711602,44.4114676 102.269673,44.4114676 C102.074039,44.4114676 101.640075,44.4591065 101.640075,44.9746651 C101.640075,45.4076497 102.118327,45.4897701 102.595783,45.6410046 C103.06591,45.7916343 103.543524,45.9499769 103.543524,46.6781713 C103.543524,47.4537022 103.015089,47.832091 102.291658,47.832091 C100.975111,47.832091 100.960295,46.904267 100.960295,46.5267855 L101.568385,46.5267855 C101.568385,46.9736836 101.698383,47.3786898 102.291658,47.3786898 C102.487292,47.3786898 102.936071,47.2897639 102.936071,46.7670972 C102.936071,46.2730139 102.458456,46.1700231 101.987692,46.0186373 C101.516928,45.8674028 101.032622,45.7370386 101.032622,44.9746651 C101.032622,44.2880602 101.597221,43.9580664 102.269673,43.9580664 C103.39871,43.9580664 103.441724,44.6995694 103.449053,45.1324028 L102.8416,45.1324028 Z" id="Fill-36" fill="#7CA2D5" mask="url(#mask-2)"></path>
                <path d="M106.039101,45.5104892 L106.039101,45.3116157 C106.039101,44.8988966 105.901774,44.4113164 105.366011,44.4113164 C104.729723,44.4113164 104.657555,45.1532731 104.657555,45.3725633 L104.657555,45.5104892 L106.039101,45.5104892 Z M104.635411,45.9637392 C104.635411,46.5272392 104.635411,47.3785386 105.380827,47.3785386 C105.959445,47.3785386 106.039101,46.8017299 106.039101,46.5272392 L106.646554,46.5272392 C106.646554,46.9189367 106.400737,47.8317886 105.344664,47.8317886 C104.396922,47.8317886 103.998485,47.2067361 103.998485,45.9434738 C103.998485,45.0221528 104.186631,43.9585201 105.380827,43.9585201 C106.566898,43.9585201 106.675389,44.9407886 106.675389,45.7305355 L106.675389,45.9637392 L104.635411,45.9637392 Z" id="Fill-37" fill="#7CA2D5" mask="url(#mask-2)"></path>
                <path d="M109.380587,42.969325 L111.66702,42.969325 L111.66702,43.5053003 L109.86553,43.5053003 L109.663205,44.9128404 L109.677224,44.9259978 C109.886878,44.6858373 110.227166,44.5625812 110.573986,44.5625812 C111.341547,44.5625812 111.861857,45.1392386 111.861857,46.1627941 C111.861857,47.0692941 111.44271,47.8315164 110.37182,47.8315164 C109.156277,47.8315164 108.968768,46.8767725 108.968768,46.4858312 L109.604897,46.4858312 C109.604897,46.7400565 109.706059,47.3788713 110.386477,47.3788713 C111.109749,47.3788713 111.225728,46.609541 111.225728,46.1145503 C111.225728,45.578575 111.015437,45.0158312 110.37182,45.0158312 C109.930369,45.0158312 109.647752,45.3725935 109.647752,45.4901028 L109.098606,45.4619731 L109.380587,42.969325 Z" id="Fill-38" fill="#7CA2D5" mask="url(#mask-2)"></path>
                <path d="M113.981634,47.3787654 C114.763215,47.3787654 114.806069,46.3964969 114.806069,45.3729414 C114.806069,44.3015957 114.763215,43.3264352 113.981634,43.3264352 C113.200054,43.3264352 113.1572,44.3015957 113.1572,45.3729414 C113.1572,46.3964969 113.200054,47.3787654 113.981634,47.3787654 M112.519637,45.3729414 C112.519637,44.3015957 112.599929,42.873034 113.981634,42.873034 C115.36318,42.873034 115.443632,44.1783395 115.443632,45.3729414 C115.443632,46.4034537 115.36318,47.8320154 113.981634,47.8320154 C112.599929,47.8320154 112.519637,46.5268611 112.519637,45.3729414" id="Fill-39" fill="#7CA2D5" mask="url(#mask-2)"></path>
                <path d="M117.908398,44.0539642 L118.487016,44.0539642 L118.487016,44.4869488 L118.501832,44.4869488 C118.660505,44.1499981 119.066271,43.9585352 119.442086,43.9585352 C119.890706,43.9585352 120.15803,44.1226247 120.281177,44.5423006 C120.455304,44.2192636 120.802284,43.9585352 121.200084,43.9585352 C122.219993,43.9585352 122.219993,44.6930815 122.219993,45.1259148 L122.219993,47.7357698 L121.612699,47.7357698 L121.612699,45.1945753 C121.612699,44.9128253 121.591192,44.4526185 121.091593,44.4526185 C120.809612,44.4526185 120.36832,44.6179179 120.36832,45.1945753 L120.36832,47.7357698 L119.760867,47.7357698 L119.760867,45.1945753 C119.760867,44.9128253 119.738723,44.4526185 119.239123,44.4526185 C118.957143,44.4526185 118.515851,44.6179179 118.515851,45.1945753 L118.515851,47.7357698 L117.908398,47.7357698 L117.908398,44.0539642 Z" id="Fill-40" fill="#7CA2D5" mask="url(#mask-2)"></path>
                <path d="M123.506223,45.8949123 C123.506223,46.4924401 123.600695,47.2413537 124.208148,47.2413537 C124.865784,47.2413537 124.997056,46.6500265 124.997056,45.8949123 C124.997056,45.1807827 124.865784,44.4522858 124.215476,44.4522858 C123.650878,44.4522858 123.506223,45.0156346 123.506223,45.8949123 Z M125.567549,47.5020821 C125.567549,48.6014062 125.032583,48.9999093 124.251002,48.9999093 C124.012514,48.9999093 123.078951,48.9999093 122.977788,48.0791932 L123.585241,48.0791932 C123.614714,48.4156901 123.889366,48.5459031 124.208148,48.5459031 C124.989728,48.5459031 124.960255,47.9757488 124.960255,47.7221284 L124.960255,47.2413537 L124.945439,47.2413537 C124.815601,47.5503259 124.453805,47.736042 124.070822,47.736042 C122.941625,47.736042 122.869297,46.3832488 122.869297,45.8949123 C122.869297,44.8993352 123.151915,43.9582025 124.135024,43.9582025 C124.554968,43.9582025 124.895256,44.2329957 124.974275,44.5217025 L124.989728,44.5217025 L124.989728,44.0536315 L125.567549,44.0536315 L125.567549,47.5020821 Z" id="Fill-41" fill="#7CA2D5" mask="url(#mask-2)"></path>
                <polygon id="Fill-42" fill="#7CA2D5" mask="url(#mask-2)" points="127.71809 42.7352441 128.195545 42.7352441 126.517203 47.8321515 126.03911 47.8321515"></polygon>
                <path d="M128.491848,44.0539642 L129.070465,44.0539642 L129.070465,44.4869488 L129.085122,44.4869488 C129.243955,44.1499981 129.649721,43.9585352 130.025535,43.9585352 C130.474155,43.9585352 130.741479,44.1226247 130.864627,44.5423006 C131.038754,44.2192636 131.385733,43.9585352 131.783533,43.9585352 C132.803443,43.9585352 132.803443,44.6930815 132.803443,45.1259148 L132.803443,47.7357698 L132.19599,47.7357698 L132.19599,45.1945753 C132.19599,44.9128253 132.174642,44.4526185 131.675042,44.4526185 C131.393062,44.4526185 130.95177,44.6179179 130.95177,45.1945753 L130.95177,47.7357698 L130.344317,47.7357698 L130.344317,45.1945753 C130.344317,44.9128253 130.322173,44.4526185 129.822573,44.4526185 C129.540592,44.4526185 129.099301,44.6179179 129.099301,45.1945753 L129.099301,47.7357698 L128.491848,47.7357698 L128.491848,44.0539642 Z" id="Fill-43" fill="#7CA2D5" mask="url(#mask-2)"></path>
                <polygon id="Fill-44" fill="#7CA2D5" mask="url(#mask-2)" points="133.677631 42.8315352 134.313919 42.8315352 134.313919 47.1999457 136.412046 47.1999457 136.412046 47.735921 133.677631 47.735921"></polygon>
                <path d="M34.764499,36.4129284 C36.3343505,36.4129284 36.5874958,35.0022123 36.5874958,33.0472031 C36.5874958,31.3807494 36.2841675,29.6814778 34.764499,29.6814778 C33.4471557,29.6814778 33.1095755,30.9955549 33.1095755,33.0472031 C33.1095755,35.0988512 33.4471557,36.4129284 34.764499,36.4129284 Z M37.9215668,37.342416 L36.5701309,37.342416 L36.5701309,36.2845302 L36.5365163,36.2845302 C36.3510781,36.9260673 35.5581869,37.5662432 34.5790609,37.5662432 C32.4345744,37.5662432 31.6241589,35.7555117 31.6241589,33.0472031 C31.6241589,31.2523512 31.9282837,28.528163 34.4772611,28.528163 C35.2875173,28.528163 36.1481158,28.9921506 36.4696056,29.7297216 L36.5030609,29.7297216 L36.5030609,25.8998574 L37.9215668,25.8998574 L37.9215668,37.342416 Z" id="Fill-45" fill="#7CA2D5" mask="url(#mask-2)"></path>
                <path d="M45.5552603,37.3423404 L44.2038243,37.3423404 L44.2038243,36.3326985 L44.1710062,36.3326985 C43.7991742,37.1174546 42.8543001,37.5667725 41.9755402,37.5667725 C39.5960698,37.5667725 39.5960698,35.8516213 39.5960698,34.8418281 L39.5960698,28.7519145 L41.0139384,28.7519145 L41.0139384,34.6816707 C41.0139384,35.3390873 41.0641214,36.4128528 42.3473722,36.4128528 C43.1074454,36.4128528 44.1367544,35.9316244 44.1367544,34.6816707 L44.1367544,28.7519145 L45.5552603,28.7519145 L45.5552603,37.3423404 Z" id="Fill-46" fill="#7CA2D5" mask="url(#mask-2)"></path>
                <path d="M47.2327742,28.7520204 L48.6506428,28.7520204 L48.6506428,30.0343383 L48.6847354,30.0343383 C49.0892263,29.2167642 49.6297688,28.5275883 50.6429873,28.5275883 C50.9302252,28.5275883 51.131913,28.5599525 51.2671681,28.6242272 L51.2671681,29.9376994 C51.131913,29.9224247 50.9630433,29.8741809 50.5077322,29.8741809 C49.7984792,29.8741809 48.6506428,30.4832025 48.6506428,31.9091932 L48.6506428,37.3425975 L47.2327742,37.3425975 L47.2327742,28.7520204 Z" id="Fill-47" fill="#7CA2D5" mask="url(#mask-2)"></path>
                <polygon id="Fill-48" fill="#7CA2D5" mask="url(#mask-2)" points="51.8868723 28.7520204 53.4399961 28.7520204 55.128375 35.6437796 55.1624676 35.6437796 56.8502093 28.7520204 58.403333 28.7520204 55.9553589 37.3425975 54.3346872 37.3425975"></polygon>
                <path d="M63.4925417,32.6629312 C62.9688861,33.1911935 61.7197279,33.3038633 61.0781821,33.6725731 C60.6220745,33.9452491 60.3856568,34.2815948 60.3856568,35.0342892 C60.3856568,35.9002583 60.7065094,36.5092799 61.6689076,36.5092799 C62.5978506,36.5092799 63.4925417,35.7553756 63.4925417,34.8747367 L63.4925417,32.6629312 Z M59.1199302,31.348854 C59.1199302,29.3932398 59.9972564,28.5278756 62.1584706,28.5278756 C64.9104103,28.5278756 64.9104103,30.0989003 64.9104103,30.9960238 L64.9104103,35.7877398 C64.9104103,36.1405701 64.9104103,36.4769157 65.3489938,36.4769157 C65.5352284,36.4769157 65.619504,36.4445515 65.686574,36.3967614 L65.686574,37.3587645 C65.5854114,37.373888 65.2137386,37.4387676 64.8594308,37.4387676 C64.3190476,37.4387676 63.6445244,37.4387676 63.5769765,36.332638 L63.5427247,36.332638 C63.0874136,37.101817 62.2092909,37.5665608 61.3647828,37.5665608 C59.6772004,37.5665608 58.9008775,36.604709 58.9008775,35.0661997 C58.9008775,33.8644898 59.4407828,33.0310361 60.6053468,32.6946904 L62.5127785,32.1499435 C63.5427247,31.8453571 63.5427247,31.5725299 63.5427247,30.8515948 C63.5427247,30.0505052 63.036434,29.5857614 62.0907634,29.5857614 C60.5377989,29.5857614 60.5377989,30.9635083 60.5377989,31.2686997 L60.5377989,31.348854 L59.1199302,31.348854 Z" id="Fill-49" fill="#7CA2D5" mask="url(#mask-2)"></path>
                <polygon id="Fill-50" fill="#7CA2D5" mask="url(#mask-2)" points="66.8174596 37.3423858 68.2353283 37.3423858 68.2353283 25.8998272 66.8174596 25.8998272"></polygon>
                <path d="M75.8967897,37.3423404 L74.5466282,37.3423404 L74.5466282,36.3326985 L74.5131729,36.3326985 C74.1415001,37.1174546 73.1958295,37.5667725 72.3178661,37.5667725 C69.9382364,37.5667725 69.9382364,35.8516213 69.9382364,34.8418281 L69.9382364,28.7519145 L71.3561051,28.7519145 L71.3561051,34.6816707 C71.3561051,35.3390873 71.4062881,36.4128528 72.6895389,36.4128528 C73.4496121,36.4128528 74.478921,35.9316244 74.478921,34.6816707 L74.478921,28.7519145 L75.8967897,28.7519145 L75.8967897,37.3423404 Z" id="Fill-51" fill="#7CA2D5" mask="url(#mask-2)"></path>
                <path d="M77.6404177,28.7520204 L78.9912164,28.7520204 L78.9912164,29.7616623 L79.0246717,29.7616623 C79.3965038,28.9770574 80.3413778,28.5275883 81.2193412,28.5275883 C82.2661744,28.5275883 82.8909925,28.9121778 83.1783897,29.8900605 C83.5828805,29.1366099 84.393296,28.5275883 85.3220797,28.5275883 C87.7017094,28.5275883 87.7017094,30.2428907 87.7017094,31.2525327 L87.7017094,37.3425975 L86.2838407,37.3425975 L86.2838407,31.4126901 C86.2838407,30.7552735 86.2336577,29.681508 85.0689343,29.681508 C84.4100237,29.681508 83.3799182,30.0660975 83.3799182,31.4126901 L83.3799182,37.3425975 L81.9622088,37.3425975 L81.9622088,31.4126901 C81.9622088,30.7552735 81.9118665,29.681508 80.7473025,29.681508 C80.0882325,29.681508 79.0582863,30.0660975 79.0582863,31.4126901 L79.0582863,37.3425975 L77.6404177,37.3425975 L77.6404177,28.7520204 Z" id="Fill-52" fill="#7CA2D5" mask="url(#mask-2)"></path>
                <path d="M93.6450325,32.6629312 C93.121377,33.1911935 91.8722187,33.3038633 91.230673,33.6725731 C90.7745653,33.9452491 90.5381477,34.2815948 90.5381477,35.0342892 C90.5381477,35.9002583 90.8596375,36.5092799 91.8213985,36.5092799 C92.7495449,36.5092799 93.6450325,35.7553756 93.6450325,34.8747367 L93.6450325,32.6629312 Z M89.2724211,31.348854 C89.2724211,29.3932398 90.1497473,28.5278756 92.3109615,28.5278756 C95.0629012,28.5278756 95.0629012,30.0989003 95.0629012,30.9960238 L95.0629012,35.7877398 C95.0629012,36.1405701 95.0629012,36.4769157 95.5014846,36.4769157 C95.6877193,36.4769157 95.7719948,36.4445515 95.8390648,36.3967614 L95.8390648,37.3587645 C95.7379023,37.373888 95.3662295,37.4387676 95.0119216,37.4387676 C94.4715384,37.4387676 93.7970153,37.4387676 93.7294674,36.332638 L93.6952155,36.332638 C93.2399044,37.101817 92.3617817,37.5665608 91.5172736,37.5665608 C89.8296913,37.5665608 89.0533684,36.604709 89.0533684,35.0661997 C89.0533684,33.8644898 89.5932736,33.0310361 90.7578377,32.6946904 L92.6652693,32.1499435 C93.6952155,31.8453571 93.6952155,31.5725299 93.6952155,30.8515948 C93.6952155,30.0505052 93.1889249,29.5857614 92.2432543,29.5857614 C90.6902898,29.5857614 90.6902898,30.9635083 90.6902898,31.2686997 L90.6902898,31.348854 L89.2724211,31.348854 Z" id="Fill-53" fill="#7CA2D5" mask="url(#mask-2)"></path>
                <path d="M100.086474,36.4129284 C101.40318,36.4129284 101.74076,35.0022123 101.74076,33.0472031 C101.74076,30.9955549 101.40318,29.6814778 100.086474,29.6814778 C98.5661679,29.6814778 98.2628396,31.3807494 98.2628396,33.0472031 C98.2628396,34.8101444 98.5661679,36.4129284 100.086474,36.4129284 Z M96.9294058,25.8998574 L98.3472745,25.8998574 L98.3472745,29.7297216 L98.3813671,29.7297216 C98.7022196,28.9921506 99.5628181,28.528163 100.474237,28.528163 C102.922052,28.528163 103.226177,31.2523512 103.226177,33.0472031 C103.226177,35.4675611 102.364941,37.5662432 100.271912,37.5662432 C99.2921485,37.5662432 98.4992573,36.9260673 98.3136598,36.2845302 L98.2802045,36.2845302 L98.2802045,37.342416 L96.9294058,37.342416 L96.9294058,25.8998574 Z" id="Fill-54" fill="#7CA2D5" mask="url(#mask-2)"></path>
                <path d="M16.016595,12.123084 C16.016595,10.5762568 14.6959061,9.32252222 13.0664723,9.32252222 C11.4370385,9.32252222 10.1163496,10.5762568 10.1163496,12.123084 C10.1163496,13.6699111 11.4370385,14.9236457 13.0664723,14.9236457 C14.6959061,14.9236457 16.016595,13.6699111 16.016595,12.123084" id="Fill-55" fill="#00B09A" mask="url(#mask-2)"></path>
                <polygon id="Fill-56" fill="#AC1E2D" mask="url(#mask-2)" points="9.3967733 8.93158086 3.91105533 0.761889506 4.61090893 4.96817654 -3.18622174e-05 4.91479074"></polygon>
                <path d="M12.9526446,0.142326852 C12.8395337,0.143536728 12.7310428,0.160172531 12.6231892,0.177262037 C12.5828835,0.184975 12.5381171,0.187394753 12.4992452,0.197073765 C12.4557533,0.206601543 12.4156069,0.223086111 12.3733895,0.235184877 C12.2741386,0.264373148 12.1764809,0.295527469 12.087426,0.334394753 C12.0224271,0.363583025 11.961411,0.39851821 11.9005541,0.433453395 C11.8529201,0.459616975 11.8040116,0.485024383 11.7598825,0.514212654 C11.6614282,0.581058333 11.5683905,0.65410463 11.4839557,0.736073765 C11.4812474,0.738644753 11.4779018,0.740610802 11.4751935,0.74318179 C11.2970837,0.91664784 11.1551376,1.12141944 11.0527005,1.34706142 C11.0466467,1.36112623 11.0378846,1.37503981 11.0318308,1.38970957 C10.9983755,1.46850278 10.9770278,1.55243796 10.9542463,1.63576821 C10.8242484,2.1405892 10.8946639,2.68609228 11.1798308,3.13994722 C11.1839729,3.14629907 11.1865219,3.15265093 11.1906639,3.15900278 C11.2502463,3.25125586 11.3205025,3.33836698 11.397609,3.42094105 C11.4082829,3.43303981 11.4189567,3.44574352 11.4304271,3.45784228 C11.512791,3.54238241 11.6037576,3.62132685 11.7049201,3.69316327 C11.7096995,3.6963392 11.7136822,3.70012006 11.7183023,3.70329599 C12.0471203,3.93150895 12.4724809,4.08607068 12.994862,4.12040093 C13.0122269,4.1216108 13.0283173,4.12418179 13.0456822,4.12539167 C14.8519513,4.11465401 16.5342764,4.63278364 17.9320719,5.52673117 C20.5795036,7.0493608 21.7942506,9.58102747 21.7735402,12.2181046 C21.7741774,12.2353454 21.7768857,12.2518299 21.7768857,12.2689194 C21.7889933,13.2652528 21.6033959,14.2118299 21.2712323,15.0924688 C20.0878695,18.2268052 16.9301645,20.4646231 13.1963905,20.6007343 C2.58404177,20.9878948 0.3559169,10.6998608 0.3559169,10.6998608 C-0.325934553,13.395012 0.775701615,17.7296972 3.81631302,20.838475 C5.96812788,23.038938 9.08966932,24.6264472 13.2440245,24.5819843 C20.3422893,24.5056108 26.0510428,18.9618052 25.9707501,12.2238515 C25.890298,5.48589784 20.0504314,0.0661046296 12.9526446,0.142326852" id="Fill-57" fill="#7CA2D5" mask="url(#mask-2)"></path>
                <polygon id="Fill-5" fill="#AC1E2D" mask="url(#mask-2)" points="31.7199993 22.1099999 36.6251649 22.1099999 36.6251649 3.6099999 31.7199993 3.6099999"></polygon>
            </g>
        </g>
    </g>
</svg>