
<svg version="1.1" id="Layer_1" xmlns="http://www.w3.org/2000/svg" xmlns:xlink="http://www.w3.org/1999/xlink" x="0px" y="0px"
	 viewBox="0 0 19 20" style="enable-background:new 0 0 19 20;" xml:space="preserve">
<g id="Page-1-Copy">
	<g id="Home" transform="translate(-312.000000, -586.000000)">
		<g id="sub_menu" transform="translate(-1.000000, 579.000000)">
			<g id="Group-11" transform="translate(313.000000, 6.000000)">
				<g id="Button">
					<g id="Page-1" transform="translate(0.101025, 1.000000)">
						<path id="Fill-1" class="st0" d="M16.7,18.4c0,0.2-0.1,0.3-0.3,0.3H1.6c-0.2,0-0.3-0.1-0.3-0.3V1.6c0-0.2,0.1-0.3,0.3-0.3h9.7
							c0.1,0,0.2,0,0.3,0v5h5.1c0,0.1,0,0.2,0,0.3V18.4z M16,4.8C16,4.8,16.1,4.9,16.2,5h-3.3V1.8C13,1.9,13,1.9,13.1,2L16,4.8z
							 M16.9,3.9L14,1.1C13.4,0.5,12.2,0,11.3,0H1.6C0.7,0,0,0.7,0,1.6v16.9C0,19.3,0.7,20,1.6,20h14.8c0.9,0,1.6-0.7,1.6-1.6V6.6
							C18,5.7,17.5,4.5,16.9,3.9L16.9,3.9z M15.4,12.4c-0.1,0.1-0.3,0.1-0.5,0.1c-0.5,0-1.1-0.2-2-0.6c0.3,0,0.6,0,0.9,0
							c0.5,0,0.6,0,1.1,0.1C15.5,12.1,15.5,12.3,15.4,12.4L15.4,12.4z M6.7,12.5c0.2-0.3,0.4-0.7,0.6-1c0.5-0.9,0.8-1.6,1-2.2
							c0.5,0.8,1,1.5,1.7,2.1c0.1,0.1,0.2,0.1,0.3,0.2C9,11.7,7.8,12.1,6.7,12.5L6.7,12.5z M8.3,3.9c0.3,0,0.4,0.7,0.4,1.3
							c0,0.6-0.1,1.1-0.3,1.4C8.3,6.1,8.2,5.3,8.2,4.8C8.2,4.8,8.2,3.9,8.3,3.9L8.3,3.9z M3,15.9c0.2-0.4,0.8-1.2,1.7-1.9
							c0.1,0,0.2-0.2,0.3-0.3C4,15.1,3.4,15.7,3,15.9L3,15.9z M15.7,11.5c-0.3-0.3-0.9-0.4-1.8-0.4c-0.6,0-1.4,0-2.2,0.2
							c-0.4-0.2-0.7-0.4-1-0.7C9.9,9.9,9.2,8.9,8.8,7.8c0-0.1,0-0.2,0.1-0.3c0,0,0.4-2.4,0.3-3.2c0-0.1,0-0.1-0.1-0.2l0-0.1
							C9,3.7,8.8,3.5,8.4,3.5l-0.2,0l0,0C7.8,3.5,7.5,3.7,7.4,4c-0.3,0.9,0,2.4,0.5,4.2L7.7,8.5c-0.4,0.8-0.8,1.7-1.2,2.4L6.5,11
							c-0.4,0.8-0.8,1.4-1.1,2L5,13.2c0,0-0.6,0.3-0.8,0.4c-1.2,0.7-2,1.5-2.1,2.1c0,0.2,0,0.5,0.2,0.6l0.3,0.2
							c0.1,0.1,0.3,0.1,0.5,0.1c0.8,0,1.8-1,3.2-3.3c1.6-0.5,3.4-0.9,4.9-1.1c1.2,0.7,2.7,1.1,3.6,1.1c0.2,0,0.3,0,0.4,0
							c0.2,0,0.3-0.1,0.4-0.3c0.2-0.3,0.2-0.6,0.2-1C15.8,11.7,15.8,11.6,15.7,11.5L15.7,11.5z"/>
					</g>
				</g>
			</g>
		</g>
	</g>
</g>
</svg>
