<svg xmlns="http://www.w3.org/2000/svg" width="52" height="70" viewBox="0 0 52 70">
    <g fill="none" fill-rule="evenodd" stroke="#173A64">
        <path stroke-width="4.2" d="M44.919 3H7.08C4.827 3 3 4.851 3 7.133V60h46V7.133C49 4.85 47.173 3 44.919 3z"/>
        <path stroke-width="1.4" d="M22.454 42.945c0-.897.303-1.636.908-2.22.607-.584 1.383-.874 2.328-.874.946 0 1.72.29 2.327.874.607.584.91 1.323.91 2.22 0 .884-.298 1.615-.889 2.19-.593.577-1.375.865-2.348.865-.972 0-1.755-.288-2.347-.864-.593-.576-.89-1.307-.89-2.19zm.58-6.178c0-1.883.226-3.384.678-4.5.453-1.117 1.283-2.218 2.487-3.3 1.206-1.084 2.008-1.965 2.408-2.644.399-.681.6-1.398.6-2.152 0-2.274-1.04-3.412-3.117-3.412-.986 0-1.775.306-2.367.918-.594.614-.903 1.46-.93 2.536H17c.027-2.568.85-4.58 2.468-6.032C21.085 16.727 23.293 16 26.09 16c2.823 0 5.014.69 6.571 2.069C34.22 19.449 35 21.395 35 23.91a7.178 7.178 0 0 1-.76 3.24c-.506 1.015-1.392 2.143-2.657 3.38l-1.617 1.554c-1.014.982-1.592 2.134-1.738 3.451l-.08 1.232h-5.114z"/>
        <path stroke-width="4.2" d="M9 62v5h35v-5"/>
        <path stroke-width="1.4" d="M49 54H3"/>
    </g>
</svg>
