<svg xmlns="http://www.w3.org/2000/svg" width="28" height="24" viewBox="0 0 28 24">
    <g fill="none" fill-rule="evenodd" stroke="#AB1F2D">
        <path stroke-width="1.68" d="M14.06 3.212S7.982-1.764 1 3.212v15.453s6.63-5.107 13.06 0c0 0 6.631-5.107 13.061 0V3.212s-6.08-4.976-13.061 0z"/>
        <path stroke-width="2.4" d="M14 4v15.453"/>
        <path stroke-width=".56" d="M24.497 18v4.446c-5.043-4.006-10.244.786-10.244.786C9.202 19.227 4 22.446 4 22.446v-4.313M17 6.048s3.441-2.357 7.213 0M17 8.048s3.441-2.357 7.213 0M17 10.047s3.441-2.356 7.213 0M17 12.047s3.441-2.356 7.213 0M17 14.048s3.441-2.357 7.213 0M4 6.048s3.44-2.357 7.213 0"/>
        <path stroke-width=".8" d="M4 8.048s3.44-2.357 7.213 0"/>
        <path stroke-width=".56" d="M4 10.047s3.44-2.356 7.213 0M4 12.047s3.44-2.356 7.213 0M4 14.048s3.44-2.357 7.213 0"/>
    </g>
</svg>
