<svg xmlns="http://www.w3.org/2000/svg" width="42" height="21" viewBox="0 0 42 21">
    <g fill="none" fill-rule="evenodd" stroke="#AB1F2D">
        <path stroke-width="1.68" d="M11.667 14.176H6.72l-.863 2.797H2L7.491 2h3.395l5.532 14.973h-3.876z"/>
        <path stroke-width=".56" d="M7 11.194h3.219L8.605 6z"/>
        <path stroke-width="1.68" d="M24.391 16.884h-3.224V6.89L18 8.548V5.107L24.095 2h.296zM40.809 11.34c-.049 1.064-.337 2.005-.862 2.82-.525.817-1.263 1.449-2.212 1.897-.949.448-2.032.673-3.251.673-2.012 0-3.595-.655-4.751-1.964C28.579 13.455 28 11.607 28 9.217V8.46c0-1.499.261-2.81.783-3.934s1.273-1.994 2.254-2.606c.98-.613 2.115-.92 3.404-.92 1.856 0 3.348.488 4.476 1.466 1.128.978 1.769 2.323 1.923 4.041h-3.677c-.028-.933-.262-1.602-.704-2.008-.441-.406-1.114-.61-2.018-.61-.917 0-1.591.344-2.018 1.031-.427.687-.651 1.781-.672 3.288V9.29c0 1.633.205 2.798.616 3.5.408.699 1.115 1.05 2.117 1.05.846 0 1.495-.199 1.943-.599.448-.399.687-1.033.715-1.901h3.667z"/>
        <path stroke-width=".56" d="M33.58 20H5"/>
    </g>
</svg>
