<svg xmlns="http://www.w3.org/2000/svg" width="28" height="35" viewBox="0 0 28 35">
    <g fill="none" fill-rule="evenodd" stroke="#AC1E2D">
        <path stroke-width="1.68" d="M17.809 9a12.747 12.747 0 0 1 8.488 12.042c0 7.04-5.663 12.75-12.648 12.75C6.664 33.792 1 28.082 1 21.042 1 15.467 4.549 10.728 9.496 9"/>
        <path stroke-width=".56" d="M22.563 20.851c0-4.888-3.932-8.851-8.782-8.851S5 15.963 5 20.851c0 4.889 3.932 8.852 8.781 8.852 4.85 0 8.782-3.963 8.782-8.852z"/>
        <path stroke-width="1.68" d="M16.8 13.354l2.477-9.053L14.138 1 9 4.3l2.196 9.054"/>
        <path stroke-width=".56" d="M19.277 4l-5.138 2.07L9 4M14 6v6.44"/>
    </g>
</svg>
