<svg xmlns="http://www.w3.org/2000/svg" width="52" height="69" viewBox="0 0 52 69">
    <g fill="none" fill-rule="evenodd" stroke="#173A64">
        <path stroke-width="4.2" d="M46 17V3H7v6.912"/>
        <path stroke-width="4.2" d="M30.884 10H3v56h46V28.145C49 18.123 40.89 10 30.884 10z"/>
        <path stroke-width="1.4" d="M27.936 42.564h-4.872L21 22h9l-2.064 20.564zm-2.436 3.22c.988 0 1.783.292 2.385.876.602.585.904 1.332.904 2.242 0 .897-.302 1.636-.904 2.222-.602.583-1.397.876-2.385.876-.973 0-1.762-.293-2.364-.876-.602-.586-.903-1.325-.903-2.222s.3-1.641.903-2.23c.602-.593 1.39-.888 2.364-.888zM49 60H3"/>
    </g>
</svg>
