<svg xmlns="http://www.w3.org/2000/svg" width="40" height="33" viewBox="0 0 40 33">
    <g fill="none" fill-rule="evenodd" stroke="#AB1F2D">
        <path stroke-width="1.68" d="M30.168 1.002C30.094 1 30.018 1 29.942 1c-7.59 0-10.098 7.605-10.098 7.605S17.336 1 9.746 1c-.075 0-.15 0-.225.002-7.097.14-11.045 10.186-6.72 17.054 2.606 4.139 7.586 8.989 17.043 13.21 9.458-4.221 14.437-9.071 17.044-13.21 4.325-6.868.377-16.914-6.72-17.054z"/>
        <path stroke-width=".56" d="M1 13c2.882 4.577 8.388 9.939 18.844 14.606C30.301 22.939 35.807 17.577 38.688 13"/>
        <path stroke-width=".56" d="M27.165 5.31a2.34 2.34 0 0 0-.854 3.189l3.625 6.278a2.34 2.34 0 0 0 3.187.854 2.34 2.34 0 0 0 .854-3.187l-3.625-6.28a2.34 2.34 0 0 0-3.187-.853z"/>
        <path stroke-width=".56" d="M35.63 7.164a2.342 2.342 0 0 0-3.187-.854l-6.278 3.625a2.341 2.341 0 0 0-.854 3.188 2.34 2.34 0 0 0 3.187.853l6.279-3.624a2.34 2.34 0 0 0 .854-3.188z"/>
    </g>
</svg>
