<svg xmlns="http://www.w3.org/2000/svg" width="31" height="29" viewBox="0 0 31 29">
    <g fill="none" fill-rule="evenodd" stroke="#AB1F2D">
        <path stroke-width="1.68" d="M26.91 7H3.67A2.677 2.677 0 0 0 1 9.67v14.994a2.677 2.677 0 0 0 2.67 2.67h23.24a2.677 2.677 0 0 0 2.67-2.67V9.67A2.677 2.677 0 0 0 26.91 7zM24.045 6.166C24.045 3.324 21.72 1 18.878 1h-5.712C10.325 1 8 3.324 8 6.166"/>
        <path stroke-width=".56" d="M1 9l2.01 2.75a9.573 9.573 0 0 0 7.72 3.92h2.64M18 15.67h2.64c3.05 0 5.92-1.46 7.72-3.92L30.37 9M16.826 13h-1.815A1.01 1.01 0 0 0 14 14.011v3.811a1.01 1.01 0 0 0 1.011 1.011h1.815a1.01 1.01 0 0 0 1.011-1.011v-3.811A1.01 1.01 0 0 0 16.826 13zM29.58 24H1"/>
    </g>
</svg>
