<svg xmlns="http://www.w3.org/2000/svg" width="42" height="37" viewBox="0 0 42 37">
    <g fill="none" fill-rule="evenodd">
        <path stroke="#AB1F2D" stroke-width="1.68" d="M27.611 1H8.201C6.99 1 6 1.99 6 3.201v19.41c0 1.211.99 2.201 2.201 2.201h19.41c1.211 0 2.201-.99 2.201-2.201V3.201c0-1.211-.99-2.201-2.201-2.201zM4.461 3h-1.26C1.991 3 1 3.99 1 5.201v15.955c0 1.211.991 2.201 2.201 2.201h1.26"/>
        <path stroke="#AB1F2D" stroke-width="1.68" d="M23.357 12.679a5.678 5.678 0 1 0-11.357 0 5.679 5.679 0 1 0 11.357 0z"/>
        <path fill="#AB1F2D" d="M19.542 13.271a1.27 1.27 0 1 0-2.542 0 1.27 1.27 0 0 0 2.542 0"/>
        <path stroke="#AB1F2D" stroke-width=".56" d="M21.219 10L16 16.156M29.813 23H6"/>
        <path stroke="#AB1F2D" stroke-width="1.68" d="M40.5 16.375c0-2.969-1.679-5.375-3.75-5.375-2.071 0-3.75 2.406-3.75 5.375s1.679 5.375 3.75 5.375c2.071 0 3.75-2.406 3.75-5.375z"/>
        <path stroke="#AB1F2D" stroke-width=".56" d="M33 14c0 2.969 1.679 5.375 3.75 5.375 2.071 0 3.75-2.406 3.75-5.375"/>
        <path stroke="#AB1F2D" stroke-linecap="round" stroke-linejoin="round" stroke-width="1.68" d="M37 10.75V8M36.875 22v5.5S37 35.25 28 35.25M19 25v2.25S18.875 35 27.875 35"/>
    </g>
</svg>
