<svg xmlns="http://www.w3.org/2000/svg" width="26" height="30" viewBox="0 0 26 30">
    <g fill="none" fill-rule="evenodd">
        <path stroke="#AB1F2D" stroke-width="1.68" d="M20.086 27.661H9c-.603 0-1.14-.386-1.333-.957L1.074 7.197a1.409 1.409 0 0 1 .883-1.784l3.965-1.339a1.407 1.407 0 0 1 1.783.883l4.985 14.747c.193.571.73.957 1.333.957h6.063c.777 0 1.407.63 1.407 1.407v4.185c0 .777-.63 1.408-1.407 1.408z"/>
        <path stroke="#AB1F2D" stroke-width=".56" d="M1.862 5.187l-.83-2.47a.64.64 0 0 1 .4-.81l2.59-.87a.62.62 0 0 1 .8.39l.84 2.47M18 21v7M23 20.959L25.435 20M23 28l2.435.959M23 24h2.435"/>
        <path fill="#AB1F2D" d="M24.5 22.25a.25.25 0 1 0-.5 0 .25.25 0 0 0 .5 0M24.5 26.25a.25.25 0 1 0-.5 0 .25.25 0 1 0 .5 0"/>
    </g>
</svg>
