<svg xmlns="http://www.w3.org/2000/svg" width="28" height="43" viewBox="0 0 28 43">
    <g fill="none" fill-rule="evenodd" stroke="#AB1F2D">
        <path stroke-width="1.68" d="M22.955 15h2.303c.574 0 1.039.465 1.039 1.039v21.969a3.352 3.352 0 0 1-3.342 3.343H4.342A3.352 3.352 0 0 1 1 38.008V16.039C1 15.465 1.465 15 2.039 15h2.303"/>
        <path stroke-width=".56" d="M26.276 34.25L13.628 28 1 34.25"/>
        <path stroke-width="1.68" d="M19.894 12.378c0-.758.837-1.378 1.859-1.378 1.024 0 1.861.62 1.861 1.378v4.338a2.729 2.729 0 0 1-2.72 2.72H7.72A2.729 2.729 0 0 1 5 16.716v-1.765"/>
        <path stroke-width="1.68" d="M19.721 19.436v-7.058c0-.757-.838-1.378-1.86-1.378-1.024 0-1.861.621-1.861 1.378v7.058M15.72 19.436v-7.058c0-.757-.837-1.378-1.859-1.378-1.024 0-1.861.621-1.861 1.378M11.72 18.959V2.378C11.72 1.62 10.883 1 9.86 1 8.837 1 8 1.62 8 2.378v16.581"/>
        <path stroke-width="1.68" d="M5 14.952l.019-2.573c0-.758.836-1.379 1.859-1.379 1.023 0 1.86.621 1.86 1.379"/>
        <path stroke-width=".56" d="M26.25 38H1"/>
    </g>
</svg>
