<svg xmlns="http://www.w3.org/2000/svg" width="45" height="22" viewBox="0 0 45 22">
    <g fill="none" fill-rule="evenodd">
        <path stroke="#AB1F2D" stroke-width="1.68" d="M39.5 17.25a3.25 3.25 0 1 0-6.5 0 3.25 3.25 0 0 0 6.5 0zM14.5 17.25a3.25 3.25 0 1 0-6.5 0 3.25 3.25 0 0 0 6.5 0zM15 17h18.797"/>
        <path stroke="#AB1F2D" stroke-width="1.68" d="M39.493 16.519c1.794 0 3.019-1.843 2.288-3.481C39.805 8.61 34.705 1.477 22.26 1.002a2.517 2.517 0 0 0-2.091.959l-2.144 2.766s-13.756.846-15.962 9.38c-.314 1.216.57 2.412 1.825 2.412h3.807"/>
        <path stroke="#AB1F2D" stroke-width=".56" d="M35.055 15H14M2 15h6.667M42.896 15H39"/>
        <path stroke="#AB1F2D" stroke-width="1.68" d="M42 16h2.476"/>
        <path stroke="#AB1F2D" stroke-width=".56" d="M22.7 4.122L20.06 7.656a.293.293 0 0 0 .235.468h12.853c.287 0 .408-.367.17-.531C31.722 6.491 27.663 4.053 22.947 4a.304.304 0 0 0-.245.122z"/>
        <path fill="#AB1F2D" d="M36.94 17.471a.471.471 0 1 0-.942 0 .471.471 0 0 0 .942 0M11.94 17.471a.47.47 0 1 0-.94-.001.47.47 0 0 0 .94.001"/>
        <path stroke="#AB1F2D" stroke-width=".56" d="M27 4v3.598"/>
        <path stroke="#AB1F2D" stroke-width="1.68" d="M0 16h2.031"/>
    </g>
</svg>
