<svg xmlns="http://www.w3.org/2000/svg" xmlns:xlink="http://www.w3.org/1999/xlink" width="30" height="39" viewBox="0 0 30 39">
    <defs>
        <path id="a" d="M0 .317C0 .49.14.63.315.63A.315.315 0 1 0 0 .317z"/>
        <path id="c" d="M.01.416c.042.18.237.303.418.263L.271 0A.343.343 0 0 0 .01.416z"/>
        <path id="e" d="M0 .009l.156.679A.359.359 0 0 0 .419.271.339.339 0 0 0 .081 0 .446.446 0 0 0 0 .009z"/>
    </defs>
    <g fill="none" fill-rule="evenodd">
        <g stroke="#AB1F2D">
            <path stroke-width="1.68" d="M15 37.729C16.148 35.866 19.456 21 19.456 21l2.337 2.078-1.476 1.756 2.013 1.039L15 37.729z"/>
            <path stroke-width="1.68" d="M20.617 22l4.246 2.01c1.173.553 2.117 1.498 2.606 2.697.714 1.754 1.5 4.674 1.243 8.699-.058.905-.764 1.642-1.664 1.776-1.657.243-5.072.514-12.048.514"/>
            <path stroke-width="1.68" d="M15.331 37.729C14.183 35.866 10.877 21 10.877 21L8.54 23.078l1.473 1.756L8 25.873l7.331 11.856z"/>
            <path stroke-width="1.68" d="M14.762 37.696c-6.977 0-10.39-.271-12.048-.515-.897-.133-1.606-.874-1.664-1.775-.257-4.025.53-6.948 1.243-8.699.489-1.199 1.433-2.144 2.606-2.7L9.148 22"/>
            <path stroke-width=".56" d="M19.91 22l-4.456 2.484L11 22M15 24v13.033"/>
            <path stroke-linecap="round" stroke-linejoin="round" stroke-width="1.764" d="M15 10.379s2.461.179 3.92-1.379c0 0 1.428.612 1.428 3.145 0 0 .769-1.254 1.378-.616.611.639.239 3.298-1.51 3.885 0 0 .088 3.272-1.715 4.269V22M15 10.379S12.54 10.558 11.08 9c0 0-1.43.612-1.43 3.145 0 0-.77-1.254-1.377-.616-.608.639-.24 3.298 1.51 3.885 0 0-.088 3.272 1.719 4.269V22"/>
            <path stroke-width="1.764" d="M21.454 11s1.68-2.75-.853-4.698c0 0-.076-3.778-3.925-3.252-3.851.526-7.326 2.2-8.61.125 0 0-.508 2.626 1.3 3.427 0 0-1.606 1.006-.776 4.24"/>
            <path stroke-linecap="round" stroke-width=".56" d="M25.841 32.416c0-.782-.636-1.416-1.421-1.416-.784 0-1.42.634-1.42 1.416 0 .782.636 1.416 1.42 1.416.785 0 1.421-.634 1.421-1.416z"/>
        </g>
        <g transform="translate(24 32)">
            <mask id="b" fill="#fff">
                <use xlink:href="#a"/>
            </mask>
            <path fill="#AB1F2D" d="M-5 5.63H5.629V-5H-5z" mask="url(#b)"/>
        </g>
        <g stroke="#AB1F2D">
            <path stroke-width=".56" d="M24.602 30.636S25.417 26.173 24 23"/>
            <path stroke-linecap="round" stroke-width=".75" d="M9.21 31.851l-.454-1.985a2.416 2.416 0 0 0-2.884-1.806 2.406 2.406 0 0 0-1.811 2.874l.455 1.988"/>
            <path stroke-linecap="round" stroke-width=".5" d="M9.61 32l.318 1.383a.792.792 0 0 1-.595.947L9 34.406"/>
        </g>
        <g transform="translate(8 34)">
            <mask id="d" fill="#fff">
                <use xlink:href="#c"/>
            </mask>
            <path fill="#AB1F2D" d="M-5 5.687H5.428V-5H-5z" mask="url(#d)"/>
        </g>
        <path stroke="#AB1F2D" stroke-linecap="round" stroke-width=".5" d="M5 33l.317 1.383c.098.426.523.69.951.594l.33-.074"/>
        <g transform="translate(6 35)">
            <mask id="f" fill="#fff">
                <use xlink:href="#e"/>
            </mask>
            <path fill="#AB1F2D" d="M-5 5.688H5.426V-5H-5z" mask="url(#f)"/>
        </g>
        <path stroke="#AB1F2D" stroke-linecap="round" stroke-width=".56" d="M6.306 27.996S5.44 24.991 6.623 23"/>
    </g>
</svg>
