<?xml version="1.0" encoding="UTF-8"?>
<svg width="345px" height="72px" viewBox="0 0 345 72" version="1.1" xmlns="http://www.w3.org/2000/svg" xmlns:xlink="http://www.w3.org/1999/xlink">
    <!-- Generator: Sketch 48.1 (47250) - http://www.bohemiancoding.com/sketch -->
    <title>bg-points-br_tr</title>
    <desc>Created with Sketch.</desc>
    <defs>
        <polygon id="path-1" points="0.183 0.978 2.401 0.978 2.401 3.234 0.183 3.234"></polygon>
    </defs>
    <g id="Page-1" stroke="none" stroke-width="1" fill="none" fill-rule="evenodd" opacity="0.29857337">
        <g id="bg-points-br_tr" transform="translate(0.000000, -1.000000)">
            <g id="Group" opacity="0.25">
                <path d="M304.485,5.55 C304.487233,5.12926756 304.149703,4.78548674 303.729,4.78 C303.309,4.78 302.979,5.125 302.979,5.55 C302.979,5.96587042 303.31613,6.303 303.732,6.303 C304.14787,6.303 304.485,5.96587042 304.485,5.55 M314,5.135 C314.006118,4.64201295 313.611973,4.23713131 313.119,4.23 C312.882155,4.2331613 312.656269,4.33029051 312.491044,4.50001563 C312.32582,4.66974075 312.234796,4.89815541 312.238,5.135 C312.238,5.628 312.632,6.029 313.118,6.029 C313.353514,6.02741407 313.578751,5.93233277 313.744159,5.76467408 C313.909568,5.59701538 314.001597,5.37051385 314,5.135 M323.401,2.135 C323.404473,1.89470663 323.312334,1.66287809 323.144859,1.49052672 C322.977384,1.31817535 322.748294,1.21942319 322.508,1.216 C322.006662,1.22313183 321.605101,1.63362643 321.609,2.135 C321.609,2.635 322.015,3.039 322.509,3.039 C322.747341,3.03741477 322.975274,2.9411424 323.142586,2.77139162 C323.309899,2.60164084 323.402863,2.37233859 323.401,2.134 M332.985,2.136 C332.985,1.523 332.501,1.023 331.903,1.023 C331.305,1.023 330.813,1.523 330.813,2.136 C330.813,2.74 331.305,3.233 331.903,3.233 C332.504604,3.22859695 332.98888,2.73760762 332.985,2.136" id="Shape" fill="#000000" fill-rule="nonzero"></path>
                <g transform="translate(340.000000, 0.022000)" id="Clipped">
                    <g>
                        <mask id="mask-2" fill="white">
                            <use xlink:href="#path-1"></use>
                        </mask>
                        <g id="a"></g>
                        <path d="M2.401,2.114 C2.401,1.488 1.899,0.977 1.297,0.977 C0.696337462,1.00798023 0.225204381,1.50403906 0.225204381,2.1055 C0.225204381,2.70696094 0.696337462,3.20301977 1.297,3.234 C1.899,3.234 2.401,2.732 2.401,2.114" id="Shape" fill="#000000" fill-rule="nonzero" mask="url(#mask-2)"></path>
                    </g>
                </g>
                <path d="M229.568,14.655 C229.56966,14.1174627 229.135535,13.680205 228.598,13.678 C228.340931,13.6793099 228.095033,13.7832435 227.914953,13.9667034 C227.734873,14.1501633 227.63553,14.3979509 227.639,14.655 C227.639,15.19 228.063,15.626 228.597,15.626 C229.132812,15.6248998 229.5669,15.1908121 229.568,14.655 M238.901,14.655 C238.903398,14.4098718 238.807973,14.1739018 238.635857,13.9993459 C238.463741,13.8247901 238.229138,13.7260529 237.984,13.725 C237.738689,13.7257873 237.503828,13.8244075 237.331496,13.9989924 C237.159163,14.1735773 237.063602,14.4096991 237.066,14.655 C237.064937,14.8993453 237.161121,15.1340762 237.333338,15.3074179 C237.505554,15.4807597 237.739653,15.5784711 237.984,15.579 C238.228173,15.5782061 238.462016,15.4803778 238.634016,15.3070649 C238.806016,15.133752 238.902063,14.8991725 238.901,14.655 M248.318,13.655 C248.320398,13.4037717 248.222549,13.1619517 248.04612,12.9830826 C247.869691,12.8042135 247.629237,12.7030531 247.378,12.702 C246.855605,12.7064012 246.435226,13.1325943 246.438,13.655 C246.438,14.176 246.861,14.602 247.378,14.602 C247.899,14.602 248.318,14.176 248.318,13.655 M257.735,11.655 C257.737398,11.3958802 257.636757,11.1464219 257.45522,10.9615086 C257.273682,10.7765953 257.02612,10.671376 256.767,10.669 C256.227,10.669 255.794,11.109 255.794,11.655 C255.794,12.195 256.227,12.635 256.767,12.635 C257.301,12.635 257.735,12.195 257.735,11.655 M267.068,11.655 C267.070772,11.1531935 266.666799,10.7438525 266.165,10.74 C265.923486,10.7407908 265.692238,10.8377668 265.522402,11.0094796 C265.352566,11.1811924 265.258137,11.413492 265.26,11.655 C265.26,12.156 265.663,12.564 266.165,12.564 C266.664454,12.5601582 267.067466,12.1544681 267.068,11.655 M276.485,11.655 C276.486063,11.4067687 276.388267,11.1683251 276.213209,10.992329 C276.038151,10.8163329 275.800233,10.7172635 275.552,10.717 C275.305526,10.7191104 275.070018,10.8191886 274.897425,10.9951585 C274.724832,11.1711284 274.629335,11.4085317 274.632,11.655 C274.632,12.169 275.044,12.588 275.552,12.588 C276.066825,12.5868999 276.4839,12.1698253 276.485,11.655 M285.78,11.654 C285.780531,11.431218 285.69254,11.2173496 285.535385,11.0594438 C285.378229,10.9015381 285.164782,10.8125298 284.942,10.812 C284.480197,10.8158501 284.108333,11.192184 284.11,11.654 C284.11,12.116 284.486,12.492 284.942,12.492 C285.404424,12.4914482 285.779,12.1164244 285.779,11.654 M295.235,11.655 C295.23633,11.4156132 295.142234,11.1855602 294.973523,11.0157235 C294.804812,10.8458868 294.57539,10.7502623 294.336,10.75 C293.839332,10.7533035 293.43923,11.1583287 293.442,11.655 C293.442538,12.1493325 293.841678,12.5507047 294.336,12.554 C294.832666,12.5540003 295.235448,12.1516657 295.236,11.655 M305.836,11.658 C305.84106,11.0943707 305.621249,10.5519722 305.225228,10.1508843 C304.829208,9.74979643 304.289648,9.52310628 303.726,9.521 C302.568,9.521 301.615,10.474 301.615,11.658 C301.615,12.828 302.568,13.783 303.725,13.783 C304.897,13.783 305.835,12.829 305.835,11.658 M315.23,11.658 C315.23,10.474 314.276,9.521 313.12,9.521 C312.556005,9.52257501 312.01593,9.74903114 311.619477,10.1501771 C311.223024,10.5513231 311.002938,11.0940252 311.008,11.658 C311.008,12.828 311.948,13.783 313.119,13.783 C314.276,13.783 315.229,12.829 315.229,11.658 M324.623,11.658 C324.623,10.474 323.67,9.521 322.513,9.521 C321.949178,9.52284073 321.409361,9.74941391 321.013124,10.1505309 C320.616888,10.5516478 320.396939,11.094198 320.402,11.658 C320.402,12.828 321.342,13.783 322.512,13.783 C323.67,13.783 324.622,12.829 324.622,11.658 M334.017,11.658 C334.017,10.474 333.063,9.521 331.907,9.521 C331.343178,9.52284073 330.803361,9.74941391 330.407124,10.1505309 C330.010888,10.5516478 329.790939,11.094198 329.796,11.658 C329.796,12.828 330.736,13.783 331.906,13.783 C333.063,13.783 334.016,12.829 334.016,11.658 M343.396,11.658 C343.396,10.474 342.457,9.521 341.299,9.521 C340.129,9.521 339.189,10.474 339.189,11.658 C339.189,12.828 340.129,13.783 341.299,13.783 C342.457,13.783 343.396,12.829 343.396,11.658 M163.901,24.586 C163.901,24.008 163.431,23.531 162.853,23.531 C162.283,23.531 161.811,24.008 161.811,24.586 C161.811,25.176 162.282,25.652 162.853,25.652 C163.43,25.652 163.901,25.176 163.901,24.586 M173.068,23.754 C173.068012,23.3001457 172.701842,22.9312968 172.248,22.928 C171.794411,22.9307537 171.428784,23.3004081 171.431,23.754 C171.431,24.216 171.795,24.589 172.247,24.589 C172.466602,24.5871513 172.676474,24.4981379 172.830443,24.3415433 C172.984412,24.1849487 173.069864,23.9736016 173.068,23.754 M182.735,22.169 C182.735,21.559 182.245,21.056 181.635,21.056 C181.027,21.056 180.537,21.56 180.537,22.169 C180.537,22.791 181.027,23.294 181.635,23.294 C182.245,23.294 182.735,22.791 182.735,22.169 M192.13,21.169 C192.13,20.557 191.639,20.051 191.027,20.051 C190.412738,20.0559353 189.917077,20.5547187 189.916,21.169 C189.916,21.794 190.415,22.299 191.026,22.299 C191.639,22.299 192.131,21.794 192.131,21.169 M201.443,21.169 C201.443,20.604 200.988,20.137 200.423,20.137 C199.858,20.137 199.404,20.604 199.404,21.169 C199.400265,21.4428655 199.50576,21.7069412 199.697165,21.9028501 C199.88857,22.098759 200.150122,22.2103663 200.424,22.213 C200.697878,22.2103663 200.95943,22.098759 201.150835,21.9028501 C201.34224,21.7069412 201.447735,21.4428655 201.444,21.169 M210.693,21.17 C210.694108,20.6792443 210.297752,20.2802044 209.807,20.278 C209.319283,20.2851005 208.927495,20.6822316 208.927,21.17 C208.927,21.668 209.325,22.07 209.807,22.07 C210.044008,22.0686821 210.270723,21.9729889 210.436997,21.8040881 C210.60327,21.6351872 210.695398,21.4069992 210.693,21.17 M220.193,21.169 C220.194063,20.9050287 220.090082,20.6514756 219.903988,20.4642562 C219.717894,20.2770369 219.464973,20.171529 219.201,20.171 C218.653201,20.1748533 218.211782,20.6211919 218.214,21.169 C218.214,21.728 218.654,22.179 219.201,22.179 C219.466737,22.1774216 219.72087,22.0699264 219.907081,21.880337 C220.093292,21.6907476 220.1962,21.4347221 220.193,21.169 M230.864,21.162 C230.864,19.908 229.844,18.874 228.591,18.874 C227.338,18.874 226.331,19.908 226.331,21.162 C226.331,22.441 227.338,23.475 228.591,23.475 C229.843,23.475 230.864,22.441 230.864,21.162 M240.258,21.162 C240.258,19.908 239.237,18.874 237.985,18.874 C236.732,18.874 235.725,19.908 235.725,21.162 C235.725,22.441 236.732,23.475 237.985,23.475 C239.237,23.475 240.258,22.441 240.258,21.162 M249.638,21.162 C249.638,19.908 248.63,18.874 247.378,18.874 C246.125,18.874 245.118,19.908 245.118,21.162 C245.118,22.441 246.125,23.475 247.378,23.475 C248.63,23.475 249.638,22.441 249.638,21.162 M259.045,21.162 C259.045,19.908 258.024,18.874 256.772,18.874 C255.519,18.874 254.498,19.908 254.498,21.162 C254.498,22.441 255.518,23.475 256.772,23.475 C258.024,23.475 259.045,22.441 259.045,21.162 M268.425,21.162 C268.425,19.908 267.417,18.874 266.165,18.874 C264.912,18.874 263.892,19.908 263.892,21.162 C263.892,22.441 264.912,23.475 266.165,23.475 C267.417,23.475 268.425,22.441 268.425,21.162 M277.818,21.162 C277.820125,20.5571326 277.58181,19.9762095 277.155511,19.5470967 C276.729211,19.1179839 276.149868,18.8758533 275.545,18.874 C274.305,18.874 273.285,19.908 273.285,21.162 C273.285,22.441 274.305,23.475 275.545,23.475 C276.81,23.475 277.818,22.441 277.818,21.162 M287.212,21.162 C287.212,19.908 286.191,18.874 284.939,18.874 C283.686,18.874 282.679,19.908 282.679,21.162 C282.679,22.441 283.686,23.475 284.939,23.475 C286.191,23.475 287.212,22.441 287.212,21.162 M296.605,21.162 C296.605,19.908 295.585,18.874 294.332,18.874 C293.092,18.874 292.072,19.908 292.072,21.162 C292.072,22.441 293.092,23.475 294.332,23.475 C295.584,23.475 296.605,22.441 296.605,21.162 M305.999,21.162 C305.999,19.908 304.978,18.874 303.726,18.874 C302.473,18.874 301.466,19.908 301.466,21.162 C301.466,22.441 302.473,23.475 303.726,23.475 C304.978,23.475 305.999,22.441 305.999,21.162 M315.379,21.162 C315.379,19.908 314.371,18.874 313.119,18.874 C311.866,18.874 310.859,19.908 310.859,21.162 C310.859,22.441 311.866,23.475 313.119,23.475 C314.371,23.475 315.379,22.441 315.379,21.162 M324.772,21.162 C324.772,19.908 323.764,18.874 322.512,18.874 C321.259,18.874 320.239,19.908 320.239,21.162 C320.239,22.441 321.259,23.475 322.512,23.475 C323.764,23.475 324.772,22.441 324.772,21.162 M334.166,21.162 C334.166,19.908 333.158,18.874 331.906,18.874 C330.653,18.874 329.633,19.908 329.633,21.162 C329.633,22.441 330.653,23.475 331.906,23.475 C333.158,23.475 334.166,22.441 334.166,21.162 M343.56,21.162 C343.56,19.908 342.551,18.874 341.3,18.874 C340.046,18.874 339.026,19.908 339.026,21.162 C339.026,22.441 340.046,23.475 341.299,23.475 C342.551,23.475 343.559,22.441 343.559,21.162 M88.693,34.691 C88.6963323,34.1513056 88.2626767,33.7104969 87.723,33.705 C87.4630863,33.7065864 87.2144488,33.8113607 87.0317873,33.9962726 C86.8491258,34.1811846 86.7474038,34.4310864 86.749,34.691 C86.749,35.2278208 87.1841792,35.663 87.721,35.663 C88.2578208,35.663 88.693,35.2278208 88.693,34.691 M97.943,33.254 C97.9463321,32.7939981 97.5769874,32.4179462 97.117,32.413 C96.6555188,32.4157538 96.2833377,32.7915136 96.285,33.253 C96.269971,33.558888 96.4246083,33.8481967 96.6872934,34.0056448 C96.9499785,34.1630928 97.2780215,34.1630928 97.5407066,34.0056448 C97.8033917,33.8481967 97.958029,33.558888 97.943,33.253 M107.443,31.691 C107.441922,31.1729791 107.024004,30.7523843 106.506,30.748 C105.988416,30.7518518 105.571334,31.1734044 105.573,31.691 C105.573,32.2073862 105.991614,32.626 106.508,32.626 C107.024386,32.626 107.443,32.2073862 107.443,31.691 M116.693,30.691 C116.694597,30.4779502 116.611354,30.2730209 116.461642,30.1214326 C116.31193,29.9698442 116.108053,29.8840566 115.895,29.883 C115.451814,29.8868478 115.094884,30.2477985 115.096,30.691 C115.094133,30.9043834 115.177593,31.1096695 115.327825,31.261216 C115.478057,31.4127625 115.682608,31.4980082 115.896,31.498 C116.109205,31.4982882 116.313615,31.4130338 116.463431,31.2613378 C116.613247,31.1096417 116.695947,30.9041852 116.693,30.691 M126.318,30.691 C126.318,30.119 125.861,29.649 125.289,29.649 C124.716,29.649 124.259,30.119 124.259,30.691 C124.259,31.274 124.716,31.732 125.289,31.732 C125.861,31.732 126.319,31.274 126.319,30.692 M135.568,30.691 C135.569667,30.1993613 135.173626,29.798851 134.682,29.795 C134.445608,29.7960571 134.219348,29.8911161 134.053133,30.0592075 C133.886918,30.2272989 133.794404,30.4546111 133.796,30.691 C133.796,31.193 134.189,31.587 134.682,31.587 C134.918641,31.5867454 135.14537,31.4919419 135.311759,31.3236747 C135.478148,31.1554076 135.570401,30.9276293 135.568,30.691 M145.193,30.691 C145.193,30.071 144.69,29.561 144.076,29.561 C143.461,29.561 142.959,30.071 142.959,30.691 C142.959,31.324 143.461,31.821 144.076,31.821 C144.69,31.821 145.193,31.324 145.193,30.691 M154.756,30.691 C154.756,29.971 154.18,29.379 153.466,29.379 C152.746417,29.385591 152.166871,29.971388 152.168,30.691 C152.168,31.4056565 152.747344,31.985 153.462,31.985 C154.176656,31.985 154.756,31.4056565 154.756,30.691 M165.3,30.691 C165.3,29.331 164.21,28.212 162.85,28.212 C161.502,28.212 160.413,29.33 160.413,30.692 C160.413,32.08 161.502,33.169 162.85,33.169 C164.21,33.169 165.3,32.08 165.3,30.691 M174.693,30.691 C174.693,29.331 173.59,28.212 172.243,28.212 C170.894,28.212 169.805,29.33 169.805,30.692 C169.805,32.08 170.895,33.169 172.243,33.169 C172.897244,33.1676962 173.523905,32.9053032 173.98389,32.4400608 C174.443875,31.9748185 174.699131,31.3452166 174.693,30.691 M184.087,30.691 C184.087,29.331 182.984,28.212 181.636,28.212 C180.288,28.212 179.186,29.33 179.186,30.692 C179.179868,31.3461244 179.435155,31.9756241 179.895169,32.4407081 C180.355184,32.905792 180.981848,33.1679625 181.636,33.169 C182.290244,33.1676962 182.916905,32.9053032 183.37689,32.4400608 C183.836875,31.9748185 184.092131,31.3452166 184.086,30.691 M193.48,30.691 C193.48,29.331 192.376,28.212 191.03,28.212 C189.682,28.212 188.58,29.33 188.58,30.692 C188.573868,31.3461244 188.829155,31.9756241 189.289169,32.4407081 C189.749184,32.905792 190.375848,33.1679625 191.03,33.169 C191.684244,33.1676962 192.310905,32.9053032 192.77089,32.4400608 C193.230875,31.9748185 193.486131,31.3452166 193.48,30.691 M202.86,30.691 C202.86,29.331 201.771,28.212 200.423,28.212 C199.061,28.212 197.973,29.33 197.973,30.692 C197.973,32.08 199.061,33.169 200.423,33.169 C201.771,33.169 202.86,32.08 202.86,30.691 M212.268,30.691 C212.26912,29.3272713 211.16771,28.2191568 209.804,28.212 C208.455,28.212 207.366,29.33 207.366,30.692 C207.366,32.08 208.456,33.169 209.804,33.169 C210.460422,33.1706241 211.090222,32.9096199 211.553067,32.4441453 C212.015911,31.9786707 212.273343,31.3474018 212.268,30.691 M221.647,30.691 C221.647,29.331 220.558,28.212 219.197,28.212 C217.849,28.212 216.747,29.33 216.747,30.692 C216.741137,31.3460441 216.996511,31.975388 217.456467,32.4404131 C217.916424,32.9054383 218.542931,33.1676942 219.197,33.169 C220.558,33.169 221.647,32.08 221.647,30.691 M231.04,30.691 C231.04,29.331 229.952,28.212 228.59,28.212 C227.243,28.212 226.14,29.33 226.14,30.692 C226.134137,31.3460441 226.389511,31.975388 226.849467,32.4404131 C227.309424,32.9054383 227.935931,33.1676942 228.59,33.169 C229.952,33.169 231.04,32.08 231.04,30.691 M240.434,30.691 C240.434,29.331 239.345,28.212 237.984,28.212 C236.636,28.212 235.534,29.33 235.534,30.692 C235.528137,31.3460441 235.783511,31.975388 236.243467,32.4404131 C236.703424,32.9054383 237.329931,33.1676942 237.984,33.169 C239.345,33.169 240.434,32.08 240.434,30.691 M249.828,30.691 C249.828,29.331 248.739,28.212 247.378,28.212 C246.03,28.212 244.94,29.33 244.94,30.692 C244.94,32.08 246.03,33.169 247.378,33.169 C248.739,33.169 249.828,32.08 249.828,30.691 M259.222,30.691 C259.222,29.331 258.119,28.212 256.772,28.212 C255.424,28.212 254.321,29.33 254.321,30.692 C254.315137,31.3460441 254.570511,31.975388 255.030467,32.4404131 C255.490424,32.9054383 256.116931,33.1676942 256.771,33.169 C257.425244,33.1676962 258.051905,32.9053032 258.51189,32.4400608 C258.971875,31.9748185 259.227131,31.3452166 259.221,30.691 M268.615,30.691 C268.615,29.331 267.512,28.212 266.165,28.212 C264.803,28.212 263.715,29.33 263.715,30.692 C263.715,32.08 264.803,33.169 266.165,33.169 C266.819244,33.1676962 267.445905,32.9053032 267.90589,32.4400608 C268.365875,31.9748185 268.621131,31.3452166 268.615,30.691 M278.009,30.691 C278.01012,29.3272713 276.90871,28.2191568 275.545,28.212 C274.197,28.212 273.108,29.33 273.108,30.692 C273.108,32.08 274.197,33.169 275.545,33.169 C276.201422,33.1706241 276.831222,32.9096199 277.294067,32.4441453 C277.756911,31.9786707 278.014343,31.3474018 278.009,30.691 M287.389,30.691 C287.389,29.331 286.299,28.212 284.939,28.212 C283.59,28.212 282.5,29.33 282.5,30.692 C282.5,32.08 283.59,33.169 284.938,33.169 C286.3,33.169 287.388,32.08 287.388,30.691 M296.782,30.691 C296.782,29.331 295.693,28.212 294.332,28.212 C292.984,28.212 291.894,29.33 291.894,30.692 C291.894,32.08 292.984,33.169 294.332,33.169 C295.693,33.169 296.782,32.08 296.782,30.691 M306.176,30.691 C306.176,29.331 305.073,28.212 303.726,28.212 C302.378,28.212 301.276,29.33 301.276,30.692 C301.269868,31.3461244 301.525155,31.9756241 301.985169,32.4407081 C302.445184,32.905792 303.071848,33.1679625 303.726,33.169 C304.380244,33.1676962 305.006905,32.9053032 305.46689,32.4400608 C305.926875,31.9748185 306.182131,31.3452166 306.176,30.691 M315.57,30.691 C315.57,29.331 314.466,28.212 313.12,28.212 C311.771,28.212 310.668,29.33 310.668,30.692 C310.662136,31.3462172 310.917647,31.9757131 311.37782,32.4407674 C311.837993,32.9058217 312.464757,33.1679603 313.119,33.169 C313.773244,33.1676962 314.399905,32.9053032 314.85989,32.4400608 C315.319875,31.9748185 315.575131,31.3452166 315.569,30.691 M324.963,30.691 C324.963,29.331 323.86,28.212 322.513,28.212 C321.165,28.212 320.063,29.33 320.063,30.692 C320.056868,31.3461244 320.312155,31.9756241 320.772169,32.4407081 C321.232184,32.905792 321.858848,33.1679625 322.513,33.169 C323.167244,33.1676962 323.793905,32.9053032 324.25389,32.4400608 C324.713875,31.9748185 324.969131,31.3452166 324.963,30.691 M334.343,30.691 C334.343,29.331 333.253,28.212 331.906,28.212 C330.545,28.212 329.455,29.33 329.455,30.692 C329.455,32.08 330.545,33.169 331.905,33.169 C333.254,33.169 334.343,32.08 334.343,30.691 M343.75,30.691 C343.75,29.331 342.647,28.212 341.3,28.212 C339.938,28.212 338.849,29.33 338.849,30.692 C338.849,32.08 339.938,33.169 341.299,33.169 C341.953244,33.1676962 342.579905,32.9053032 343.03989,32.4400608 C343.499875,31.9748185 343.755131,31.3452166 343.749,30.691 M13.722,44.213 C13.722,43.567 13.217,43.063 12.584,43.063 C11.962,43.063 11.451,43.567 11.451,44.213 C11.451,44.847 11.961,45.351 12.584,45.351 C13.217,45.351 13.722,44.847 13.722,44.213 M22.934,43.65 C22.936933,43.3964778 22.8386158,43.1522588 22.6608446,42.9714841 C22.4830734,42.7907093 22.2405357,42.6883146 21.987,42.687 C21.7331302,42.6869723 21.4898565,42.7887701 21.3116641,42.9695941 C21.1334716,43.1504181 21.0352509,43.3951579 21.039,43.649 C21.039,44.179 21.461,44.6 21.987,44.6 C22.5104986,44.5983468 22.9340026,44.1735012 22.934,43.65 M32.443,43.212 C32.443,42.605 31.963,42.129 31.377,42.129 C30.785,42.129 30.304,42.605 30.304,43.212 C30.304,43.5942742 30.5079408,43.9475101 30.839,44.1386472 C31.1700591,44.3297843 31.5779409,44.3297843 31.909,44.1386472 C32.2400592,43.9475101 32.444,43.5942742 32.444,43.212 M41.693,40.21 C41.693,39.6947183 41.2752817,39.277 40.76,39.277 C40.2447183,39.277 39.827,39.6947183 39.827,40.21 C39.827,40.733 40.247,41.149 40.764,41.149 C41.0120437,41.1490092 41.2498133,41.0499299 41.424454,40.873787 C41.5990946,40.6976441 41.6961337,40.4590345 41.694,40.211 M51.193,40.212 C51.193,39.625 50.729,39.166 50.158,39.166 C49.591,39.166 49.128,39.625 49.128,40.212 C49.128,40.782234 49.590266,41.2445 50.1605,41.2445 C50.730734,41.2445 51.193,40.782234 51.193,40.212 M60.443,40.21 C60.443,39.7151529 60.0418471,39.314 59.547,39.314 C59.0521529,39.314 58.651,39.7151529 58.651,40.21 C58.651,40.713 59.051,41.112 59.547,41.112 C59.7856678,41.1125413 60.0146435,41.0176274 60.1829373,40.8483944 C60.3512312,40.6791614 60.4448694,40.4496611 60.443,40.211 M69.88,40.212 C69.8837469,39.9601878 69.7864003,39.7173815 69.6097375,39.5378997 C69.4330748,39.3584179 69.19184,39.2572398 68.94,39.257 C68.68816,39.2572398 68.4469252,39.3584179 68.2702625,39.5378997 C68.0935997,39.7173815 67.9962531,39.9601878 68,40.212 C68,40.737 68.42,41.156 68.94,41.156 C69.462,41.156 69.88,40.736 69.88,40.212 M79.443,40.212 C79.443,39.578 78.948,39.082 78.33,39.082 C77.713,39.082 77.211,39.578 77.211,40.212 C77.1936404,40.6219781 77.4024705,41.0084659 77.7549107,41.2186309 C78.1073509,41.4287959 78.5466491,41.4287959 78.8990893,41.2186309 C79.2515295,41.0084659 79.4603596,40.6219781 79.443,40.212 M88.943,40.213 C88.943,39.519 88.393,38.976 87.724,38.976 C87.048,38.976 86.499,39.519 86.499,40.213 C86.499,40.887892 87.046108,41.435 87.721,41.435 C88.395892,41.435 88.943,40.887892 88.943,40.213 M99.749,40.22 C99.749,38.722 98.564,37.551 97.121,37.551 C95.651,37.551 94.48,38.722 94.48,40.219 C94.4759853,40.9205779 94.7527735,41.594612 95.2486843,42.0908984 C95.744595,42.5871848 96.4184192,42.8644834 97.12,42.861 C97.8191838,42.8599419 98.4892364,42.5808337 98.9824137,42.0852177 C99.475591,41.5896017 99.7513907,40.9181805 99.749,40.219 M109.142,40.22 C109.149747,39.5148174 108.875028,38.8358488 108.37909,38.3344628 C107.883152,37.8330769 107.207225,37.5509575 106.502,37.551 C105.045,37.551 103.874,38.722 103.874,40.219 C103.869201,40.9185619 104.143949,41.5910775 104.637215,42.0871603 C105.130482,42.5832431 105.801422,42.8618163 106.501,42.861 C107.202099,42.8625989 107.874929,42.5847276 108.370588,42.0888805 C108.866248,41.5930335 109.143864,40.9200984 109.142,40.219 M118.522,40.22 C118.522,38.722 117.352,37.551 115.895,37.551 C114.438,37.551 113.267,38.722 113.267,40.219 C113.262199,40.9187354 113.537084,41.5914037 114.030568,42.0875157 C114.524051,42.5836277 115.195249,42.8620832 115.895,42.861 C116.594578,42.8618163 117.265518,42.5832431 117.758785,42.0871603 C118.252051,41.5910775 118.526799,40.9185619 118.522,40.219 M127.916,40.22 C127.916,38.722 126.745,37.551 125.288,37.551 C123.831,37.551 122.662,38.722 122.662,40.219 C122.656663,40.9185503 122.931101,41.5912263 123.424267,42.0873975 C123.917434,42.5835688 124.58843,42.8620876 125.288,42.861 C125.987751,42.8620832 126.658949,42.5836277 127.152432,42.0875157 C127.645916,41.5914037 127.920801,40.9187354 127.916,40.219 M137.31,40.22 C137.31,38.722 136.14,37.551 134.682,37.551 C133.238,37.551 132.054,38.722 132.054,40.219 C132.051343,40.9180882 132.32692,41.5895124 132.819938,42.0851574 C133.312957,42.5808024 133.982908,42.8599426 134.682,42.861 C135.38166,42.8620853 136.052758,42.5835982 136.546083,42.0874566 C137.039407,41.591315 137.314069,40.9186429 137.309,40.219 M146.704,40.22 C146.704,38.722 145.518,37.551 144.076,37.551 C143.37077,37.5509658 142.694796,37.8328848 142.198571,38.3339935 C141.702346,38.8351022 141.42706,39.513804 141.434,40.219 C141.407585,41.1777039 141.903956,42.0751069 142.730095,42.5622468 C143.556234,43.0493866 144.581766,43.0493866 145.407905,42.5622468 C146.234044,42.0751069 146.730415,41.1777039 146.704,40.219 M156.097,40.22 C156.097,38.722 154.912,37.551 153.469,37.551 C152.76395,37.5509603 152.088177,37.8329427 151.592268,38.3341112 C151.09636,38.8352797 150.821522,39.5139897 150.829,40.219 C150.80259,41.1773434 151.298771,42.0744111 152.124599,42.5613692 C152.950426,43.0483274 153.975574,43.0483274 154.801401,42.5613692 C155.627229,42.0744111 156.12341,41.1773434 156.097,40.219 M165.49,40.22 C165.497747,39.5148174 165.223028,38.8358488 164.72709,38.3344628 C164.231152,37.8330769 163.555225,37.5509575 162.85,37.551 C161.407,37.551 160.221,38.722 160.221,40.219 C160.221,41.6742703 161.40073,42.854 162.856,42.854 C164.31127,42.854 165.491,41.6742703 165.491,40.219 M174.871,40.22 C174.871,38.722 173.699,37.551 172.243,37.551 C170.8,37.551 169.615,38.722 169.615,40.219 C169.612609,40.9180075 169.888272,41.5892772 170.381233,42.0848643 C170.874194,42.5804515 171.54399,42.8596767 172.243,42.861 C172.942669,42.8618143 173.61371,42.5832729 174.107135,42.0872196 C174.600559,41.5911663 174.875532,40.9186544 174.871,40.219 M184.277,40.22 C184.284209,39.5146316 184.009042,38.8356714 183.512787,38.3343453 C183.016533,37.8330192 182.340405,37.5509632 181.635,37.551 C180.179,37.551 179.009,38.722 179.009,40.219 C179.003933,40.9184693 179.278457,41.5909887 179.771565,42.0871011 C180.264673,42.5832135 180.935513,42.8618184 181.635,42.861 C182.336191,42.8625979 183.009122,42.5847582 183.50494,42.0889403 C184.000758,41.5931224 184.278598,40.9201906 184.277,40.219 M193.657,40.22 C193.657,38.722 192.473,37.551 191.03,37.551 C189.574,37.551 188.402,38.722 188.402,40.219 C188.397468,40.9186544 188.672441,41.5911663 189.165865,42.0872196 C189.65929,42.5832729 190.330331,42.8618143 191.03,42.861 C191.728919,42.8596773 192.398612,42.5804202 192.891415,42.084804 C193.384217,41.5891878 193.659657,40.9179152 193.657,40.219 M203.052,40.22 C203.052,38.722 201.881,37.551 200.424,37.551 C198.967,37.551 197.796,38.722 197.796,40.219 C197.791199,40.9187354 198.066084,41.5914037 198.559568,42.0875157 C199.053051,42.5836277 199.724249,42.8620832 200.424,42.861 C201.123751,42.8620832 201.794949,42.5836277 202.288432,42.0875157 C202.781916,41.5914037 203.056801,40.9187354 203.052,40.219 M212.444,40.22 C212.451476,39.5148978 212.17667,38.8360862 211.68079,38.3347595 C211.184911,37.8334328 210.509142,37.5512274 209.804,37.551 C208.36,37.551 207.175,38.722 207.175,40.219 C207.222939,41.6394042 208.388287,42.7660857 209.8095,42.7660857 C211.230713,42.7660857 212.396061,41.6394042 212.444,40.219 M221.838,40.22 C221.845478,39.5147245 221.570535,38.8357601 221.074439,38.3344041 C220.578342,37.8330481 219.902315,37.5509604 219.197,37.551 C217.754,37.551 216.569,38.722 216.569,40.219 C216.616939,41.6394042 217.782287,42.7660857 219.2035,42.7660857 C220.624713,42.7660857 221.790061,41.6394042 221.838,40.219 M231.218,40.22 C231.218,38.722 230.061,37.551 228.591,37.551 C227.148,37.551 225.963,38.722 225.963,40.219 C225.960609,40.9180075 226.236272,41.5892772 226.729233,42.0848643 C227.222194,42.5804515 227.89199,42.8596767 228.591,42.861 C229.291322,42.8642512 229.963684,42.5864568 230.45748,42.0898409 C230.951277,41.593225 231.225238,40.9192926 231.218,40.219 M240.611,40.22 C240.611,38.722 239.441,37.551 237.984,37.551 C236.541,37.551 235.356,38.722 235.356,40.219 C235.353609,40.9180075 235.629272,41.5892772 236.122233,42.0848643 C236.615194,42.5804515 237.28499,42.8596767 237.984,42.861 C238.683578,42.8618163 239.354518,42.5832431 239.847785,42.0871603 C240.341051,41.5910775 240.615799,40.9185619 240.611,40.219 M250.018,40.22 C250.025476,39.5148978 249.75067,38.8360862 249.25479,38.3347595 C248.758911,37.8334328 248.083142,37.5512274 247.378,37.551 C245.92,37.551 244.749,38.722 244.749,40.219 C244.744199,40.9187354 245.019084,41.5914037 245.512568,42.0875157 C246.006051,42.5836277 246.677249,42.8620832 247.377,42.861 C248.078017,42.8623315 248.750692,42.5843743 249.246293,42.0885854 C249.741894,41.5927965 250.019597,40.9200169 250.018,40.219 M259.398,40.22 C259.398,38.722 258.228,37.551 256.771,37.551 C255.314,37.551 254.143,38.722 254.143,40.219 C254.138199,40.9187354 254.413084,41.5914037 254.906568,42.0875157 C255.400051,42.5836277 256.071249,42.8620832 256.771,42.861 C257.470578,42.8618163 258.141518,42.5832431 258.634785,42.0871603 C259.128051,41.5910775 259.402799,40.9185619 259.398,40.219 M268.792,40.22 C268.792,38.722 267.621,37.551 266.165,37.551 C265.45977,37.5509658 264.783796,37.8328848 264.287571,38.3339935 C263.791346,38.8351022 263.51606,39.513804 263.523,40.219 C263.521402,40.9201906 263.799242,41.5931224 264.29506,42.0889403 C264.790878,42.5847582 265.463809,42.8625979 266.165,42.861 C266.864578,42.8618163 267.535518,42.5832431 268.028785,42.0871603 C268.522051,41.5910775 268.796799,40.9185619 268.792,40.219 M278.185,40.22 C278.192476,39.5148978 277.91767,38.8360862 277.42179,38.3347595 C276.925911,37.8334328 276.250142,37.5512274 275.545,37.551 C274.101,37.551 272.916,38.722 272.916,40.219 C272.963939,41.6394042 274.129287,42.7660857 275.5505,42.7660857 C276.971713,42.7660857 278.137061,41.6394042 278.185,40.219 M287.579,40.22 C287.586478,39.5147245 287.311535,38.8357601 286.815439,38.3344041 C286.319342,37.8330481 285.643315,37.5509604 284.938,37.551 C283.495,37.551 282.31,38.722 282.31,40.219 C282.357939,41.6394042 283.523287,42.7660857 284.9445,42.7660857 C286.365713,42.7660857 287.531061,41.6394042 287.579,40.219 M296.959,40.22 C296.959,38.722 295.788,37.551 294.332,37.551 C292.889,37.551 291.704,38.722 291.704,40.219 C291.701609,40.9180075 291.977272,41.5892772 292.470233,42.0848643 C292.963194,42.5804515 293.63299,42.8596767 294.332,42.861 C295.031578,42.8618163 295.702518,42.5832431 296.195785,42.0871603 C296.689051,41.5910775 296.963799,40.9185619 296.959,40.219 M306.352,40.22 C306.352,38.722 305.182,37.551 303.725,37.551 C302.282,37.551 301.097,38.722 301.097,40.219 C301.094609,40.9180075 301.370272,41.5892772 301.863233,42.0848643 C302.356194,42.5804515 303.02599,42.8596767 303.725,42.861 C304.424578,42.8618163 305.095518,42.5832431 305.588785,42.0871603 C306.082051,41.5910775 306.356799,40.9185619 306.352,40.219 M315.76,40.22 C315.767478,39.5147245 315.492535,38.8357601 314.996439,38.3344041 C314.500342,37.8330481 313.824315,37.5509604 313.119,37.551 C311.662,37.551 310.491,38.722 310.491,40.219 C310.486199,40.9187354 310.761084,41.5914037 311.254568,42.0875157 C311.748051,42.5836277 312.419249,42.8620832 313.119,42.861 C313.819844,42.8620653 314.492261,42.5839906 314.987646,42.0882306 C315.483031,41.5924706 315.760596,40.9198433 315.759,40.219 M325.14,40.22 C325.14,38.722 323.955,37.551 322.513,37.551 C321.056,37.551 319.885,38.722 319.885,40.219 C319.880201,40.9185619 320.154949,41.5910775 320.648215,42.0871603 C321.141482,42.5832431 321.812422,42.8618163 322.512,42.861 C323.210837,42.8594116 323.880375,42.5800695 324.37312,42.0845112 C324.865865,41.5889528 325.141391,40.9178346 325.139,40.219 M334.533,40.22 C334.533,38.722 333.363,37.551 331.906,37.551 C331.20077,37.5509658 330.524796,37.8328848 330.028571,38.3339935 C329.532346,38.8351022 329.25706,39.513804 329.264,40.219 C329.262402,40.9201906 329.540242,41.5931224 330.03606,42.0889403 C330.531878,42.5847582 331.204809,42.8625979 331.906,42.861 C332.605578,42.8618163 333.276518,42.5832431 333.769785,42.0871603 C334.263051,41.5910775 334.537799,40.9185619 334.533,40.219 M343.927,40.22 C343.927,38.722 342.742,37.551 341.3,37.551 C340.59477,37.5509658 339.918796,37.8328848 339.422571,38.3339935 C338.926346,38.8351022 338.65106,39.513804 338.658,40.219 C338.656402,40.9201906 338.934242,41.5931224 339.43006,42.0889403 C339.925878,42.5847582 340.598809,42.8625979 341.3,42.861 C341.998837,42.8594116 342.668375,42.5800695 343.16112,42.0845112 C343.653865,41.5889528 343.929391,40.9178346 343.927,40.219 M3.943,49.723 C3.94412687,49.3098402 3.61213184,48.9729366 3.199,48.968 C2.78586816,48.9729366 2.45387313,49.3098402 2.455,49.723 C2.455,50.143 2.79,50.477 3.199,50.477 C3.3977317,50.4759437 3.58787366,50.3958454 3.72745897,50.2543839 C3.86704428,50.1129225 3.94459693,49.9217281 3.943,49.723 M13.818,49.723 C13.818,49.037 13.269,48.47 12.584,48.47 C11.904,48.47 11.354,49.037 11.354,49.723 C11.354,50.419 11.904,50.975 12.584,50.975 C13.269,50.975 13.818,50.419 13.818,49.723 M23.068,49.723 C23.0713457,49.1185768 22.5863836,48.6246835 21.982,48.617 C21.3760491,48.6224997 20.8886697,49.1170333 20.892,49.723 C20.892,50.338 21.377,50.829 21.982,50.829 C22.583,50.829 23.068,50.339 23.068,49.723 M34.212,49.723 C34.212,48.143 32.946,46.837 31.38,46.837 C29.8,46.837 28.535,48.143 28.535,49.723 C28.535,51.328 29.801,52.609 31.38,52.609 C32.946,52.609 34.212,51.329 34.212,49.723 M43.606,49.723 C43.606,48.143 42.326,46.837 40.773,46.837 C39.195,46.837 37.927,48.143 37.927,49.723 C37.927,51.328 39.195,52.609 40.773,52.609 C42.326,52.609 43.606,51.329 43.606,49.723 M52.999,49.723 C52.999,48.143 51.719,46.837 50.154,46.837 C48.603,46.837 47.322,48.143 47.322,49.723 C47.322,51.328 48.602,52.609 50.154,52.609 C51.72,52.609 52.999,51.329 52.999,49.723 M62.392,49.723 C62.392,48.143 61.113,46.837 59.546,46.837 C57.981,46.837 56.703,48.143 56.703,49.723 C56.703,51.328 57.981,52.609 59.546,52.609 C61.114,52.609 62.392,51.329 62.392,49.723 M71.786,49.723 C71.786,48.143 70.506,46.837 68.94,46.837 C67.375,46.837 66.095,48.143 66.095,49.723 C66.095,51.328 67.375,52.609 68.94,52.609 C70.506,52.609 71.786,51.329 71.786,49.723 M81.166,49.723 C81.166,48.143 79.9,46.837 78.335,46.837 C76.755,46.837 75.489,48.143 75.489,49.723 C75.489,51.328 76.756,52.609 78.335,52.609 C79.9,52.609 81.165,51.329 81.165,49.723 M90.56,49.723 C90.56,48.143 89.293,46.837 87.728,46.837 C86.162,46.837 84.882,48.143 84.882,49.723 C84.882,51.328 86.162,52.609 87.728,52.609 C89.293,52.609 90.559,51.329 90.559,49.723 M99.954,49.723 C99.954,48.143 98.686,46.837 97.121,46.837 C95.542,46.837 94.276,48.143 94.276,49.723 C94.276,51.328 95.542,52.609 97.121,52.609 C98.686,52.609 99.954,51.329 99.954,49.723 M109.347,49.723 C109.347,48.143 108.067,46.837 106.501,46.837 C104.936,46.837 103.671,48.143 103.671,49.723 C103.671,51.328 104.936,52.609 106.501,52.609 C108.067,52.609 109.347,51.329 109.347,49.723 M118.726,49.723 C118.726,48.143 117.46,46.837 115.896,46.837 C114.329,46.837 113.063,48.143 113.063,49.723 C113.063,51.328 114.329,52.609 115.895,52.609 C117.46,52.609 118.726,51.329 118.726,49.723 M128.121,49.723 C128.121,48.143 126.853,46.837 125.288,46.837 C123.723,46.837 122.443,48.143 122.443,49.723 C122.443,51.328 123.723,52.609 125.288,52.609 C126.853,52.609 128.121,51.329 128.121,49.723 M137.513,49.723 C137.513,48.143 136.247,46.837 134.683,46.837 C133.118,46.837 131.838,48.143 131.838,49.723 C131.838,51.328 133.118,52.609 134.683,52.609 C136.248,52.609 137.513,51.329 137.513,49.723 M146.907,49.723 C146.907,48.143 145.641,46.837 144.077,46.837 C142.497,46.837 141.23,48.143 141.23,49.723 C141.23,51.328 142.496,52.609 144.076,52.609 C145.641,52.609 146.907,51.329 146.907,49.723 M156.314,49.723 C156.314,48.143 155.034,46.837 153.468,46.837 C151.903,46.837 150.624,48.143 150.624,49.723 C150.624,51.328 151.904,52.609 153.468,52.609 C155.034,52.609 156.314,51.329 156.314,49.723 M165.695,49.723 C165.695,48.143 164.429,46.837 162.849,46.837 C161.284,46.837 160.016,48.143 160.016,49.723 C160.016,51.328 161.284,52.609 162.849,52.609 C164.429,52.609 165.695,51.329 165.695,49.723 M175.088,49.723 C175.088,48.143 173.808,46.837 172.243,46.837 C170.678,46.837 169.398,48.143 169.398,49.723 C169.398,51.328 170.678,52.609 172.243,52.609 C173.809,52.609 175.088,51.329 175.088,49.723 M184.469,49.723 C184.469,48.143 183.201,46.837 181.636,46.837 C180.071,46.837 178.805,48.143 178.805,49.723 C178.805,51.328 180.071,52.609 181.635,52.609 C183.201,52.609 184.469,51.329 184.469,49.723 M193.876,49.723 C193.876,48.143 192.596,46.837 191.03,46.837 C189.465,46.837 188.186,48.143 188.186,49.723 C188.186,51.328 189.465,52.609 191.03,52.609 C192.596,52.609 193.876,51.329 193.876,49.723 M203.27,49.723 C203.27,48.143 201.99,46.837 200.423,46.837 C198.844,46.837 197.593,48.143 197.593,49.723 C197.593,51.328 198.844,52.609 200.423,52.609 C201.989,52.609 203.269,51.329 203.269,49.723 M212.648,49.723 C212.648,48.143 211.382,46.837 209.803,46.837 C208.253,46.837 206.971,48.143 206.971,49.723 C206.971,51.328 208.252,52.609 209.803,52.609 C211.383,52.609 212.648,51.329 212.648,49.723 M222.042,49.723 C222.042,48.143 220.776,46.837 219.197,46.837 C217.632,46.837 216.365,48.143 216.365,49.723 C216.365,51.328 217.632,52.609 219.197,52.609 C220.776,52.609 222.042,51.329 222.042,49.723 M231.435,49.723 C231.435,48.143 230.169,46.837 228.59,46.837 C227.025,46.837 225.758,48.143 225.758,49.723 C225.758,51.328 227.025,52.609 228.59,52.609 C230.17,52.609 231.435,51.329 231.435,49.723 M240.829,49.723 C240.829,48.143 239.55,46.837 237.984,46.837 C236.419,46.837 235.152,48.143 235.152,49.723 C235.152,51.328 236.419,52.609 237.984,52.609 C239.55,52.609 240.829,51.329 240.829,49.723 M250.209,49.723 C250.209,48.143 248.957,46.837 247.378,46.837 C245.813,46.837 244.546,48.143 244.546,49.723 C244.546,51.328 245.813,52.609 247.378,52.609 C248.957,52.609 250.208,51.329 250.208,49.723 M259.616,49.723 C259.616,48.143 258.337,46.837 256.771,46.837 C255.206,46.837 253.926,48.143 253.926,49.723 C253.926,51.328 255.206,52.609 256.771,52.609 C258.337,52.609 259.616,51.329 259.616,49.723 M268.996,49.723 C268.996,48.143 267.73,46.837 266.165,46.837 C264.6,46.837 263.319,48.143 263.319,49.723 C263.319,51.328 264.6,52.609 266.165,52.609 C267.73,52.609 268.996,51.329 268.996,49.723 M278.39,49.723 C278.39,48.143 277.11,46.837 275.545,46.837 C273.993,46.837 272.712,48.143 272.712,49.723 C272.712,51.328 273.993,52.609 275.545,52.609 C277.11,52.609 278.389,51.329 278.389,49.723 M287.783,49.723 C287.783,48.143 286.517,46.837 284.938,46.837 C283.373,46.837 282.106,48.143 282.106,49.723 C282.106,51.328 283.373,52.609 284.938,52.609 C286.518,52.609 287.783,51.329 287.783,49.723 M297.177,49.723 C297.177,48.143 295.897,46.837 294.332,46.837 C292.767,46.837 291.487,48.143 291.487,49.723 C291.487,51.328 292.767,52.609 294.332,52.609 C295.898,52.609 297.177,51.329 297.177,49.723 M306.57,49.723 C306.57,48.143 305.304,46.837 303.725,46.837 C302.16,46.837 300.893,48.143 300.893,49.723 C300.893,51.328 302.16,52.609 303.725,52.609 C305.305,52.609 306.57,51.329 306.57,49.723 M315.964,49.723 C315.964,48.143 314.684,46.837 313.119,46.837 C311.554,46.837 310.287,48.143 310.287,49.723 C310.287,51.328 311.554,52.609 313.119,52.609 C314.685,52.609 315.964,51.329 315.964,49.723 M325.357,49.723 C325.357,48.143 324.078,46.837 322.512,46.837 C320.947,46.837 319.667,48.143 319.667,49.723 C319.667,51.328 320.947,52.609 322.512,52.609 C324.078,52.609 325.357,51.329 325.357,49.723 M334.737,49.723 C334.737,48.143 333.471,46.837 331.907,46.837 C330.327,46.837 329.06,48.143 329.06,49.723 C329.06,51.328 330.327,52.609 331.906,52.609 C333.471,52.609 334.737,51.329 334.737,49.723 M344.13,49.723 C344.13,48.143 342.865,46.837 341.3,46.837 C339.72,46.837 338.454,48.143 338.454,49.723 C338.454,51.328 339.721,52.609 341.3,52.609 C342.865,52.609 344.13,51.329 344.13,49.723 M6.222,59.225 C6.222,57.565 4.874,56.176 3.2,56.176 C1.526,56.176 0.177,57.564 0.177,59.226 C0.177,60.94 1.526,62.3 3.2,62.3 C4.874,62.3 6.222,60.94 6.222,59.224 M15.615,59.225 C15.615,57.565 14.255,56.176 12.58,56.176 C10.918,56.176 9.571,57.564 9.571,59.226 C9.571,60.941 10.918,62.301 12.581,62.301 C14.254,62.301 15.615,60.941 15.615,59.225 M25.01,59.225 C25.01,57.565 23.648,56.176 21.988,56.176 C20.313,56.176 18.965,57.564 18.965,59.226 C18.965,60.941 20.313,62.301 21.988,62.301 C23.648,62.301 25.01,60.941 25.01,59.225 M34.402,59.225 C34.402,57.565 33.042,56.176 31.38,56.176 C29.706,56.176 28.343,57.564 28.343,59.226 C28.343,60.941 29.706,62.301 31.38,62.301 C33.041,62.301 34.402,60.941 34.402,59.225 M43.796,59.225 C43.796,57.565 42.436,56.176 40.774,56.176 C39.1,56.176 37.751,57.564 37.751,59.226 C37.751,60.941 39.1,62.301 40.774,62.301 C42.436,62.301 43.796,60.941 43.796,59.225 M53.177,59.225 C53.177,57.565 51.827,56.176 50.155,56.176 C48.492,56.176 47.132,57.564 47.132,59.226 C47.132,60.941 48.492,62.301 50.155,62.301 C51.828,62.301 53.177,60.941 53.177,59.225 M62.57,59.225 C62.57,57.565 61.221,56.176 59.547,56.176 C57.873,56.176 56.525,57.564 56.525,59.226 C56.525,60.941 57.873,62.301 59.547,62.301 C61.221,62.301 62.569,60.941 62.569,59.225 M71.963,59.225 C71.963,57.565 70.616,56.176 68.941,56.176 C67.28,56.176 65.918,57.564 65.918,59.226 C65.918,60.941 67.28,62.301 68.941,62.301 C70.616,62.301 71.963,60.941 71.963,59.225 M81.357,59.225 C81.357,57.565 79.995,56.176 78.335,56.176 C76.661,56.176 75.312,57.564 75.312,59.226 C75.312,60.941 76.662,62.301 78.335,62.301 C79.995,62.301 81.357,60.941 81.357,59.225 M90.736,59.225 C90.736,57.565 89.388,56.176 87.728,56.176 C86.053,56.176 84.706,57.564 84.706,59.226 C84.706,60.941 86.053,62.301 87.728,62.301 C89.388,62.301 90.736,60.941 90.736,59.225 M100.143,59.225 C100.143,57.565 98.783,56.176 97.121,56.176 C95.433,56.176 94.098,57.564 94.098,59.226 C94.098,60.941 95.433,62.301 97.121,62.301 C98.783,62.301 100.143,60.941 100.143,59.225 M109.538,59.225 C109.538,57.565 108.176,56.176 106.502,56.176 C104.84,56.176 103.479,57.564 103.479,59.226 C103.479,60.941 104.84,62.301 106.502,62.301 C108.176,62.301 109.538,60.941 109.538,59.225 M118.917,59.225 C118.917,57.565 117.569,56.176 115.896,56.176 C114.234,56.176 112.873,57.564 112.873,59.226 C112.873,60.941 114.233,62.301 115.896,62.301 C117.569,62.301 118.916,60.941 118.916,59.225 M128.31,59.225 C128.31,57.565 126.963,56.176 125.288,56.176 C123.614,56.176 122.265,57.564 122.265,59.226 C122.265,60.941 123.615,62.301 125.288,62.301 C126.963,62.301 128.31,60.941 128.31,59.225 M137.705,59.225 C137.705,57.565 136.343,56.176 134.683,56.176 C133.007,56.176 131.66,57.564 131.66,59.226 C131.66,60.941 133.007,62.301 134.683,62.301 C136.343,62.301 137.705,60.941 137.705,59.225 M147.099,59.225 C147.099,57.565 145.737,56.176 144.077,56.176 C142.402,56.176 141.054,57.564 141.054,59.226 C141.054,60.941 142.401,62.301 144.077,62.301 C145.737,62.301 147.099,60.941 147.099,59.225 M156.477,59.225 C156.477,57.565 155.13,56.176 153.468,56.176 C151.794,56.176 150.448,57.564 150.448,59.226 C150.448,60.941 151.794,62.301 153.468,62.301 C155.13,62.301 156.478,60.941 156.478,59.225 M165.872,59.225 C165.872,57.565 164.524,56.176 162.85,56.176 C161.187,56.176 159.827,57.564 159.827,59.226 C159.827,60.941 161.187,62.301 162.85,62.301 C164.524,62.301 165.872,60.941 165.872,59.225 M175.266,59.225 C175.266,57.565 173.916,56.176 172.244,56.176 C170.582,56.176 169.234,57.564 169.234,59.226 C169.234,60.941 170.581,62.301 172.244,62.301 C173.917,62.301 175.266,60.941 175.266,59.225 M184.658,59.225 C184.658,57.565 183.31,56.176 181.636,56.176 C179.976,56.176 178.613,57.564 178.613,59.226 C178.613,60.941 179.975,62.301 181.636,62.301 C183.31,62.301 184.658,60.941 184.658,59.225 M194.053,59.225 C194.053,57.565 192.692,56.176 191.031,56.176 C189.355,56.176 188.008,57.564 188.008,59.226 C188.008,60.941 189.355,62.301 191.031,62.301 C192.691,62.301 194.053,60.941 194.053,59.225 M203.446,59.225 C203.446,57.565 202.084,56.176 200.424,56.176 C198.749,56.176 197.401,57.564 197.401,59.226 C197.401,60.941 198.749,62.301 200.424,62.301 C202.084,62.301 203.446,60.941 203.446,59.225 M212.84,59.225 C212.84,57.565 211.478,56.176 209.804,56.176 C208.143,56.176 206.794,57.564 206.794,59.226 C206.794,60.941 208.143,62.301 209.804,62.301 C211.478,62.301 212.84,60.941 212.84,59.225 M222.22,59.225 C222.22,57.565 220.87,56.176 219.198,56.176 C217.536,56.176 216.175,57.564 216.175,59.226 C216.175,60.941 217.535,62.301 219.198,62.301 C220.871,62.301 222.22,60.941 222.22,59.225 M231.613,59.225 C231.613,57.565 230.264,56.176 228.591,56.176 C226.929,56.176 225.568,57.564 225.568,59.226 C225.568,60.941 226.929,62.301 228.591,62.301 C230.264,62.301 231.613,60.941 231.613,59.225 M241.007,59.225 C241.007,57.565 239.657,56.176 237.985,56.176 C236.323,56.176 234.962,57.564 234.962,59.226 C234.962,60.941 236.322,62.301 237.985,62.301 C239.658,62.301 241.007,60.941 241.007,59.225 M250.4,59.225 C250.4,57.565 249.052,56.176 247.378,56.176 C245.703,56.176 244.355,57.564 244.355,59.226 C244.355,60.941 245.703,62.301 247.378,62.301 C249.052,62.301 250.4,60.941 250.4,59.225 M259.793,59.225 C259.793,57.565 258.432,56.176 256.772,56.176 C255.097,56.176 253.749,57.564 253.749,59.226 C253.749,60.941 255.097,62.301 256.772,62.301 C258.432,62.301 259.792,60.941 259.792,59.225 M269.187,59.225 C269.187,57.565 267.838,56.176 266.165,56.176 C264.49,56.176 263.142,57.564 263.142,59.226 C263.142,60.941 264.49,62.301 266.165,62.301 C267.838,62.301 269.187,60.941 269.187,59.225 M278.567,59.225 C278.567,57.565 277.218,56.176 275.545,56.176 C273.883,56.176 272.536,57.564 272.536,59.226 C272.536,60.941 273.883,62.301 275.546,62.301 C277.218,62.301 278.567,60.941 278.567,59.225 M287.96,59.225 C287.96,57.565 286.612,56.176 284.939,56.176 C283.277,56.176 281.916,57.564 281.916,59.226 C281.916,60.941 283.276,62.301 284.939,62.301 C286.612,62.301 287.961,60.941 287.961,59.225 M297.354,59.225 C297.354,57.565 296.005,56.176 294.332,56.176 C292.67,56.176 291.309,57.564 291.309,59.226 C291.309,60.941 292.67,62.301 294.332,62.301 C296.005,62.301 297.354,60.941 297.354,59.225 M306.748,59.225 C306.748,57.565 305.4,56.176 303.726,56.176 C302.064,56.176 300.703,57.564 300.703,59.226 C300.703,60.941 302.063,62.301 303.726,62.301 C305.4,62.301 306.748,60.941 306.748,59.225 M316.142,59.225 C316.142,57.565 314.779,56.176 313.12,56.176 C311.445,56.176 310.096,57.564 310.096,59.226 C310.096,60.941 311.445,62.301 313.12,62.301 C314.78,62.301 316.142,60.941 316.142,59.225 M325.535,59.225 C325.535,57.565 324.186,56.176 322.513,56.176 C320.838,56.176 319.476,57.564 319.476,59.226 C319.476,60.941 320.838,62.301 322.513,62.301 C324.186,62.301 325.535,60.941 325.535,59.225 M334.929,59.225 C334.929,57.565 333.579,56.176 331.907,56.176 C330.232,56.176 328.884,57.564 328.884,59.226 C328.884,60.941 330.232,62.301 331.907,62.301 C333.58,62.301 334.929,60.941 334.929,59.225 M344.322,59.225 C344.322,57.565 342.962,56.176 341.3,56.176 C339.625,56.176 338.277,57.564 338.277,59.226 C338.277,60.941 339.625,62.301 341.3,62.301 C342.961,62.301 344.322,60.941 344.322,59.225 M6.398,68.783 C6.398,66.986 4.969,65.515 3.199,65.515 C1.43,65.515 0,66.985 0,68.783 C0,70.552 1.43,72.022 3.2,72.022 C4.97,72.022 6.398,70.552 6.398,68.782 M15.792,68.783 C15.792,66.986 14.362,65.515 12.58,65.515 C10.823,65.515 9.38,66.985 9.38,68.783 C9.38,70.552 10.823,72.022 12.58,72.022 C14.363,72.022 15.792,70.552 15.792,68.782 M25.186,68.783 C25.186,66.986 23.756,65.515 21.987,65.515 C20.203,65.515 18.773,66.985 18.773,68.783 C18.773,70.552 20.203,72.022 21.987,72.022 C23.755,72.022 25.187,70.552 25.187,68.782 M34.58,68.783 C34.58,66.986 33.15,65.515 31.38,65.515 C29.611,65.515 28.167,66.985 28.167,68.783 C28.167,70.552 29.611,72.022 31.38,72.022 C33.15,72.022 34.58,70.552 34.58,68.782 M43.972,68.783 C43.972,66.986 42.531,65.515 40.773,65.515 C38.99,65.515 37.561,66.985 37.561,68.783 C37.561,70.552 38.991,72.022 40.773,72.022 C42.531,72.022 43.973,70.552 43.973,68.782 M53.367,68.783 C53.367,66.986 51.923,65.515 50.154,65.515 C48.397,65.515 46.955,66.985 46.955,68.783 C46.955,70.552 48.397,72.022 50.155,72.022 C51.923,72.022 53.367,70.552 53.367,68.782 M62.747,68.783 C62.747,66.986 61.317,65.515 59.547,65.515 C57.777,65.515 56.347,66.985 56.347,68.783 C56.347,70.552 57.777,72.022 59.547,72.022 C61.317,72.022 62.747,70.552 62.747,68.782 M72.14,68.783 C72.14,66.986 70.71,65.515 68.94,65.515 C67.171,65.515 65.728,66.985 65.728,68.783 C65.728,70.552 67.172,72.022 68.941,72.022 C70.711,72.022 72.139,70.552 72.139,68.782 M81.534,68.783 C81.534,66.986 80.104,65.515 78.335,65.515 C76.565,65.515 75.122,66.985 75.122,68.783 C75.122,70.552 76.564,72.022 78.335,72.022 C80.105,72.022 81.535,70.552 81.535,68.782 M90.928,68.783 C90.928,66.986 89.498,65.515 87.728,65.515 C85.958,65.515 84.515,66.985 84.515,68.783 C84.515,70.552 85.958,72.022 87.729,72.022 C89.499,72.022 90.928,70.552 90.928,68.782 M100.32,68.783 C100.32,66.986 98.878,65.515 97.121,65.515 C95.352,65.515 93.909,66.985 93.909,68.783 C93.909,70.552 95.352,72.022 97.121,72.022 C98.878,72.022 100.321,70.552 100.321,68.782 M109.714,68.783 C109.714,66.986 108.272,65.515 106.502,65.515 C104.732,65.515 103.302,66.985 103.302,68.783 C103.302,70.552 104.732,72.022 106.502,72.022 C108.272,72.022 109.714,70.552 109.714,68.782 M119.095,68.783 C119.095,66.986 117.665,65.515 115.895,65.515 C114.125,65.515 112.695,66.985 112.695,68.783 C112.695,70.552 114.125,72.022 115.895,72.022 C117.665,72.022 119.095,70.552 119.095,68.782 M128.487,68.783 C128.487,66.986 127.058,65.515 125.288,65.515 C123.519,65.515 122.089,66.985 122.089,68.783 C122.089,70.552 123.519,72.022 125.289,72.022 C127.059,72.022 128.487,70.552 128.487,68.782 M137.882,68.783 C137.882,66.986 136.452,65.515 134.682,65.515 C132.912,65.515 131.484,66.985 131.484,68.783 C131.484,70.552 132.912,72.022 134.683,72.022 C136.452,72.022 137.882,70.552 137.882,68.782 M147.275,68.783 C147.275,66.986 145.845,65.515 144.076,65.515 C142.306,65.515 140.862,66.985 140.862,68.783 C140.862,70.552 142.305,72.022 144.076,72.022 C145.844,72.022 147.276,70.552 147.276,68.782 M156.668,68.783 C156.668,66.986 155.238,65.515 153.468,65.515 C151.7,65.515 150.257,66.985 150.257,68.783 C150.257,70.552 151.7,72.022 153.469,72.022 C155.239,72.022 156.668,70.552 156.668,68.782 M166.061,68.783 C166.061,66.986 164.619,65.515 162.849,65.515 C161.092,65.515 159.65,66.985 159.65,68.783 C159.65,70.552 161.092,72.022 162.85,72.022 C164.62,72.022 166.061,70.552 166.061,68.782 M175.456,68.783 C175.456,66.986 174.014,65.515 172.243,65.515 C170.473,65.515 169.043,66.985 169.043,68.783 C169.043,70.552 170.473,72.022 172.243,72.022 C174.013,72.022 175.456,70.552 175.456,68.782 M184.85,68.783 C184.85,66.986 183.406,65.515 181.636,65.515 C179.868,65.515 178.423,66.985 178.423,68.783 C178.423,70.552 179.868,72.022 181.636,72.022 C183.406,72.022 184.85,70.552 184.85,68.782 M194.228,68.783 C194.228,66.986 192.799,65.515 191.03,65.515 C189.26,65.515 187.817,66.985 187.817,68.783 C187.817,70.552 189.259,72.022 191.03,72.022 C192.8,72.022 194.228,70.552 194.228,68.782 M203.623,68.783 C203.623,66.986 202.192,65.515 200.423,65.515 C198.653,65.515 197.225,66.985 197.225,68.783 C197.225,70.552 198.653,72.022 200.424,72.022 C202.192,72.022 203.623,70.552 203.623,68.782 M213.017,68.783 C213.017,66.986 211.573,65.515 209.804,65.515 C208.047,65.515 206.604,66.985 206.604,68.783 C206.604,70.552 208.046,72.022 209.804,72.022 C211.574,72.022 213.017,70.552 213.017,68.782 M222.41,68.783 C222.41,66.986 220.98,65.515 219.197,65.515 C217.427,65.515 215.998,66.985 215.998,68.783 C215.998,70.552 217.427,72.022 219.197,72.022 C220.98,72.022 222.41,70.552 222.41,68.782 M231.79,68.783 C231.79,66.986 230.36,65.515 228.59,65.515 C226.82,65.515 225.392,66.985 225.392,68.783 C225.392,70.552 226.82,72.022 228.591,72.022 C230.36,72.022 231.79,70.552 231.79,68.782 M241.184,68.783 C241.184,66.986 239.754,65.515 237.984,65.515 C236.214,65.515 234.786,66.985 234.786,68.783 C234.786,70.552 236.214,72.022 237.984,72.022 C239.754,72.022 241.184,70.552 241.184,68.782 M250.59,68.783 C250.59,66.986 249.148,65.515 247.378,65.515 C245.608,65.515 244.178,66.985 244.178,68.783 C244.178,70.552 245.608,72.022 247.378,72.022 C249.148,72.022 250.591,70.552 250.591,68.782 M259.984,68.783 C259.984,66.986 258.541,65.515 256.771,65.515 C255.001,65.515 253.572,66.985 253.572,68.783 C253.572,70.552 255.002,72.022 256.772,72.022 C258.542,72.022 259.984,70.552 259.984,68.782 M269.364,68.783 C269.364,66.986 267.921,65.515 266.165,65.515 C264.395,65.515 262.966,66.985 262.966,68.783 C262.966,70.552 264.394,72.022 266.166,72.022 C267.921,72.022 269.364,70.552 269.364,68.782 M278.758,68.783 C278.758,66.986 277.315,65.515 275.545,65.515 C273.788,65.515 272.345,66.985 272.345,68.783 C272.345,70.552 273.788,72.022 275.545,72.022 C277.315,72.022 278.758,70.552 278.758,68.782 M288.151,68.783 C288.151,66.986 286.721,65.515 284.938,65.515 C283.168,65.515 281.739,66.985 281.739,68.783 C281.739,70.552 283.169,72.022 284.939,72.022 C286.721,72.022 288.151,70.552 288.151,68.782 M297.545,68.783 C297.545,66.986 296.102,65.515 294.332,65.515 C292.562,65.515 291.132,66.985 291.132,68.783 C291.132,70.552 292.562,72.022 294.332,72.022 C296.102,72.022 297.545,70.552 297.545,68.782 M306.938,68.783 C306.938,66.986 305.495,65.515 303.725,65.515 C301.955,65.515 300.526,66.985 300.526,68.783 C300.526,70.552 301.956,72.022 303.726,72.022 C305.496,72.022 306.938,70.552 306.938,68.782 M316.318,68.783 C316.318,66.986 314.888,65.515 313.119,65.515 C311.349,65.515 309.92,66.985 309.92,68.783 C309.92,70.552 311.35,72.022 313.12,72.022 C314.888,72.022 316.318,70.552 316.318,68.782 M325.712,68.783 C325.712,66.986 324.282,65.515 322.512,65.515 C320.742,65.515 319.314,66.985 319.314,68.783 C319.314,70.552 320.742,72.022 322.513,72.022 C324.282,72.022 325.712,70.552 325.712,68.782 M335.105,68.783 C335.105,66.986 333.675,65.515 331.906,65.515 C330.136,65.515 328.693,66.985 328.693,68.783 C328.693,70.552 330.135,72.022 331.906,72.022 C333.676,72.022 335.106,70.552 335.106,68.782 M344.499,68.783 C344.499,66.986 343.069,65.515 341.299,65.515 C339.517,65.515 338.087,66.985 338.087,68.783 C338.087,70.552 339.517,72.022 341.3,72.022 C343.069,72.022 344.499,70.552 344.499,68.782" id="Shape" fill="#000000" fill-rule="nonzero"></path>
            </g>
        </g>
    </g>
</svg>