<?xml version="1.0" encoding="UTF-8"?>
<svg width="778px" height="108px" viewBox="0 0 778 108" version="1.1" xmlns="http://www.w3.org/2000/svg" xmlns:xlink="http://www.w3.org/1999/xlink">
    <!-- Generator: Sketch 47.1 (45422) - http://www.bohemiancoding.com/sketch -->
    <title>Group 3</title>
    <desc>Created with Sketch.</desc>
    <defs></defs>
    <g id="Page-1" stroke="none" stroke-width="1" fill="none" fill-rule="evenodd">
        <g id="hype-temp-2" transform="translate(-1.000000, -137.000000)">
            <g id="Group-27">
                <g id="Page-1">
                    <g id="Group-22">
                        <g id="IMFINZI" transform="translate(0.000000, 0.000000)">
                            <g id="Group">
                                <g id="Group-3" transform="translate(1.000000, 137.000000)">
                                    <path d="M199,28 L389.5,28" id="Path-11" stroke="#7CA2D5" stroke-width="4"></path>
                                    <path d="M199,80 L389.5,80" id="Path-11" stroke="#7CA2D5" stroke-width="4"></path>
                                    <rect id="Rectangle-19" fill="#AB1F2D" fill-rule="nonzero" x="0" y="-5.68434189e-14" width="200" height="108" rx="6"></rect>
                                    <path d="M39.765625,61 L36.4375,61 L36.4375,47.96875 L33.1914062,49.2226562 L33.1914062,46.4570312 L39.4140625,43.9140625 L39.765625,43.9140625 L39.765625,61 Z M54.6601562,61 L44.6054688,61 L44.6054688,58.65625 L49.2226562,52.7851562 C49.8085967,51.9726522 50.240233,51.2597687 50.5175781,50.6464844 C50.7949233,50.0332001 50.9335938,49.4453153 50.9335938,48.8828125 C50.9335938,48.1249962 50.8027357,47.5312521 50.5410156,47.1015625 C50.2792956,46.6718729 49.9023462,46.4570312 49.4101562,46.4570312 C48.8710911,46.4570312 48.443361,46.7070287 48.1269531,47.2070312 C47.8105453,47.7070337 47.6523438,48.4101517 47.6523438,49.3164062 L44.3242188,49.3164062 C44.3242188,48.269526 44.5410135,47.3125043 44.9746094,46.4453125 C45.4082053,45.5781207 46.0175742,44.9042993 46.8027344,44.4238281 C47.5878946,43.943357 48.4765575,43.703125 49.46875,43.703125 C50.9921951,43.703125 52.1738239,44.1230427 53.0136719,44.9628906 C53.8535198,45.8027386 54.2734375,46.996086 54.2734375,48.5429687 C54.2734375,49.5039111 54.0410179,50.4785107 53.5761719,51.4667969 C53.1113258,52.4550831 52.2695373,53.6718678 51.0507812,55.1171875 L48.859375,58.2460937 L54.6601562,58.2460937 L54.6601562,61 Z M62.8046875,55.0703125 L57.0742188,55.0703125 L57.0742188,52.3046875 L62.8046875,52.3046875 L62.8046875,55.0703125 Z M68.6757812,48.3203125 L68.7695312,49.4921875 C69.5117225,48.5546828 70.4921814,48.0859375 71.7109375,48.0859375 C72.9765688,48.0859375 73.8710911,48.6562443 74.3945312,49.796875 C75.1210974,48.6562443 76.1562433,48.0859375 77.5,48.0859375 C79.7187611,48.0859375 80.8554685,49.6210784 80.9101562,52.6914062 L80.9101562,61 L77.59375,61 L77.59375,52.9023437 C77.59375,52.1679651 77.4921885,51.6445328 77.2890625,51.3320312 C77.0859365,51.0195297 76.7421899,50.8632812 76.2578125,50.8632812 C75.6406219,50.8632812 75.179689,51.2421837 74.875,52 L74.8984375,52.3984375 L74.8984375,61 L71.5820312,61 L71.5820312,52.9257812 C71.5820312,52.1992151 71.484376,51.6738297 71.2890625,51.3496094 C71.093749,51.025389 70.7460962,50.8632812 70.2460938,50.8632812 C69.6757784,50.8632812 69.2226579,51.1718719 68.8867188,51.7890625 L68.8867188,61 L65.5703125,61 L65.5703125,48.3203125 L68.6757812,48.3203125 Z M82.9726562,54.25 C82.9726562,52.3281154 83.4257767,50.820318 84.3320312,49.7265625 C85.2382858,48.632807 86.4921795,48.0859375 88.09375,48.0859375 C89.7109456,48.0859375 90.9726517,48.632807 91.8789062,49.7265625 C92.7851608,50.820318 93.2382812,52.3359278 93.2382812,54.2734375 L93.2382812,55.0820312 C93.2382812,57.0117284 92.789067,58.5195258 91.890625,59.6054687 C90.992183,60.6914117 89.7343831,61.234375 88.1171875,61.234375 C86.4921794,61.234375 85.2285201,60.6894586 84.3261719,59.5996094 C83.4238236,58.5097602 82.9726562,56.9961034 82.9726562,55.0585937 L82.9726562,54.25 Z M86.3007812,55.0820312 C86.3007812,57.3476676 86.9062439,58.4804687 88.1171875,58.4804687 C89.2343806,58.4804687 89.8359371,57.5351657 89.921875,55.6445312 L89.9335938,54.25 C89.9335938,53.0937442 89.7734391,52.2363309 89.453125,51.6777344 C89.1328109,51.1191378 88.6796904,50.8398437 88.09375,50.8398437 C87.5312472,50.8398437 87.0917985,51.1191378 86.7753906,51.6777344 C86.4589828,52.2363309 86.3007812,53.0937442 86.3007812,54.25 L86.3007812,55.0820312 Z M98.3359375,48.3203125 L98.4296875,49.5742187 C99.1796912,48.5820263 100.16015,48.0859375 101.371094,48.0859375 C103.550792,48.0859375 104.671875,49.613266 104.734375,52.6679687 L104.734375,61 L101.40625,61 L101.40625,52.9140625 C101.40625,52.1953089 101.298829,51.6738297 101.083984,51.3496094 C100.86914,51.025389 100.49219,50.8632812 99.953125,50.8632812 C99.3515595,50.8632812 98.8828142,51.1718719 98.546875,51.7890625 L98.546875,61 L95.21875,61 L95.21875,48.3203125 L98.3359375,48.3203125 Z M110.96875,45.203125 L110.96875,48.3203125 L112.667969,48.3203125 L112.667969,50.8164062 L110.96875,50.8164062 L110.96875,57.109375 C110.96875,57.6093775 111.037109,57.9531241 111.173828,58.140625 C111.310548,58.3281259 111.574217,58.421875 111.964844,58.421875 C112.285158,58.421875 112.546874,58.3945315 112.75,58.3398437 L112.726562,60.9179687 C112.16406,61.1289073 111.554691,61.234375 110.898438,61.234375 C108.757802,61.234375 107.675781,60.0078248 107.652344,57.5546875 L107.652344,50.8164062 L106.1875,50.8164062 L106.1875,48.3203125 L107.652344,48.3203125 L107.652344,45.203125 L110.96875,45.203125 Z M117.71875,49.4335937 C118.437504,48.5351518 119.320307,48.0859375 120.367188,48.0859375 C121.523443,48.0859375 122.402341,48.4921834 123.003906,49.3046875 C123.605472,50.1171916 123.910156,51.328117 123.917969,52.9375 L123.917969,61 L120.589844,61 L120.589844,52.9726562 C120.589844,52.230465 120.474611,51.693361 120.244141,51.3613281 C120.013671,51.0292952 119.640628,50.8632812 119.125,50.8632812 C118.523434,50.8632812 118.054689,51.1406222 117.71875,51.6953125 L117.71875,61 L114.402344,61 L114.402344,43 L117.71875,43 L117.71875,49.4335937 Z M135.4375,55 L135.4375,61 L131.992188,61 L131.992188,43.9375 L137.804688,43.9375 C139.492196,43.9375 140.837886,44.4609323 141.841797,45.5078125 C142.845708,46.5546927 143.347656,47.9140541 143.347656,49.5859375 C143.347656,51.2578209 142.851567,52.5781202 141.859375,53.546875 C140.867183,54.5156298 139.492196,55 137.734375,55 L135.4375,55 Z M135.4375,52.1289062 L137.804688,52.1289062 C138.460941,52.1289062 138.968748,51.9140646 139.328125,51.484375 C139.687502,51.0546854 139.867188,50.4296916 139.867188,49.609375 C139.867188,48.7578082 139.683596,48.0800806 139.316406,47.5761719 C138.949217,47.0722631 138.457034,46.8164063 137.839844,46.8085937 L135.4375,46.8085937 L135.4375,52.1289062 Z M154.445312,54.0390625 L149.089844,54.0390625 L149.089844,61 L145.644531,61 L145.644531,43.9375 L155.089844,43.9375 L155.089844,46.8085937 L149.089844,46.8085937 L149.089844,51.1796875 L154.445312,51.1796875 L154.445312,54.0390625 Z M164.265625,56.5234375 C164.265625,55.8281215 164.087892,55.3027362 163.732422,54.9472656 C163.376951,54.5917951 162.730473,54.2226582 161.792969,53.8398437 C160.082023,53.191403 158.851566,52.431645 158.101562,51.5605469 C157.351559,50.6894488 156.976562,49.6601622 156.976562,48.4726562 C156.976562,47.0351491 157.486323,45.8808637 158.505859,45.0097656 C159.525396,44.1386675 160.820305,43.703125 162.390625,43.703125 C163.437505,43.703125 164.37109,43.9238259 165.191406,44.3652344 C166.011723,44.8066428 166.642576,45.4296835 167.083984,46.234375 C167.525393,47.0390665 167.746094,47.9531199 167.746094,48.9765625 L164.3125,48.9765625 C164.3125,48.1796835 164.14258,47.5722677 163.802734,47.1542969 C163.462889,46.736326 162.972659,46.5273437 162.332031,46.5273437 C161.730466,46.5273437 161.26172,46.7050763 160.925781,47.0605469 C160.589842,47.4160174 160.421875,47.8945282 160.421875,48.4960937 C160.421875,48.9648461 160.609373,49.38867 160.984375,49.7675781 C161.359377,50.1464863 162.023433,50.5390605 162.976562,50.9453125 C164.640633,51.546878 165.849606,52.2851519 166.603516,53.1601562 C167.357426,54.0351606 167.734375,55.1484307 167.734375,56.5 C167.734375,57.9843824 167.261723,59.1445271 166.316406,59.9804687 C165.371089,60.8164104 164.085946,61.234375 162.460938,61.234375 C161.359369,61.234375 160.355473,61.0078148 159.449219,60.5546875 C158.542964,60.1015602 157.833987,59.4531292 157.322266,58.609375 C156.810544,57.7656208 156.554688,56.769537 156.554688,55.6210937 L160.011719,55.6210937 C160.011719,56.6054737 160.203123,57.3203103 160.585938,57.765625 C160.968752,58.2109397 161.593746,58.4335937 162.460938,58.4335937 C163.664069,58.4335937 164.265625,57.7968814 164.265625,56.5234375 Z" id="12-month-PFS" fill="#FFFFFF"></path>
                                    <path d="M210.291992,45.0097656 L210.722656,40.046875 L215.049805,40.046875 L215.049805,41.2158203 L211.741211,41.2158203 L211.508789,43.9296875 C211.918947,43.6425767 212.361,43.4990234 212.834961,43.4990234 C213.609704,43.4990234 214.218097,43.7998017 214.660156,44.4013672 C215.102216,45.0029327 215.323242,45.8118439 215.323242,46.828125 C215.323242,47.8580781 215.082847,48.6669892 214.602051,49.2548828 C214.121254,49.8427764 213.461593,50.1367187 212.623047,50.1367187 C211.875647,50.1367187 211.267255,49.8929061 210.797852,49.4052734 C210.328448,48.9176408 210.059571,48.2431684 209.991211,47.3818359 L211.125977,47.3818359 C211.194336,47.9515002 211.357258,48.3810207 211.614746,48.6704102 C211.872234,48.9597996 212.208331,49.1044922 212.623047,49.1044922 C213.09245,49.1044922 213.459309,48.9005554 213.723633,48.4926758 C213.987957,48.0847961 214.120117,47.5345087 214.120117,46.8417969 C214.120117,46.1901009 213.977703,45.6591817 213.692871,45.2490234 C213.408039,44.8388651 213.024091,44.6337891 212.541016,44.6337891 C212.139972,44.6337891 211.818686,44.7386057 211.577148,44.9482422 L211.255859,45.2695312 L210.291992,45.0097656 Z M217.203125,45.0097656 L217.633789,40.046875 L221.960938,40.046875 L221.960938,41.2158203 L218.652344,41.2158203 L218.419922,43.9296875 C218.83008,43.6425767 219.272133,43.4990234 219.746094,43.4990234 C220.520837,43.4990234 221.12923,43.7998017 221.571289,44.4013672 C222.013349,45.0029327 222.234375,45.8118439 222.234375,46.828125 C222.234375,47.8580781 221.99398,48.6669892 221.513184,49.2548828 C221.032387,49.8427764 220.372726,50.1367187 219.53418,50.1367187 C218.78678,50.1367187 218.178388,49.8929061 217.708984,49.4052734 C217.239581,48.9176408 216.970703,48.2431684 216.902344,47.3818359 L218.037109,47.3818359 C218.105469,47.9515002 218.268391,48.3810207 218.525879,48.6704102 C218.783367,48.9597996 219.119464,49.1044922 219.53418,49.1044922 C220.003583,49.1044922 220.370441,48.9005554 220.634766,48.4926758 C220.89909,48.0847961 221.03125,47.5345087 221.03125,46.8417969 C221.03125,46.1901009 220.888836,45.6591817 220.604004,45.2490234 C220.319172,44.8388651 219.935224,44.6337891 219.452148,44.6337891 C219.051105,44.6337891 218.729819,44.7386057 218.488281,44.9482422 L218.166992,45.2695312 L217.203125,45.0097656 Z M223.806641,49.3369141 C223.806641,49.118163 223.871581,48.9358731 224.001465,48.7900391 C224.131348,48.644205 224.326171,48.5712891 224.585938,48.5712891 C224.845704,48.5712891 225.042805,48.644205 225.177246,48.7900391 C225.311687,48.9358731 225.378906,49.118163 225.378906,49.3369141 C225.378906,49.5465505 225.311687,49.7220045 225.177246,49.8632812 C225.042805,50.004558 224.845704,50.0751953 224.585938,50.0751953 C224.326171,50.0751953 224.131348,50.004558 224.001465,49.8632812 C223.871581,49.7220045 223.806641,49.5465505 223.806641,49.3369141 Z M231.285156,45.7480469 C230.802081,46.3632843 230.236982,46.6708984 229.589844,46.6708984 C228.865231,46.6708984 228.288739,46.3655629 227.860352,45.7548828 C227.431964,45.1442027 227.217773,44.344406 227.217773,43.3554687 C227.217773,42.3164011 227.451332,41.482425 227.918457,40.8535156 C228.385582,40.2246062 229.022457,39.9101562 229.829102,39.9101562 C230.667647,39.9101562 231.322752,40.2735966 231.794434,41.0004883 C232.266116,41.7273799 232.501953,42.733392 232.501953,44.0185547 L232.501953,44.3945312 C232.501953,45.4974013 232.418783,46.3906216 232.252441,47.0742187 C232.086099,47.7578159 231.841147,48.3092427 231.517578,48.7285156 C231.194009,49.1477886 230.781578,49.4656565 230.280273,49.6821289 C229.778969,49.8986013 229.152348,50.0068359 228.400391,50.0068359 L228.400391,48.9404297 L228.612305,48.9404297 C229.46908,48.9222004 230.119627,48.6612981 230.563965,48.1577148 C231.008303,47.6541316 231.248698,46.850917 231.285156,45.7480469 Z M229.794922,45.625 C230.08659,45.625 230.371418,45.5030937 230.649414,45.2592773 C230.92741,45.015461 231.143879,44.6953145 231.298828,44.2988281 L231.298828,43.765625 C231.298828,42.9407511 231.155275,42.267418 230.868164,41.7456055 C230.581053,41.223793 230.234703,40.9628906 229.829102,40.9628906 C229.391599,40.9628906 229.044109,41.1782205 228.786621,41.6088867 C228.529133,42.0395529 228.400391,42.5989549 228.400391,43.2871094 C228.400391,43.9752639 228.525715,44.5369444 228.776367,44.972168 C229.027019,45.4073915 229.366534,45.625 229.794922,45.625 Z M234.149414,41.9609375 C234.149414,41.3684866 234.310057,40.8774434 234.631348,40.487793 C234.952638,40.0981426 235.370766,39.9033203 235.885742,39.9033203 C236.396161,39.9033203 236.814289,40.0947246 237.140137,40.4775391 C237.465985,40.8603535 237.628906,41.3639292 237.628906,41.9882812 L237.628906,42.4873047 C237.628906,43.0843129 237.468263,43.5742168 237.146973,43.9570312 C236.825682,44.3398457 236.409833,44.53125 235.899414,44.53125 C235.388995,44.53125 234.969728,44.3398457 234.641602,43.9570312 C234.313475,43.5742168 234.149414,43.0706411 234.149414,42.4462891 L234.149414,41.9609375 Z M235.03125,42.4873047 C235.03125,42.8518898 235.111002,43.1469715 235.270508,43.3725586 C235.430014,43.5981457 235.639647,43.7109375 235.899414,43.7109375 C236.150066,43.7109375 236.354003,43.6004243 236.51123,43.3793945 C236.668458,43.1583648 236.74707,42.85189 236.74707,42.4599609 L236.74707,41.9609375 C236.74707,41.591795 236.667319,41.2944347 236.507812,41.0688477 C236.348306,40.8432606 236.140952,40.7304687 235.885742,40.7304687 C235.625975,40.7304687 235.418621,40.8443999 235.263672,41.0722656 C235.108723,41.3001313 235.03125,41.6031882 235.03125,41.9814453 L235.03125,42.4873047 Z M238.168945,47.5595703 C238.168945,46.9625621 238.330728,46.4715189 238.654297,46.0864258 C238.977866,45.7013327 239.394854,45.5087891 239.905273,45.5087891 C240.415693,45.5087891 240.834959,45.7001934 241.163086,46.0830078 C241.491213,46.4658222 241.655273,46.9739552 241.655273,47.6074219 L241.655273,48.0927734 C241.655273,48.6943389 241.491213,49.1865215 241.163086,49.5693359 C240.834959,49.9521504 240.42025,50.1435547 239.918945,50.1435547 C239.408526,50.1435547 238.989259,49.9521504 238.661133,49.5693359 C238.333006,49.1865215 238.168945,48.6829458 238.168945,48.0585937 L238.168945,47.5595703 Z M239.050781,48.0927734 C239.050781,48.4619159 239.130533,48.7592762 239.290039,48.9848633 C239.449545,49.2104503 239.659178,49.3232422 239.918945,49.3232422 C240.174155,49.3232422 240.379231,49.209311 240.53418,48.9814453 C240.689128,48.7535796 240.766602,48.4505227 240.766602,48.0722656 L240.766602,47.5595703 C240.766602,47.1904278 240.68685,46.8942068 240.527344,46.6708984 C240.367838,46.44759 240.160483,46.3359375 239.905273,46.3359375 C239.654621,46.3359375 239.449545,46.4464507 239.290039,46.6674805 C239.130533,46.8885102 239.050781,47.1927064 239.050781,47.5800781 L239.050781,48.0927734 Z M236.145508,49.2480469 L235.482422,48.796875 L239.563477,41.0175781 L240.233398,41.46875 L236.145508,49.2480469 Z M251.902344,47.8740234 L253.023438,42.6035156 L254.219727,42.6035156 L252.408203,50 L251.444336,50 L250.001953,44.7089844 L248.59375,50 L247.623047,50 L245.825195,42.6035156 L247.014648,42.6035156 L248.163086,47.7441406 L249.537109,42.6035156 L250.494141,42.6035156 L251.902344,47.8740234 Z M256.790039,50 L255.580078,50 L255.580078,42.6035156 L256.790039,42.6035156 L256.790039,50 Z M256.885742,40.6416016 C256.885742,40.8466807 256.828777,41.0175774 256.714844,41.1542969 C256.600911,41.2910163 256.427736,41.359375 256.195312,41.359375 C255.967447,41.359375 255.79655,41.2910163 255.682617,41.1542969 C255.568684,41.0175774 255.511719,40.8466807 255.511719,40.6416016 C255.511719,40.4365224 255.568684,40.2633471 255.682617,40.1220703 C255.79655,39.9807936 255.967447,39.9101562 256.195312,39.9101562 C256.423178,39.9101562 256.595214,39.9819329 256.711426,40.1254883 C256.827637,40.2690437 256.885742,40.4410797 256.885742,40.6416016 Z M260.276367,40.8125 L260.276367,42.6035156 L261.390625,42.6035156 L261.390625,43.5810547 L260.276367,43.5810547 L260.276367,48.1679687 C260.276367,48.4596369 260.324218,48.6806633 260.419922,48.8310547 C260.515625,48.9814461 260.679686,49.0566406 260.912109,49.0566406 C261.071615,49.0566406 261.233398,49.0292971 261.397461,48.9746094 L261.383789,50 C261.11035,50.0911463 260.83008,50.1367187 260.542969,50.1367187 C260.064451,50.1367187 259.699871,49.965822 259.449219,49.6240234 C259.198566,49.2822249 259.073242,48.7991568 259.073242,48.1748047 L259.073242,43.5810547 L257.945312,43.5810547 L257.945312,42.6035156 L259.073242,42.6035156 L259.073242,40.8125 L260.276367,40.8125 Z M264.036133,43.3623047 C264.496422,42.7652965 265.084306,42.4667969 265.799805,42.4667969 C267.107754,42.4667969 267.770833,43.3395095 267.789062,45.0849609 L267.789062,50 L266.585938,50 L266.585938,45.1396484 C266.585938,44.5608695 266.489096,44.149578 266.29541,43.9057617 C266.101724,43.6619454 265.8112,43.5400391 265.423828,43.5400391 C265.123045,43.5400391 264.853029,43.6402985 264.61377,43.8408203 C264.374511,44.0413421 264.181967,44.3033838 264.036133,44.6269531 L264.036133,50 L262.826172,50 L262.826172,39.5 L264.036133,39.5 L264.036133,43.3623047 Z M274.269531,50 L273.018555,50 L273.018555,40.046875 L274.269531,40.046875 L274.269531,50 Z M278.077148,40.046875 L280.674805,48.1679687 L283.272461,40.046875 L284.885742,40.046875 L284.885742,50 L283.634766,50 L283.634766,46.1240234 L283.750977,42.2412109 L281.146484,50 L280.189453,50 L277.598633,42.2685547 L277.714844,46.1240234 L277.714844,50 L276.463867,50 L276.463867,40.046875 L278.077148,40.046875 Z M291.65332,45.6044922 L288.290039,45.6044922 L288.290039,50 L287.039062,50 L287.039062,40.046875 L292.220703,40.046875 L292.220703,41.1269531 L288.290039,41.1269531 L288.290039,44.53125 L291.65332,44.53125 L291.65332,45.6044922 Z M295.071289,50 L293.820312,50 L293.820312,40.046875 L295.071289,40.046875 L295.071289,50 Z M303.766602,50 L302.508789,50 L298.523438,42.3300781 L298.523438,50 L297.265625,50 L297.265625,40.046875 L298.523438,40.046875 L302.522461,47.7509766 L302.522461,40.046875 L303.766602,40.046875 L303.766602,50 Z M306.870117,48.9267578 L311.59375,48.9267578 L311.59375,50 L305.482422,50 L305.482422,49.015625 L310.014648,41.1269531 L305.530273,41.1269531 L305.530273,40.046875 L311.40918,40.046875 L311.40918,41.0107422 L306.870117,48.9267578 Z M314.553711,50 L313.302734,50 L313.302734,40.046875 L314.553711,40.046875 L314.553711,50 Z" id="55.9%-with-IMFINZI" fill="#000000"></path>
                                    <path d="M211.344727,60.4082031 L212.117188,60.4082031 C212.613935,60.4082031 212.996743,60.2555354 213.265625,59.9501953 C213.534507,59.6448552 213.668945,59.2278672 213.668945,58.6992187 C213.668945,57.5325462 213.217778,56.9492187 212.31543,56.9492187 C211.882485,56.9492187 211.54297,57.1064437 211.296875,57.4208984 C211.05078,57.7353531 210.927734,58.1477839 210.927734,58.6582031 L209.724609,58.6582031 C209.724609,57.8606731 209.967283,57.2032903 210.452637,56.6860352 C210.937991,56.16878 211.558915,55.9101562 212.31543,55.9101562 C213.099288,55.9101562 213.721352,56.1551082 214.181641,56.6450195 C214.641929,57.1349308 214.87207,57.8287716 214.87207,58.7265625 C214.87207,59.1868513 214.752443,59.6163717 214.513184,60.0151367 C214.273925,60.4139017 213.962893,60.7067048 213.580078,60.8935547 C214.518885,61.2399106 214.988281,62.016921 214.988281,63.2246094 C214.988281,64.1132857 214.741051,64.8207981 214.246582,65.347168 C213.752113,65.8735378 213.106124,66.1367187 212.308594,66.1367187 C211.520178,66.1367187 210.883303,65.8872095 210.397949,65.3881836 C209.912595,64.8891577 209.669922,64.2181032 209.669922,63.375 L210.879883,63.375 C210.879883,63.9036485 211.007486,64.3240544 211.262695,64.6362305 C211.517905,64.9484065 211.866534,65.1044922 212.308594,65.1044922 C212.759768,65.1044922 213.118651,64.9518244 213.385254,64.6464844 C213.651857,64.3411443 213.785156,63.8763052 213.785156,63.2519531 C213.785156,62.0442648 213.213222,61.4404297 212.069336,61.4404297 L211.344727,61.4404297 L211.344727,60.4082031 Z M217.203125,61.0097656 L217.633789,56.046875 L221.960938,56.046875 L221.960938,57.2158203 L218.652344,57.2158203 L218.419922,59.9296875 C218.83008,59.6425767 219.272133,59.4990234 219.746094,59.4990234 C220.520837,59.4990234 221.12923,59.7998017 221.571289,60.4013672 C222.013349,61.0029327 222.234375,61.8118439 222.234375,62.828125 C222.234375,63.8580781 221.99398,64.6669892 221.513184,65.2548828 C221.032387,65.8427764 220.372726,66.1367187 219.53418,66.1367187 C218.78678,66.1367187 218.178388,65.8929061 217.708984,65.4052734 C217.239581,64.9176408 216.970703,64.2431684 216.902344,63.3818359 L218.037109,63.3818359 C218.105469,63.9515002 218.268391,64.3810207 218.525879,64.6704102 C218.783367,64.9597996 219.119464,65.1044922 219.53418,65.1044922 C220.003583,65.1044922 220.370441,64.9005554 220.634766,64.4926758 C220.89909,64.0847961 221.03125,63.5345087 221.03125,62.8417969 C221.03125,62.1901009 220.888836,61.6591817 220.604004,61.2490234 C220.319172,60.8388651 219.935224,60.6337891 219.452148,60.6337891 C219.051105,60.6337891 218.729819,60.7386057 218.488281,60.9482422 L218.166992,61.2695312 L217.203125,61.0097656 Z M223.806641,65.3369141 C223.806641,65.118163 223.871581,64.9358731 224.001465,64.7900391 C224.131348,64.644205 224.326171,64.5712891 224.585938,64.5712891 C224.845704,64.5712891 225.042805,64.644205 225.177246,64.7900391 C225.311687,64.9358731 225.378906,65.118163 225.378906,65.3369141 C225.378906,65.5465505 225.311687,65.7220045 225.177246,65.8632812 C225.042805,66.004558 224.845704,66.0751953 224.585938,66.0751953 C224.326171,66.0751953 224.131348,66.004558 224.001465,65.8632812 C223.871581,65.7220045 223.806641,65.5465505 223.806641,65.3369141 Z M228.851562,60.4082031 L229.624023,60.4082031 C230.120771,60.4082031 230.503579,60.2555354 230.772461,59.9501953 C231.041342,59.6448552 231.175781,59.2278672 231.175781,58.6992187 C231.175781,57.5325462 230.724614,56.9492187 229.822266,56.9492187 C229.389321,56.9492187 229.049806,57.1064437 228.803711,57.4208984 C228.557616,57.7353531 228.43457,58.1477839 228.43457,58.6582031 L227.231445,58.6582031 C227.231445,57.8606731 227.474119,57.2032903 227.959473,56.6860352 C228.444827,56.16878 229.065751,55.9101562 229.822266,55.9101562 C230.606124,55.9101562 231.228188,56.1551082 231.688477,56.6450195 C232.148765,57.1349308 232.378906,57.8287716 232.378906,58.7265625 C232.378906,59.1868513 232.259279,59.6163717 232.02002,60.0151367 C231.780761,60.4139017 231.469728,60.7067048 231.086914,60.8935547 C232.025721,61.2399106 232.495117,62.016921 232.495117,63.2246094 C232.495117,64.1132857 232.247887,64.8207981 231.753418,65.347168 C231.258949,65.8735378 230.61296,66.1367187 229.81543,66.1367187 C229.027014,66.1367187 228.390139,65.8872095 227.904785,65.3881836 C227.419431,64.8891577 227.176758,64.2181032 227.176758,63.375 L228.386719,63.375 C228.386719,63.9036485 228.514322,64.3240544 228.769531,64.6362305 C229.024741,64.9484065 229.37337,65.1044922 229.81543,65.1044922 C230.266604,65.1044922 230.625487,64.9518244 230.89209,64.6464844 C231.158693,64.3411443 231.291992,63.8763052 231.291992,63.2519531 C231.291992,62.0442648 230.720058,61.4404297 229.576172,61.4404297 L228.851562,61.4404297 L228.851562,60.4082031 Z M234.149414,57.9609375 C234.149414,57.3684866 234.310057,56.8774434 234.631348,56.487793 C234.952638,56.0981426 235.370766,55.9033203 235.885742,55.9033203 C236.396161,55.9033203 236.814289,56.0947246 237.140137,56.4775391 C237.465985,56.8603535 237.628906,57.3639292 237.628906,57.9882812 L237.628906,58.4873047 C237.628906,59.0843129 237.468263,59.5742168 237.146973,59.9570312 C236.825682,60.3398457 236.409833,60.53125 235.899414,60.53125 C235.388995,60.53125 234.969728,60.3398457 234.641602,59.9570312 C234.313475,59.5742168 234.149414,59.0706411 234.149414,58.4462891 L234.149414,57.9609375 Z M235.03125,58.4873047 C235.03125,58.8518898 235.111002,59.1469715 235.270508,59.3725586 C235.430014,59.5981457 235.639647,59.7109375 235.899414,59.7109375 C236.150066,59.7109375 236.354003,59.6004243 236.51123,59.3793945 C236.668458,59.1583648 236.74707,58.85189 236.74707,58.4599609 L236.74707,57.9609375 C236.74707,57.591795 236.667319,57.2944347 236.507812,57.0688477 C236.348306,56.8432606 236.140952,56.7304687 235.885742,56.7304687 C235.625975,56.7304687 235.418621,56.8443999 235.263672,57.0722656 C235.108723,57.3001313 235.03125,57.6031882 235.03125,57.9814453 L235.03125,58.4873047 Z M238.168945,63.5595703 C238.168945,62.9625621 238.330728,62.4715189 238.654297,62.0864258 C238.977866,61.7013327 239.394854,61.5087891 239.905273,61.5087891 C240.415693,61.5087891 240.834959,61.7001934 241.163086,62.0830078 C241.491213,62.4658222 241.655273,62.9739552 241.655273,63.6074219 L241.655273,64.0927734 C241.655273,64.6943389 241.491213,65.1865215 241.163086,65.5693359 C240.834959,65.9521504 240.42025,66.1435547 239.918945,66.1435547 C239.408526,66.1435547 238.989259,65.9521504 238.661133,65.5693359 C238.333006,65.1865215 238.168945,64.6829458 238.168945,64.0585937 L238.168945,63.5595703 Z M239.050781,64.0927734 C239.050781,64.4619159 239.130533,64.7592762 239.290039,64.9848633 C239.449545,65.2104503 239.659178,65.3232422 239.918945,65.3232422 C240.174155,65.3232422 240.379231,65.209311 240.53418,64.9814453 C240.689128,64.7535796 240.766602,64.4505227 240.766602,64.0722656 L240.766602,63.5595703 C240.766602,63.1904278 240.68685,62.8942068 240.527344,62.6708984 C240.367838,62.44759 240.160483,62.3359375 239.905273,62.3359375 C239.654621,62.3359375 239.449545,62.4464507 239.290039,62.6674805 C239.130533,62.8885102 239.050781,63.1927064 239.050781,63.5800781 L239.050781,64.0927734 Z M236.145508,65.2480469 L235.482422,64.796875 L239.563477,57.0175781 L240.233398,57.46875 L236.145508,65.2480469 Z M251.902344,63.8740234 L253.023438,58.6035156 L254.219727,58.6035156 L252.408203,66 L251.444336,66 L250.001953,60.7089844 L248.59375,66 L247.623047,66 L245.825195,58.6035156 L247.014648,58.6035156 L248.163086,63.7441406 L249.537109,58.6035156 L250.494141,58.6035156 L251.902344,63.8740234 Z M256.790039,66 L255.580078,66 L255.580078,58.6035156 L256.790039,58.6035156 L256.790039,66 Z M256.885742,56.6416016 C256.885742,56.8466807 256.828777,57.0175774 256.714844,57.1542969 C256.600911,57.2910163 256.427736,57.359375 256.195312,57.359375 C255.967447,57.359375 255.79655,57.2910163 255.682617,57.1542969 C255.568684,57.0175774 255.511719,56.8466807 255.511719,56.6416016 C255.511719,56.4365224 255.568684,56.2633471 255.682617,56.1220703 C255.79655,55.9807936 255.967447,55.9101562 256.195312,55.9101562 C256.423178,55.9101562 256.595214,55.9819329 256.711426,56.1254883 C256.827637,56.2690437 256.885742,56.4410797 256.885742,56.6416016 Z M260.276367,56.8125 L260.276367,58.6035156 L261.390625,58.6035156 L261.390625,59.5810547 L260.276367,59.5810547 L260.276367,64.1679687 C260.276367,64.4596369 260.324218,64.6806633 260.419922,64.8310547 C260.515625,64.9814461 260.679686,65.0566406 260.912109,65.0566406 C261.071615,65.0566406 261.233398,65.0292971 261.397461,64.9746094 L261.383789,66 C261.11035,66.0911463 260.83008,66.1367187 260.542969,66.1367187 C260.064451,66.1367187 259.699871,65.965822 259.449219,65.6240234 C259.198566,65.2822249 259.073242,64.7991568 259.073242,64.1748047 L259.073242,59.5810547 L257.945312,59.5810547 L257.945312,58.6035156 L259.073242,58.6035156 L259.073242,56.8125 L260.276367,56.8125 Z M264.036133,59.3623047 C264.496422,58.7652965 265.084306,58.4667969 265.799805,58.4667969 C267.107754,58.4667969 267.770833,59.3395095 267.789062,61.0849609 L267.789062,66 L266.585938,66 L266.585938,61.1396484 C266.585938,60.5608695 266.489096,60.149578 266.29541,59.9057617 C266.101724,59.6619454 265.8112,59.5400391 265.423828,59.5400391 C265.123045,59.5400391 264.853029,59.6402985 264.61377,59.8408203 C264.374511,60.0413421 264.181967,60.3033838 264.036133,60.6269531 L264.036133,66 L262.826172,66 L262.826172,55.5 L264.036133,55.5 L264.036133,59.3623047 Z M278.138672,62.6572266 C278.138672,63.8284564 277.927899,64.701169 277.506348,65.2753906 C277.084796,65.8496122 276.488936,66.1367187 275.71875,66.1367187 C274.975908,66.1367187 274.403973,65.8564481 274.00293,65.2958984 L274.00293,68.84375 L272.799805,68.84375 L272.799805,58.6035156 L273.893555,58.6035156 L273.955078,59.4238281 C274.360679,58.7858041 274.941728,58.4667969 275.698242,58.4667969 C276.509444,58.4667969 277.115558,58.7493461 277.516602,59.3144531 C277.917645,59.8795601 278.125,60.7249293 278.138672,61.8505859 L278.138672,62.6572266 Z M276.935547,61.9667969 C276.935547,61.1373656 276.807944,60.5255554 276.552734,60.1313477 C276.297525,59.73714 275.887373,59.5400391 275.322266,59.5400391 C274.743487,59.5400391 274.303712,59.8294242 274.00293,60.4082031 L274.00293,64.2568359 C274.299155,64.8219429 274.743487,65.1044922 275.335938,65.1044922 C275.882815,65.1044922 276.284992,64.9073913 276.54248,64.5131836 C276.799969,64.1189759 276.93099,63.5162801 276.935547,62.7050781 L276.935547,61.9667969 Z M281.00293,66 L279.792969,66 L279.792969,55.5 L281.00293,55.5 L281.00293,66 Z M286.710938,66 C286.63802,65.840494 286.585612,65.5716165 286.553711,65.1933594 C286.125323,65.8222688 285.578454,66.1367187 284.913086,66.1367187 C284.243161,66.1367187 283.720217,65.9487323 283.344238,65.5727539 C282.96826,65.1967755 282.780273,64.6669956 282.780273,63.9833984 C282.780273,63.2314416 283.035479,62.6344423 283.545898,62.1923828 C284.056318,61.7503233 284.755855,61.5247396 285.644531,61.515625 L286.533203,61.515625 L286.533203,60.7294922 C286.533203,60.2874327 286.435222,59.9729827 286.239258,59.7861328 C286.043293,59.5992829 285.744794,59.5058594 285.34375,59.5058594 C284.979165,59.5058594 284.682944,59.614094 284.455078,59.8305664 C284.227212,60.0470388 284.113281,60.3216129 284.113281,60.6542969 L282.90332,60.6542969 C282.90332,60.2760398 283.014973,59.914878 283.238281,59.5708008 C283.46159,59.2267235 283.762368,58.9567067 284.140625,58.7607422 C284.518882,58.5647777 284.940427,58.4667969 285.405273,58.4667969 C286.161788,58.4667969 286.73714,58.6547833 287.131348,59.0307617 C287.525555,59.4067402 287.727213,59.954749 287.736328,60.6748047 L287.736328,64.4072266 C287.740885,64.9768909 287.818359,65.4713521 287.96875,65.890625 L287.96875,66 L286.710938,66 Z M285.097656,65.0361328 C285.393882,65.0361328 285.676431,64.9541024 285.945312,64.7900391 C286.214194,64.6259757 286.410156,64.4208997 286.533203,64.1748047 L286.533203,62.4111328 L285.849609,62.4111328 C285.275388,62.4202474 284.821942,62.5489896 284.489258,62.7973633 C284.156574,63.0457369 283.990234,63.3932269 283.990234,63.8398437 C283.990234,64.2591167 284.074543,64.5633129 284.243164,64.7524414 C284.411785,64.94157 284.696613,65.0361328 285.097656,65.0361328 Z M292.179688,65.1044922 C292.580731,65.1044922 292.902017,64.9803072 293.143555,64.7319336 C293.385092,64.48356 293.517252,64.1292341 293.540039,63.6689453 L294.681641,63.6689453 C294.654297,64.3798864 294.402509,64.9689104 293.92627,65.4360352 C293.45003,65.9031599 292.867842,66.1367187 292.179688,66.1367187 C291.263667,66.1367187 290.565269,65.8484729 290.084473,65.2719727 C289.603676,64.6954724 289.363281,63.8375708 289.363281,62.6982422 L289.363281,61.8847656 C289.363281,60.7682236 289.602537,59.9194365 290.081055,59.3383789 C290.559573,58.7573213 291.256831,58.4667969 292.172852,58.4667969 C292.929366,58.4667969 293.529783,58.7060523 293.974121,59.1845703 C294.418459,59.6630883 294.654297,60.3170531 294.681641,61.1464844 L293.540039,61.1464844 C293.512695,60.5996066 293.381674,60.1894545 293.146973,59.9160156 C292.912271,59.6425768 292.587567,59.5058594 292.172852,59.5058594 C291.635088,59.5058594 291.236329,59.6824527 290.976562,60.0356445 C290.716796,60.3888364 290.582357,60.968746 290.573242,61.7753906 L290.573242,62.71875 C290.573242,63.5891971 290.701984,64.2044253 290.959473,64.5644531 C291.216961,64.924481 291.623695,65.1044922 292.179688,65.1044922 Z M298.72168,66.1367187 C297.801102,66.1367187 297.094729,65.8621447 296.602539,65.3129883 C296.110349,64.7638319 295.859701,63.9583386 295.850586,62.8964844 L295.850586,62.0009766 C295.850586,60.8981065 296.090981,60.033369 296.571777,59.4067383 C297.052574,58.7801075 297.723629,58.4667969 298.584961,58.4667969 C299.450851,58.4667969 300.09798,58.7425103 300.526367,59.2939453 C300.954755,59.8453804 301.173503,60.7044212 301.182617,61.8710937 L301.182617,62.6640625 L297.053711,62.6640625 L297.053711,62.8349609 C297.053711,63.6279337 297.202961,64.2044253 297.501465,64.5644531 C297.799969,64.924481 298.229489,65.1044922 298.790039,65.1044922 C299.14551,65.1044922 299.45882,65.0372728 299.72998,64.902832 C300.001141,64.7683913 300.255207,64.55534 300.492188,64.2636719 L301.121094,65.0292969 C300.597003,65.7675818 299.797206,66.1367187 298.72168,66.1367187 Z M298.584961,59.5058594 C298.083656,59.5058594 297.712241,59.6778954 297.470703,60.0219727 C297.229165,60.3660499 297.092448,60.900387 297.060547,61.625 L299.972656,61.625 L299.972656,61.4609375 C299.940755,60.7591111 299.814291,60.257814 299.593262,59.9570312 C299.372232,59.6562485 299.036135,59.5058594 298.584961,59.5058594 Z M307.991211,62.6572266 C307.991211,63.8102271 307.783856,64.6783825 307.369141,65.2617187 C306.954425,65.845055 306.352869,66.1367187 305.564453,66.1367187 C304.780595,66.1367187 304.19271,65.7994825 303.800781,65.125 L303.739258,66 L302.638672,66 L302.638672,55.5 L303.841797,55.5 L303.841797,59.4169922 C304.238283,58.7835255 304.807939,58.4667969 305.550781,58.4667969 C306.361983,58.4667969 306.970376,58.7539034 307.375977,59.328125 C307.781578,59.9023466 307.986654,60.7682234 307.991211,61.9257812 L307.991211,62.6572266 Z M306.788086,61.9667969 C306.788086,61.0917925 306.66618,60.4685891 306.422363,60.097168 C306.178547,59.7257468 305.783206,59.5400391 305.236328,59.5400391 C304.611976,59.5400391 304.147137,59.8772753 303.841797,60.5517578 L303.841797,64.0722656 C304.14258,64.7376335 304.611976,65.0703125 305.25,65.0703125 C305.796878,65.0703125 306.188801,64.8789082 306.425781,64.4960937 C306.662762,64.1132793 306.783529,63.5185587 306.788086,62.7119141 L306.788086,61.9667969 Z M309.283203,61.9599609 C309.283203,60.8844347 309.544105,60.033369 310.065918,59.4067383 C310.58773,58.7801075 311.277014,58.4667969 312.133789,58.4667969 C312.990564,58.4667969 313.679848,58.7721324 314.20166,59.3828125 C314.723473,59.9934926 314.991211,60.82519 315.004883,61.8779297 L315.004883,62.6572266 C315.004883,63.7281955 314.74512,64.5758432 314.225586,65.2001953 C313.706052,65.8245474 313.013351,66.1367187 312.147461,66.1367187 C311.290686,66.1367187 310.603681,65.8336619 310.086426,65.2275391 C309.569171,64.6214162 309.301432,63.8011119 309.283203,62.7666016 L309.283203,61.9599609 Z M310.493164,62.6572266 C310.493164,63.4182981 310.642414,64.0164366 310.940918,64.4516602 C311.239422,64.8868837 311.641599,65.1044922 312.147461,65.1044922 C313.213873,65.1044922 313.763021,64.3343176 313.794922,62.7939453 L313.794922,61.9599609 C313.794922,61.2034467 313.644533,60.6053082 313.34375,60.1655273 C313.042967,59.7257465 312.639651,59.5058594 312.133789,59.5058594 C311.637042,59.5058594 311.239422,59.7257465 310.940918,60.1655273 C310.642414,60.6053082 310.493164,61.2011681 310.493164,61.953125 L310.493164,62.6572266 Z" id="35.3%-with-placebo" fill="#000000"></path>
                                    <path d="M319.664551,61.9174805 L318.214356,61.9174805 L318.214356,66 L317.436524,66 L317.436524,61.9174805 L316.012696,61.9174805 L316.012696,61.2451172 L317.436524,61.2451172 L317.436524,59.6015625 L318.214356,59.6015625 L318.214356,61.2451172 L319.664551,61.2451172 L319.664551,61.9174805 Z M322.837403,66 L322.055176,66 L322.055176,60.581543 L320.710449,61.1835937 L320.710449,60.4453125 L322.714356,59.5708008 L322.837403,59.5708008 L322.837403,66 Z M328.541504,66 L324.964356,66 L324.964356,65.4155273 L326.788086,62.9985352 C327.063478,62.626463 327.254638,62.3210461 327.361572,62.0822754 C327.468507,61.8435047 327.521973,61.5908216 327.521973,61.3242187 C327.521973,60.9843733 327.442872,60.7089854 327.284668,60.4980469 C327.126464,60.2871083 326.918459,60.1816406 326.660645,60.1816406 C326.335448,60.1816406 326.08423,60.2937001 325.906983,60.5178223 C325.729736,60.7419445 325.641113,61.0649393 325.641113,61.4868164 L324.863281,61.4868164 C324.863281,60.8979463 325.024413,60.4218768 325.34668,60.0585937 C325.668947,59.6953107 326.106931,59.5136719 326.660645,59.5136719 C327.170413,59.5136719 327.571776,59.6696762 327.864746,59.9816895 C328.157716,60.2937027 328.304199,60.7089818 328.304199,61.2275391 C328.304199,61.8603547 327.974613,62.6088824 327.31543,63.4731445 L325.891602,65.3364258 L328.541504,65.3364258 L328.541504,66 Z" id="†12" fill="#000000"></path>
                                    <path d="M602.379883,46.6572266 L603.487305,46.6572266 L603.487305,47.6894531 L602.379883,47.6894531 L602.379883,50 L601.169922,50 L601.169922,47.6894531 L597.410156,47.6894531 L597.410156,46.9443359 L601.108398,40.046875 L602.379883,40.046875 L602.379883,46.6572266 Z M598.75,46.6572266 L601.169922,46.6572266 L601.169922,41.9267578 L598.75,46.6572266 Z M609.291016,46.6572266 L610.398438,46.6572266 L610.398438,47.6894531 L609.291016,47.6894531 L609.291016,50 L608.081055,50 L608.081055,47.6894531 L604.321289,47.6894531 L604.321289,46.9443359 L608.019531,40.046875 L609.291016,40.046875 L609.291016,46.6572266 Z M605.661133,46.6572266 L608.081055,46.6572266 L608.081055,41.9267578 L605.661133,46.6572266 Z M611.806641,49.3369141 C611.806641,49.118163 611.871581,48.9358731 612.001465,48.7900391 C612.131348,48.644205 612.326171,48.5712891 612.585938,48.5712891 C612.845704,48.5712891 613.042805,48.644205 613.177246,48.7900391 C613.311687,48.9358731 613.378906,49.118163 613.378906,49.3369141 C613.378906,49.5465505 613.311687,49.7220045 613.177246,49.8632812 C613.042805,50.004558 612.845704,50.0751953 612.585938,50.0751953 C612.326171,50.0751953 612.131348,50.004558 612.001465,49.8632812 C611.871581,49.7220045 611.806641,49.5465505 611.806641,49.3369141 Z M620.871094,50 L615.306641,50 L615.306641,49.0908203 L618.143555,45.3310547 C618.571942,44.7522758 618.869303,44.2771828 619.035645,43.9057617 C619.201987,43.5343406 619.285156,43.1412781 619.285156,42.7265625 C619.285156,42.197914 619.162111,41.7695329 618.916016,41.4414062 C618.669921,41.1132796 618.346356,40.9492187 617.945312,40.9492187 C617.439451,40.9492187 617.048667,41.1235334 616.772949,41.472168 C616.497232,41.8208025 616.359375,42.3232389 616.359375,42.9794922 L615.149414,42.9794922 C615.149414,42.063472 615.400063,41.3229195 615.901367,40.7578125 C616.402672,40.1927055 617.08398,39.9101562 617.945312,39.9101562 C618.738285,39.9101562 619.362628,40.1528296 619.818359,40.6381836 C620.274091,41.1235376 620.501953,41.7695272 620.501953,42.5761719 C620.501953,43.5605518 619.989263,44.7249282 618.963867,46.0693359 L616.749023,48.9677734 L620.871094,48.9677734 L620.871094,50 Z M622.149414,41.9609375 C622.149414,41.3684866 622.310057,40.8774434 622.631348,40.487793 C622.952638,40.0981426 623.370766,39.9033203 623.885742,39.9033203 C624.396161,39.9033203 624.814289,40.0947246 625.140137,40.4775391 C625.465985,40.8603535 625.628906,41.3639292 625.628906,41.9882812 L625.628906,42.4873047 C625.628906,43.0843129 625.468263,43.5742168 625.146973,43.9570312 C624.825682,44.3398457 624.409833,44.53125 623.899414,44.53125 C623.388995,44.53125 622.969728,44.3398457 622.641602,43.9570312 C622.313475,43.5742168 622.149414,43.0706411 622.149414,42.4462891 L622.149414,41.9609375 Z M623.03125,42.4873047 C623.03125,42.8518898 623.111002,43.1469715 623.270508,43.3725586 C623.430014,43.5981457 623.639647,43.7109375 623.899414,43.7109375 C624.150066,43.7109375 624.354003,43.6004243 624.51123,43.3793945 C624.668458,43.1583648 624.74707,42.85189 624.74707,42.4599609 L624.74707,41.9609375 C624.74707,41.591795 624.667319,41.2944347 624.507812,41.0688477 C624.348306,40.8432606 624.140952,40.7304687 623.885742,40.7304687 C623.625975,40.7304687 623.418621,40.8443999 623.263672,41.0722656 C623.108723,41.3001313 623.03125,41.6031882 623.03125,41.9814453 L623.03125,42.4873047 Z M626.168945,47.5595703 C626.168945,46.9625621 626.330728,46.4715189 626.654297,46.0864258 C626.977866,45.7013327 627.394854,45.5087891 627.905273,45.5087891 C628.415693,45.5087891 628.834959,45.7001934 629.163086,46.0830078 C629.491213,46.4658222 629.655273,46.9739552 629.655273,47.6074219 L629.655273,48.0927734 C629.655273,48.6943389 629.491213,49.1865215 629.163086,49.5693359 C628.834959,49.9521504 628.42025,50.1435547 627.918945,50.1435547 C627.408526,50.1435547 626.989259,49.9521504 626.661133,49.5693359 C626.333006,49.1865215 626.168945,48.6829458 626.168945,48.0585937 L626.168945,47.5595703 Z M627.050781,48.0927734 C627.050781,48.4619159 627.130533,48.7592762 627.290039,48.9848633 C627.449545,49.2104503 627.659178,49.3232422 627.918945,49.3232422 C628.174155,49.3232422 628.379231,49.209311 628.53418,48.9814453 C628.689128,48.7535796 628.766602,48.4505227 628.766602,48.0722656 L628.766602,47.5595703 C628.766602,47.1904278 628.68685,46.8942068 628.527344,46.6708984 C628.367838,46.44759 628.160483,46.3359375 627.905273,46.3359375 C627.654621,46.3359375 627.449545,46.4464507 627.290039,46.6674805 C627.130533,46.8885102 627.050781,47.1927064 627.050781,47.5800781 L627.050781,48.0927734 Z M624.145508,49.2480469 L623.482422,48.796875 L627.563477,41.0175781 L628.233398,41.46875 L624.145508,49.2480469 Z M639.902344,47.8740234 L641.023438,42.6035156 L642.219727,42.6035156 L640.408203,50 L639.444336,50 L638.001953,44.7089844 L636.59375,50 L635.623047,50 L633.825195,42.6035156 L635.014648,42.6035156 L636.163086,47.7441406 L637.537109,42.6035156 L638.494141,42.6035156 L639.902344,47.8740234 Z M644.790039,50 L643.580078,50 L643.580078,42.6035156 L644.790039,42.6035156 L644.790039,50 Z M644.885742,40.6416016 C644.885742,40.8466807 644.828777,41.0175774 644.714844,41.1542969 C644.600911,41.2910163 644.427736,41.359375 644.195312,41.359375 C643.967447,41.359375 643.79655,41.2910163 643.682617,41.1542969 C643.568684,41.0175774 643.511719,40.8466807 643.511719,40.6416016 C643.511719,40.4365224 643.568684,40.2633471 643.682617,40.1220703 C643.79655,39.9807936 643.967447,39.9101562 644.195312,39.9101562 C644.423178,39.9101562 644.595214,39.9819329 644.711426,40.1254883 C644.827637,40.2690437 644.885742,40.4410797 644.885742,40.6416016 Z M648.276367,40.8125 L648.276367,42.6035156 L649.390625,42.6035156 L649.390625,43.5810547 L648.276367,43.5810547 L648.276367,48.1679687 C648.276367,48.4596369 648.324218,48.6806633 648.419922,48.8310547 C648.515625,48.9814461 648.679686,49.0566406 648.912109,49.0566406 C649.071615,49.0566406 649.233398,49.0292971 649.397461,48.9746094 L649.383789,50 C649.11035,50.0911463 648.83008,50.1367187 648.542969,50.1367187 C648.064451,50.1367187 647.699871,49.965822 647.449219,49.6240234 C647.198566,49.2822249 647.073242,48.7991568 647.073242,48.1748047 L647.073242,43.5810547 L645.945312,43.5810547 L645.945312,42.6035156 L647.073242,42.6035156 L647.073242,40.8125 L648.276367,40.8125 Z M652.036133,43.3623047 C652.496422,42.7652965 653.084306,42.4667969 653.799805,42.4667969 C655.107754,42.4667969 655.770833,43.3395095 655.789062,45.0849609 L655.789062,50 L654.585938,50 L654.585938,45.1396484 C654.585938,44.5608695 654.489096,44.149578 654.29541,43.9057617 C654.101724,43.6619454 653.8112,43.5400391 653.423828,43.5400391 C653.123045,43.5400391 652.853029,43.6402985 652.61377,43.8408203 C652.374511,44.0413421 652.181967,44.3033838 652.036133,44.6269531 L652.036133,50 L650.826172,50 L650.826172,39.5 L652.036133,39.5 L652.036133,43.3623047 Z M662.269531,50 L661.018555,50 L661.018555,40.046875 L662.269531,40.046875 L662.269531,50 Z M666.077148,40.046875 L668.674805,48.1679687 L671.272461,40.046875 L672.885742,40.046875 L672.885742,50 L671.634766,50 L671.634766,46.1240234 L671.750977,42.2412109 L669.146484,50 L668.189453,50 L665.598633,42.2685547 L665.714844,46.1240234 L665.714844,50 L664.463867,50 L664.463867,40.046875 L666.077148,40.046875 Z M679.65332,45.6044922 L676.290039,45.6044922 L676.290039,50 L675.039062,50 L675.039062,40.046875 L680.220703,40.046875 L680.220703,41.1269531 L676.290039,41.1269531 L676.290039,44.53125 L679.65332,44.53125 L679.65332,45.6044922 Z M683.071289,50 L681.820312,50 L681.820312,40.046875 L683.071289,40.046875 L683.071289,50 Z M691.766602,50 L690.508789,50 L686.523438,42.3300781 L686.523438,50 L685.265625,50 L685.265625,40.046875 L686.523438,40.046875 L690.522461,47.7509766 L690.522461,40.046875 L691.766602,40.046875 L691.766602,50 Z M694.870117,48.9267578 L699.59375,48.9267578 L699.59375,50 L693.482422,50 L693.482422,49.015625 L698.014648,41.1269531 L693.530273,41.1269531 L693.530273,40.046875 L699.40918,40.046875 L699.40918,41.0107422 L694.870117,48.9267578 Z M702.553711,50 L701.302734,50 L701.302734,40.046875 L702.553711,40.046875 L702.553711,50 Z" id="44.2%-with-IMFINZI" fill="#000000"></path>
                                    <path d="M603.364258,66 L597.799805,66 L597.799805,65.0908203 L600.636719,61.3310547 C601.065106,60.7522758 601.362467,60.2771828 601.528809,59.9057617 C601.695151,59.5343406 601.77832,59.1412781 601.77832,58.7265625 C601.77832,58.197914 601.655275,57.7695329 601.40918,57.4414062 C601.163085,57.1132796 600.83952,56.9492187 600.438477,56.9492187 C599.932615,56.9492187 599.541831,57.1235334 599.266113,57.472168 C598.990396,57.8208025 598.852539,58.3232389 598.852539,58.9794922 L597.642578,58.9794922 C597.642578,58.063472 597.893227,57.3229195 598.394531,56.7578125 C598.895836,56.1927055 599.577144,55.9101562 600.438477,55.9101562 C601.231449,55.9101562 601.855792,56.1528296 602.311523,56.6381836 C602.767255,57.1235376 602.995117,57.7695272 602.995117,58.5761719 C602.995117,59.5605518 602.482427,60.7249282 601.457031,62.0693359 L599.242188,64.9677734 L603.364258,64.9677734 L603.364258,66 Z M610.200195,56.7578125 L606.775391,66 L605.510742,66 L608.928711,57.0859375 L604.492188,57.0859375 L604.492188,56.046875 L610.200195,56.046875 L610.200195,56.7578125 Z M611.806641,65.3369141 C611.806641,65.118163 611.871581,64.9358731 612.001465,64.7900391 C612.131348,64.644205 612.326171,64.5712891 612.585938,64.5712891 C612.845704,64.5712891 613.042805,64.644205 613.177246,64.7900391 C613.311687,64.9358731 613.378906,65.118163 613.378906,65.3369141 C613.378906,65.5465505 613.311687,65.7220045 613.177246,65.8632812 C613.042805,66.004558 612.845704,66.0751953 612.585938,66.0751953 C612.326171,66.0751953 612.131348,66.004558 612.001465,65.8632812 C611.871581,65.7220045 611.806641,65.5465505 611.806641,65.3369141 Z M620.625,61.7548828 C620.625,63.2223381 620.410809,64.3194951 619.982422,65.0463867 C619.554034,65.7732784 618.881841,66.1367187 617.96582,66.1367187 C617.077144,66.1367187 616.414065,65.7880894 615.976562,65.0908203 C615.53906,64.3935512 615.311198,63.3453846 615.292969,61.9462891 L615.292969,60.2373047 C615.292969,58.7835214 615.508299,57.6988968 615.938965,56.9833984 C616.369631,56.2679001 617.040686,55.9101562 617.952148,55.9101562 C618.849939,55.9101562 619.514158,56.2496711 619.944824,56.9287109 C620.37549,57.6077508 620.602213,58.6354098 620.625,60.0117187 L620.625,61.7548828 Z M619.415039,60.0253906 C619.415039,58.972651 619.298829,58.1967798 619.066406,57.6977539 C618.833983,57.198728 618.462568,56.9492187 617.952148,56.9492187 C617.455401,56.9492187 617.090821,57.1941707 616.858398,57.684082 C616.625975,58.1739933 616.505208,58.9134065 616.496094,59.9023437 L616.496094,61.953125 C616.496094,63.0013073 616.616861,63.7885716 616.858398,64.3149414 C617.099936,64.8413112 617.469073,65.1044922 617.96582,65.1044922 C618.45801,65.1044922 618.820311,64.8561223 619.052734,64.359375 C619.285157,63.8626277 619.405924,63.1038462 619.415039,62.0830078 L619.415039,60.0253906 Z M622.149414,57.9609375 C622.149414,57.3684866 622.310057,56.8774434 622.631348,56.487793 C622.952638,56.0981426 623.370766,55.9033203 623.885742,55.9033203 C624.396161,55.9033203 624.814289,56.0947246 625.140137,56.4775391 C625.465985,56.8603535 625.628906,57.3639292 625.628906,57.9882812 L625.628906,58.4873047 C625.628906,59.0843129 625.468263,59.5742168 625.146973,59.9570312 C624.825682,60.3398457 624.409833,60.53125 623.899414,60.53125 C623.388995,60.53125 622.969728,60.3398457 622.641602,59.9570312 C622.313475,59.5742168 622.149414,59.0706411 622.149414,58.4462891 L622.149414,57.9609375 Z M623.03125,58.4873047 C623.03125,58.8518898 623.111002,59.1469715 623.270508,59.3725586 C623.430014,59.5981457 623.639647,59.7109375 623.899414,59.7109375 C624.150066,59.7109375 624.354003,59.6004243 624.51123,59.3793945 C624.668458,59.1583648 624.74707,58.85189 624.74707,58.4599609 L624.74707,57.9609375 C624.74707,57.591795 624.667319,57.2944347 624.507812,57.0688477 C624.348306,56.8432606 624.140952,56.7304687 623.885742,56.7304687 C623.625975,56.7304687 623.418621,56.8443999 623.263672,57.0722656 C623.108723,57.3001313 623.03125,57.6031882 623.03125,57.9814453 L623.03125,58.4873047 Z M626.168945,63.5595703 C626.168945,62.9625621 626.330728,62.4715189 626.654297,62.0864258 C626.977866,61.7013327 627.394854,61.5087891 627.905273,61.5087891 C628.415693,61.5087891 628.834959,61.7001934 629.163086,62.0830078 C629.491213,62.4658222 629.655273,62.9739552 629.655273,63.6074219 L629.655273,64.0927734 C629.655273,64.6943389 629.491213,65.1865215 629.163086,65.5693359 C628.834959,65.9521504 628.42025,66.1435547 627.918945,66.1435547 C627.408526,66.1435547 626.989259,65.9521504 626.661133,65.5693359 C626.333006,65.1865215 626.168945,64.6829458 626.168945,64.0585937 L626.168945,63.5595703 Z M627.050781,64.0927734 C627.050781,64.4619159 627.130533,64.7592762 627.290039,64.9848633 C627.449545,65.2104503 627.659178,65.3232422 627.918945,65.3232422 C628.174155,65.3232422 628.379231,65.209311 628.53418,64.9814453 C628.689128,64.7535796 628.766602,64.4505227 628.766602,64.0722656 L628.766602,63.5595703 C628.766602,63.1904278 628.68685,62.8942068 628.527344,62.6708984 C628.367838,62.44759 628.160483,62.3359375 627.905273,62.3359375 C627.654621,62.3359375 627.449545,62.4464507 627.290039,62.6674805 C627.130533,62.8885102 627.050781,63.1927064 627.050781,63.5800781 L627.050781,64.0927734 Z M624.145508,65.2480469 L623.482422,64.796875 L627.563477,57.0175781 L628.233398,57.46875 L624.145508,65.2480469 Z M639.902344,63.8740234 L641.023438,58.6035156 L642.219727,58.6035156 L640.408203,66 L639.444336,66 L638.001953,60.7089844 L636.59375,66 L635.623047,66 L633.825195,58.6035156 L635.014648,58.6035156 L636.163086,63.7441406 L637.537109,58.6035156 L638.494141,58.6035156 L639.902344,63.8740234 Z M644.790039,66 L643.580078,66 L643.580078,58.6035156 L644.790039,58.6035156 L644.790039,66 Z M644.885742,56.6416016 C644.885742,56.8466807 644.828777,57.0175774 644.714844,57.1542969 C644.600911,57.2910163 644.427736,57.359375 644.195312,57.359375 C643.967447,57.359375 643.79655,57.2910163 643.682617,57.1542969 C643.568684,57.0175774 643.511719,56.8466807 643.511719,56.6416016 C643.511719,56.4365224 643.568684,56.2633471 643.682617,56.1220703 C643.79655,55.9807936 643.967447,55.9101562 644.195312,55.9101562 C644.423178,55.9101562 644.595214,55.9819329 644.711426,56.1254883 C644.827637,56.2690437 644.885742,56.4410797 644.885742,56.6416016 Z M648.276367,56.8125 L648.276367,58.6035156 L649.390625,58.6035156 L649.390625,59.5810547 L648.276367,59.5810547 L648.276367,64.1679687 C648.276367,64.4596369 648.324218,64.6806633 648.419922,64.8310547 C648.515625,64.9814461 648.679686,65.0566406 648.912109,65.0566406 C649.071615,65.0566406 649.233398,65.0292971 649.397461,64.9746094 L649.383789,66 C649.11035,66.0911463 648.83008,66.1367187 648.542969,66.1367187 C648.064451,66.1367187 647.699871,65.965822 647.449219,65.6240234 C647.198566,65.2822249 647.073242,64.7991568 647.073242,64.1748047 L647.073242,59.5810547 L645.945312,59.5810547 L645.945312,58.6035156 L647.073242,58.6035156 L647.073242,56.8125 L648.276367,56.8125 Z M652.036133,59.3623047 C652.496422,58.7652965 653.084306,58.4667969 653.799805,58.4667969 C655.107754,58.4667969 655.770833,59.3395095 655.789062,61.0849609 L655.789062,66 L654.585938,66 L654.585938,61.1396484 C654.585938,60.5608695 654.489096,60.149578 654.29541,59.9057617 C654.101724,59.6619454 653.8112,59.5400391 653.423828,59.5400391 C653.123045,59.5400391 652.853029,59.6402985 652.61377,59.8408203 C652.374511,60.0413421 652.181967,60.3033838 652.036133,60.6269531 L652.036133,66 L650.826172,66 L650.826172,55.5 L652.036133,55.5 L652.036133,59.3623047 Z M666.138672,62.6572266 C666.138672,63.8284564 665.927899,64.701169 665.506348,65.2753906 C665.084796,65.8496122 664.488936,66.1367187 663.71875,66.1367187 C662.975908,66.1367187 662.403973,65.8564481 662.00293,65.2958984 L662.00293,68.84375 L660.799805,68.84375 L660.799805,58.6035156 L661.893555,58.6035156 L661.955078,59.4238281 C662.360679,58.7858041 662.941728,58.4667969 663.698242,58.4667969 C664.509444,58.4667969 665.115558,58.7493461 665.516602,59.3144531 C665.917645,59.8795601 666.125,60.7249293 666.138672,61.8505859 L666.138672,62.6572266 Z M664.935547,61.9667969 C664.935547,61.1373656 664.807944,60.5255554 664.552734,60.1313477 C664.297525,59.73714 663.887373,59.5400391 663.322266,59.5400391 C662.743487,59.5400391 662.303712,59.8294242 662.00293,60.4082031 L662.00293,64.2568359 C662.299155,64.8219429 662.743487,65.1044922 663.335938,65.1044922 C663.882815,65.1044922 664.284992,64.9073913 664.54248,64.5131836 C664.799969,64.1189759 664.93099,63.5162801 664.935547,62.7050781 L664.935547,61.9667969 Z M669.00293,66 L667.792969,66 L667.792969,55.5 L669.00293,55.5 L669.00293,66 Z M674.710938,66 C674.63802,65.840494 674.585612,65.5716165 674.553711,65.1933594 C674.125323,65.8222688 673.578454,66.1367187 672.913086,66.1367187 C672.243161,66.1367187 671.720217,65.9487323 671.344238,65.5727539 C670.96826,65.1967755 670.780273,64.6669956 670.780273,63.9833984 C670.780273,63.2314416 671.035479,62.6344423 671.545898,62.1923828 C672.056318,61.7503233 672.755855,61.5247396 673.644531,61.515625 L674.533203,61.515625 L674.533203,60.7294922 C674.533203,60.2874327 674.435222,59.9729827 674.239258,59.7861328 C674.043293,59.5992829 673.744794,59.5058594 673.34375,59.5058594 C672.979165,59.5058594 672.682944,59.614094 672.455078,59.8305664 C672.227212,60.0470388 672.113281,60.3216129 672.113281,60.6542969 L670.90332,60.6542969 C670.90332,60.2760398 671.014973,59.914878 671.238281,59.5708008 C671.46159,59.2267235 671.762368,58.9567067 672.140625,58.7607422 C672.518882,58.5647777 672.940427,58.4667969 673.405273,58.4667969 C674.161788,58.4667969 674.73714,58.6547833 675.131348,59.0307617 C675.525555,59.4067402 675.727213,59.954749 675.736328,60.6748047 L675.736328,64.4072266 C675.740885,64.9768909 675.818359,65.4713521 675.96875,65.890625 L675.96875,66 L674.710938,66 Z M673.097656,65.0361328 C673.393882,65.0361328 673.676431,64.9541024 673.945312,64.7900391 C674.214194,64.6259757 674.410156,64.4208997 674.533203,64.1748047 L674.533203,62.4111328 L673.849609,62.4111328 C673.275388,62.4202474 672.821942,62.5489896 672.489258,62.7973633 C672.156574,63.0457369 671.990234,63.3932269 671.990234,63.8398437 C671.990234,64.2591167 672.074543,64.5633129 672.243164,64.7524414 C672.411785,64.94157 672.696613,65.0361328 673.097656,65.0361328 Z M680.179688,65.1044922 C680.580731,65.1044922 680.902017,64.9803072 681.143555,64.7319336 C681.385092,64.48356 681.517252,64.1292341 681.540039,63.6689453 L682.681641,63.6689453 C682.654297,64.3798864 682.402509,64.9689104 681.92627,65.4360352 C681.45003,65.9031599 680.867842,66.1367187 680.179688,66.1367187 C679.263667,66.1367187 678.565269,65.8484729 678.084473,65.2719727 C677.603676,64.6954724 677.363281,63.8375708 677.363281,62.6982422 L677.363281,61.8847656 C677.363281,60.7682236 677.602537,59.9194365 678.081055,59.3383789 C678.559573,58.7573213 679.256831,58.4667969 680.172852,58.4667969 C680.929366,58.4667969 681.529783,58.7060523 681.974121,59.1845703 C682.418459,59.6630883 682.654297,60.3170531 682.681641,61.1464844 L681.540039,61.1464844 C681.512695,60.5996066 681.381674,60.1894545 681.146973,59.9160156 C680.912271,59.6425768 680.587567,59.5058594 680.172852,59.5058594 C679.635088,59.5058594 679.236329,59.6824527 678.976562,60.0356445 C678.716796,60.3888364 678.582357,60.968746 678.573242,61.7753906 L678.573242,62.71875 C678.573242,63.5891971 678.701984,64.2044253 678.959473,64.5644531 C679.216961,64.924481 679.623695,65.1044922 680.179688,65.1044922 Z M686.72168,66.1367187 C685.801102,66.1367187 685.094729,65.8621447 684.602539,65.3129883 C684.110349,64.7638319 683.859701,63.9583386 683.850586,62.8964844 L683.850586,62.0009766 C683.850586,60.8981065 684.090981,60.033369 684.571777,59.4067383 C685.052574,58.7801075 685.723629,58.4667969 686.584961,58.4667969 C687.450851,58.4667969 688.09798,58.7425103 688.526367,59.2939453 C688.954755,59.8453804 689.173503,60.7044212 689.182617,61.8710937 L689.182617,62.6640625 L685.053711,62.6640625 L685.053711,62.8349609 C685.053711,63.6279337 685.202961,64.2044253 685.501465,64.5644531 C685.799969,64.924481 686.229489,65.1044922 686.790039,65.1044922 C687.14551,65.1044922 687.45882,65.0372728 687.72998,64.902832 C688.001141,64.7683913 688.255207,64.55534 688.492188,64.2636719 L689.121094,65.0292969 C688.597003,65.7675818 687.797206,66.1367187 686.72168,66.1367187 Z M686.584961,59.5058594 C686.083656,59.5058594 685.712241,59.6778954 685.470703,60.0219727 C685.229165,60.3660499 685.092448,60.900387 685.060547,61.625 L687.972656,61.625 L687.972656,61.4609375 C687.940755,60.7591111 687.814291,60.257814 687.593262,59.9570312 C687.372232,59.6562485 687.036135,59.5058594 686.584961,59.5058594 Z M695.991211,62.6572266 C695.991211,63.8102271 695.783856,64.6783825 695.369141,65.2617187 C694.954425,65.845055 694.352869,66.1367187 693.564453,66.1367187 C692.780595,66.1367187 692.19271,65.7994825 691.800781,65.125 L691.739258,66 L690.638672,66 L690.638672,55.5 L691.841797,55.5 L691.841797,59.4169922 C692.238283,58.7835255 692.807939,58.4667969 693.550781,58.4667969 C694.361983,58.4667969 694.970376,58.7539034 695.375977,59.328125 C695.781578,59.9023466 695.986654,60.7682234 695.991211,61.9257812 L695.991211,62.6572266 Z M694.788086,61.9667969 C694.788086,61.0917925 694.66618,60.4685891 694.422363,60.097168 C694.178547,59.7257468 693.783206,59.5400391 693.236328,59.5400391 C692.611976,59.5400391 692.147137,59.8772753 691.841797,60.5517578 L691.841797,64.0722656 C692.14258,64.7376335 692.611976,65.0703125 693.25,65.0703125 C693.796878,65.0703125 694.188801,64.8789082 694.425781,64.4960937 C694.662762,64.1132793 694.783529,63.5185587 694.788086,62.7119141 L694.788086,61.9667969 Z M697.283203,61.9599609 C697.283203,60.8844347 697.544105,60.033369 698.065918,59.4067383 C698.58773,58.7801075 699.277014,58.4667969 700.133789,58.4667969 C700.990564,58.4667969 701.679848,58.7721324 702.20166,59.3828125 C702.723473,59.9934926 702.991211,60.82519 703.004883,61.8779297 L703.004883,62.6572266 C703.004883,63.7281955 702.74512,64.5758432 702.225586,65.2001953 C701.706052,65.8245474 701.013351,66.1367187 700.147461,66.1367187 C699.290686,66.1367187 698.603681,65.8336619 698.086426,65.2275391 C697.569171,64.6214162 697.301432,63.8011119 697.283203,62.7666016 L697.283203,61.9599609 Z M698.493164,62.6572266 C698.493164,63.4182981 698.642414,64.0164366 698.940918,64.4516602 C699.239422,64.8868837 699.641599,65.1044922 700.147461,65.1044922 C701.213873,65.1044922 701.763021,64.3343176 701.794922,62.7939453 L701.794922,61.9599609 C701.794922,61.2034467 701.644533,60.6053082 701.34375,60.1655273 C701.042967,59.7257465 700.639651,59.5058594 700.133789,59.5058594 C699.637042,59.5058594 699.239422,59.7257465 698.940918,60.1655273 C698.642414,60.6053082 698.493164,61.2011681 698.493164,61.953125 L698.493164,62.6572266 Z" id="27.0%-with-placebo" fill="#000000"></path>
                                    <path d="M707.664551,61.9174805 L706.214356,61.9174805 L706.214356,66 L705.436524,66 L705.436524,61.9174805 L704.012696,61.9174805 L704.012696,61.2451172 L705.436524,61.2451172 L705.436524,59.6015625 L706.214356,59.6015625 L706.214356,61.2451172 L707.664551,61.2451172 L707.664551,61.9174805 Z M710.837403,66 L710.055176,66 L710.055176,60.581543 L708.710449,61.1835937 L708.710449,60.4453125 L710.714356,59.5708008 L710.837403,59.5708008 L710.837403,66 Z M716.541504,66 L712.964356,66 L712.964356,65.4155273 L714.788086,62.9985352 C715.063478,62.626463 715.254638,62.3210461 715.361572,62.0822754 C715.468507,61.8435047 715.521973,61.5908216 715.521973,61.3242187 C715.521973,60.9843733 715.442872,60.7089854 715.284668,60.4980469 C715.126464,60.2871083 714.918459,60.1816406 714.660645,60.1816406 C714.335448,60.1816406 714.08423,60.2937001 713.906983,60.5178223 C713.729736,60.7419445 713.641113,61.0649393 713.641113,61.4868164 L712.863281,61.4868164 C712.863281,60.8979463 713.024413,60.4218768 713.34668,60.0585937 C713.668947,59.6953107 714.106931,59.5136719 714.660645,59.5136719 C715.170413,59.5136719 715.571776,59.6696762 715.864746,59.9816895 C716.157716,60.2937027 716.304199,60.7089818 716.304199,61.2275391 C716.304199,61.8603547 715.974613,62.6088824 715.31543,63.4731445 L713.891602,65.3364258 L716.541504,65.3364258 L716.541504,66 Z" id="†12" fill="#000000"></path>
                                    <path d="M587,28 L777.5,28" id="Path-11" stroke="#7CA2D5" stroke-width="4"></path>
                                    <path d="M587,80 L777.5,80" id="Path-11" stroke="#7CA2D5" stroke-width="4"></path>
                                    <rect id="Rectangle-19" fill="#AB1F2D" fill-rule="nonzero" x="388" y="-5.68434189e-14" width="200" height="108" rx="6"></rect>
                                    <path d="M427.765625,61 L424.4375,61 L424.4375,47.96875 L421.191406,49.2226562 L421.191406,46.4570312 L427.414062,43.9140625 L427.765625,43.9140625 L427.765625,61 Z M442.167969,48.4726562 C442.167969,49.3007854 441.992189,50.035153 441.640625,50.6757812 C441.289061,51.3164095 440.804691,51.8281231 440.1875,52.2109375 C440.890629,52.609377 441.44531,53.1581996 441.851562,53.8574219 C442.257815,54.5566441 442.460938,55.3789015 442.460938,56.3242187 C442.460938,57.8398513 442.023442,59.037105 441.148438,59.9160156 C440.273433,60.7949263 439.082039,61.234375 437.574219,61.234375 C436.066399,61.234375 434.867192,60.7949263 433.976562,59.9160156 C433.085933,59.037105 432.640625,57.8398513 432.640625,56.3242187 C432.640625,55.3789015 432.843748,54.554691 433.25,53.8515625 C433.656252,53.148434 434.21484,52.6015645 434.925781,52.2109375 C434.300778,51.8281231 433.812502,51.3164095 433.460938,50.6757812 C433.109373,50.035153 432.933594,49.3007854 432.933594,48.4726562 C432.933594,46.9804613 433.351558,45.8125042 434.1875,44.96875 C435.023442,44.1249958 436.144524,43.703125 437.550781,43.703125 C438.972663,43.703125 440.097652,44.128902 440.925781,44.9804687 C441.75391,45.8320355 442.167969,46.9960864 442.167969,48.4726562 Z M437.574219,58.4804687 C438.074221,58.4804687 438.458983,58.2675803 438.728516,57.8417969 C438.998048,57.4160135 439.132812,56.8242225 439.132812,56.0664062 C439.132812,55.30859 438.992189,54.7148459 438.710938,54.2851562 C438.429686,53.8554666 438.042971,53.640625 437.550781,53.640625 C437.058591,53.640625 436.669923,53.8554666 436.384766,54.2851562 C436.099608,54.7148459 435.957031,55.30859 435.957031,56.0664062 C435.957031,56.8242225 436.099608,57.4160135 436.384766,57.8417969 C436.669923,58.2675803 437.066404,58.4804687 437.574219,58.4804687 Z M438.863281,48.6484375 C438.863281,47.9843717 438.75586,47.453127 438.541016,47.0546875 C438.326171,46.656248 437.996096,46.4570312 437.550781,46.4570312 C437.128904,46.4570312 436.808595,46.6503887 436.589844,47.0371094 C436.371093,47.4238301 436.261719,47.9609341 436.261719,48.6484375 C436.261719,49.3203159 436.371093,49.8613261 436.589844,50.2714844 C436.808595,50.6816427 437.136717,50.8867187 437.574219,50.8867187 C438.011721,50.8867187 438.335936,50.6816427 438.546875,50.2714844 C438.757814,49.8613261 438.863281,49.3203159 438.863281,48.6484375 Z M450.804688,55.0703125 L445.074219,55.0703125 L445.074219,52.3046875 L450.804688,52.3046875 L450.804688,55.0703125 Z M456.675781,48.3203125 L456.769531,49.4921875 C457.511722,48.5546828 458.492181,48.0859375 459.710938,48.0859375 C460.976569,48.0859375 461.871091,48.6562443 462.394531,49.796875 C463.121097,48.6562443 464.156243,48.0859375 465.5,48.0859375 C467.718761,48.0859375 468.855468,49.6210784 468.910156,52.6914062 L468.910156,61 L465.59375,61 L465.59375,52.9023437 C465.59375,52.1679651 465.492189,51.6445328 465.289062,51.3320312 C465.085936,51.0195297 464.74219,50.8632812 464.257812,50.8632812 C463.640622,50.8632812 463.179689,51.2421837 462.875,52 L462.898438,52.3984375 L462.898438,61 L459.582031,61 L459.582031,52.9257812 C459.582031,52.1992151 459.484376,51.6738297 459.289062,51.3496094 C459.093749,51.025389 458.746096,50.8632812 458.246094,50.8632812 C457.675778,50.8632812 457.222658,51.1718719 456.886719,51.7890625 L456.886719,61 L453.570312,61 L453.570312,48.3203125 L456.675781,48.3203125 Z M470.972656,54.25 C470.972656,52.3281154 471.425777,50.820318 472.332031,49.7265625 C473.238286,48.632807 474.492179,48.0859375 476.09375,48.0859375 C477.710946,48.0859375 478.972652,48.632807 479.878906,49.7265625 C480.785161,50.820318 481.238281,52.3359278 481.238281,54.2734375 L481.238281,55.0820312 C481.238281,57.0117284 480.789067,58.5195258 479.890625,59.6054687 C478.992183,60.6914117 477.734383,61.234375 476.117188,61.234375 C474.492179,61.234375 473.22852,60.6894586 472.326172,59.5996094 C471.423824,58.5097602 470.972656,56.9961034 470.972656,55.0585937 L470.972656,54.25 Z M474.300781,55.0820312 C474.300781,57.3476676 474.906244,58.4804687 476.117188,58.4804687 C477.234381,58.4804687 477.835937,57.5351657 477.921875,55.6445312 L477.933594,54.25 C477.933594,53.0937442 477.773439,52.2363309 477.453125,51.6777344 C477.132811,51.1191378 476.67969,50.8398437 476.09375,50.8398437 C475.531247,50.8398437 475.091798,51.1191378 474.775391,51.6777344 C474.458983,52.2363309 474.300781,53.0937442 474.300781,54.25 L474.300781,55.0820312 Z M486.335938,48.3203125 L486.429688,49.5742187 C487.179691,48.5820263 488.16015,48.0859375 489.371094,48.0859375 C491.550792,48.0859375 492.671875,49.613266 492.734375,52.6679687 L492.734375,61 L489.40625,61 L489.40625,52.9140625 C489.40625,52.1953089 489.298829,51.6738297 489.083984,51.3496094 C488.86914,51.025389 488.49219,50.8632812 487.953125,50.8632812 C487.351559,50.8632812 486.882814,51.1718719 486.546875,51.7890625 L486.546875,61 L483.21875,61 L483.21875,48.3203125 L486.335938,48.3203125 Z M498.96875,45.203125 L498.96875,48.3203125 L500.667969,48.3203125 L500.667969,50.8164062 L498.96875,50.8164062 L498.96875,57.109375 C498.96875,57.6093775 499.037109,57.9531241 499.173828,58.140625 C499.310548,58.3281259 499.574217,58.421875 499.964844,58.421875 C500.285158,58.421875 500.546874,58.3945315 500.75,58.3398437 L500.726562,60.9179687 C500.16406,61.1289073 499.554691,61.234375 498.898438,61.234375 C496.757802,61.234375 495.675781,60.0078248 495.652344,57.5546875 L495.652344,50.8164062 L494.1875,50.8164062 L494.1875,48.3203125 L495.652344,48.3203125 L495.652344,45.203125 L498.96875,45.203125 Z M505.71875,49.4335937 C506.437504,48.5351518 507.320307,48.0859375 508.367188,48.0859375 C509.523443,48.0859375 510.402341,48.4921834 511.003906,49.3046875 C511.605472,50.1171916 511.910156,51.328117 511.917969,52.9375 L511.917969,61 L508.589844,61 L508.589844,52.9726562 C508.589844,52.230465 508.474611,51.693361 508.244141,51.3613281 C508.013671,51.0292952 507.640628,50.8632812 507.125,50.8632812 C506.523434,50.8632812 506.054689,51.1406222 505.71875,51.6953125 L505.71875,61 L502.402344,61 L502.402344,43 L505.71875,43 L505.71875,49.4335937 Z M523.4375,55 L523.4375,61 L519.992188,61 L519.992188,43.9375 L525.804688,43.9375 C527.492196,43.9375 528.837886,44.4609323 529.841797,45.5078125 C530.845708,46.5546927 531.347656,47.9140541 531.347656,49.5859375 C531.347656,51.2578209 530.851567,52.5781202 529.859375,53.546875 C528.867183,54.5156298 527.492196,55 525.734375,55 L523.4375,55 Z M523.4375,52.1289062 L525.804688,52.1289062 C526.460941,52.1289062 526.968748,51.9140646 527.328125,51.484375 C527.687502,51.0546854 527.867188,50.4296916 527.867188,49.609375 C527.867188,48.7578082 527.683596,48.0800806 527.316406,47.5761719 C526.949217,47.0722631 526.457034,46.8164063 525.839844,46.8085937 L523.4375,46.8085937 L523.4375,52.1289062 Z M542.445312,54.0390625 L537.089844,54.0390625 L537.089844,61 L533.644531,61 L533.644531,43.9375 L543.089844,43.9375 L543.089844,46.8085937 L537.089844,46.8085937 L537.089844,51.1796875 L542.445312,51.1796875 L542.445312,54.0390625 Z M552.265625,56.5234375 C552.265625,55.8281215 552.087892,55.3027362 551.732422,54.9472656 C551.376951,54.5917951 550.730473,54.2226582 549.792969,53.8398437 C548.082023,53.191403 546.851566,52.431645 546.101562,51.5605469 C545.351559,50.6894488 544.976562,49.6601622 544.976562,48.4726562 C544.976562,47.0351491 545.486323,45.8808637 546.505859,45.0097656 C547.525396,44.1386675 548.820305,43.703125 550.390625,43.703125 C551.437505,43.703125 552.37109,43.9238259 553.191406,44.3652344 C554.011723,44.8066428 554.642576,45.4296835 555.083984,46.234375 C555.525393,47.0390665 555.746094,47.9531199 555.746094,48.9765625 L552.3125,48.9765625 C552.3125,48.1796835 552.14258,47.5722677 551.802734,47.1542969 C551.462889,46.736326 550.972659,46.5273437 550.332031,46.5273437 C549.730466,46.5273437 549.26172,46.7050763 548.925781,47.0605469 C548.589842,47.4160174 548.421875,47.8945282 548.421875,48.4960937 C548.421875,48.9648461 548.609373,49.38867 548.984375,49.7675781 C549.359377,50.1464863 550.023433,50.5390605 550.976562,50.9453125 C552.640633,51.546878 553.849606,52.2851519 554.603516,53.1601562 C555.357426,54.0351606 555.734375,55.1484307 555.734375,56.5 C555.734375,57.9843824 555.261723,59.1445271 554.316406,59.9804687 C553.371089,60.8164104 552.085946,61.234375 550.460938,61.234375 C549.359369,61.234375 548.355473,61.0078148 547.449219,60.5546875 C546.542964,60.1015602 545.833987,59.4531292 545.322266,58.609375 C544.810544,57.7656208 544.554688,56.769537 544.554688,55.6210937 L548.011719,55.6210937 C548.011719,56.6054737 548.203123,57.3203103 548.585938,57.765625 C548.968752,58.2109397 549.593746,58.4335937 550.460938,58.4335937 C551.664069,58.4335937 552.265625,57.7968814 552.265625,56.5234375 Z" id="18-month-PFS" fill="#FFFFFF"></path>
                                </g>
                            </g>
                        </g>
                    </g>
                </g>
            </g>
        </g>
    </g>
</svg>