<svg xmlns="http://www.w3.org/2000/svg" width="30" height="30" viewBox="0 0 30 30">
    <g fill="none" fill-rule="evenodd" stroke="#FFF">
        <path stroke-width="1.68" d="M17.032 23.644c-.1-3.492-.062-10.473 1.576-14.182a2.414 2.414 0 0 1 3.504-1.09c2.855 1.79 7.697 6.563 6.773 18.112-.127 1.59-1.558 2.744-3.076 2.478-1.898-.334-4.456-.929-6.597-1.948a3.842 3.842 0 0 1-2.18-3.37zM12.968 23.644c.1-3.492.062-10.473-1.577-14.182a2.412 2.412 0 0 0-3.503-1.09c-2.855 1.79-7.697 6.563-6.773 18.112.127 1.59 1.557 2.744 3.075 2.478 1.897-.334 4.455-.929 6.598-1.948a3.842 3.842 0 0 0 2.18-3.37z"/>
        <path stroke-linecap="round" stroke-linejoin="round" stroke-width="1.68" d="M17 13.798L15.006 11 13 14"/>
        <path stroke-width="1.68" d="M15 11V0"/>
        <path stroke-width=".56" d="M17 22c.729 1.743 2.468 2.927 5.22 3.552 4.126.939 5.847-.257 6.383-.938M13 22c-.729 1.743-2.468 2.927-5.22 3.552-4.126.939-5.847-.257-6.383-.938"/>
    </g>
</svg>
