<?xml version="1.0" encoding="UTF-8"?>
<svg width="32px" height="32px" viewBox="0 0 32 32" version="1.1" xmlns="http://www.w3.org/2000/svg" xmlns:xlink="http://www.w3.org/1999/xlink">
    <!-- Generator: Sketch 46.2 (44496) - http://www.bohemiancoding.com/sketch -->
    <title>noun_1014480_cc</title>
    <desc>Created with Sketch.</desc>
    <defs></defs>
    <g id="Mobile" stroke="none" stroke-width="1" fill="none" fill-rule="evenodd">
        <g id="1_1-copy-11" transform="translate(-262.000000, -68.000000)" fill-rule="nonzero" fill="#173a64">
            <g id="noun_1014480_cc" transform="translate(262.000000, 68.000000)">
                <g id="Group">
                    <path d="M16,31.7948718 C24.6974359,31.7948718 31.7948718,24.6974359 31.7948718,16 C31.7948718,7.3025641 24.6974359,0.205128205 16,0.205128205 C7.3025641,0.205128205 0.205128205,7.3025641 0.205128205,16 C0.205128205,24.6974359 7.3025641,31.7948718 16,31.7948718 Z M16,2.25641026 C23.5897436,2.25641026 29.7435897,8.41025641 29.7435897,16 C29.7435897,23.5897436 23.5897436,29.7435897 16,29.7435897 C8.41025641,29.7435897 2.25641026,23.5897436 2.25641026,16 C2.25641026,8.41025641 8.41025641,2.25641026 16,2.25641026 Z" id="Shape"></path>
                    <path d="M10.3384615,21.6615385 C10.5435897,21.8666667 10.7897436,21.9487179 11.0769231,21.9487179 C11.3641026,21.9487179 11.6102564,21.8666667 11.8153846,21.6615385 L16,17.4358974 L20.225641,21.6615385 C20.4307692,21.8666667 20.6769231,21.9487179 20.9641026,21.9487179 C21.2512821,21.9487179 21.4974359,21.8666667 21.7025641,21.6615385 C22.1128205,21.2512821 22.1128205,20.5948718 21.7025641,20.225641 L17.4358974,16 L21.6615385,11.774359 C22.0717949,11.3641026 22.0717949,10.7076923 21.6615385,10.3384615 C21.2512821,9.92820513 20.5948718,9.92820513 20.225641,10.3384615 L16,14.5641026 L11.774359,10.3384615 C11.3641026,9.92820513 10.7076923,9.92820513 10.3384615,10.3384615 C9.92820513,10.7487179 9.92820513,11.4051282 10.3384615,11.774359 L14.5641026,16 L10.3384615,20.225641 C9.92820513,20.5948718 9.92820513,21.2512821 10.3384615,21.6615385 Z" id="Shape"></path>
                </g>
            </g>
        </g>
    </g>
</svg>
