<?xml version="1.0" encoding="UTF-8"?>
<svg width="32px" height="32px" viewBox="0 0 32 32" version="1.1" xmlns="http://www.w3.org/2000/svg" xmlns:xlink="http://www.w3.org/1999/xlink">
    <!-- Generator: Sketch 47 (45396) - http://www.bohemiancoding.com/sketch -->
    <title>noun_1014480_cc</title>
    <desc>Created with Sketch.</desc>
    <defs></defs>
    <g id="Page-1-Copy" stroke="none" stroke-width="1" fill="none" fill-rule="evenodd">
        <g id="William_popup_desktop" transform="translate(-1223.000000, -30.000000)" fill-rule="nonzero" fill="#FFFFFF">
            <g id="noun_1014480_cc" transform="translate(1223.000000, 30.000000)">
                <g id="Group">
                    <path d="M15.7948718,31.5897436 C24.4923077,31.5897436 31.5897436,24.4923077 31.5897436,15.7948718 C31.5897436,7.0974359 24.4923077,0 15.7948718,0 C7.0974359,0 0,7.0974359 0,15.7948718 C0,24.4923077 7.0974359,31.5897436 15.7948718,31.5897436 Z M15.7948718,2.05128205 C23.3846154,2.05128205 29.5384615,8.20512821 29.5384615,15.7948718 C29.5384615,23.3846154 23.3846154,29.5384615 15.7948718,29.5384615 C8.20512821,29.5384615 2.05128205,23.3846154 2.05128205,15.7948718 C2.05128205,8.20512821 8.20512821,2.05128205 15.7948718,2.05128205 Z" id="Shape"></path>
                    <path d="M10.3076923,21.6307692 C10.5128205,21.8358974 10.7589744,21.9179487 11.0461538,21.9179487 C11.3333333,21.9179487 11.5794872,21.8358974 11.7846154,21.6307692 L15.9692308,17.4051282 L20.1948718,21.6307692 C20.4,21.8358974 20.6461538,21.9179487 20.9333333,21.9179487 C21.2205128,21.9179487 21.4666667,21.8358974 21.6717949,21.6307692 C22.0820513,21.2205128 22.0820513,20.5641026 21.6717949,20.1948718 L17.4051282,15.9692308 L21.6307692,11.7435897 C22.0410256,11.3333333 22.0410256,10.6769231 21.6307692,10.3076923 C21.2205128,9.8974359 20.5641026,9.8974359 20.1948718,10.3076923 L15.9692308,14.5333333 L11.7435897,10.3076923 C11.3333333,9.8974359 10.6769231,9.8974359 10.3076923,10.3076923 C9.8974359,10.7179487 9.8974359,11.374359 10.3076923,11.7435897 L14.5333333,15.9692308 L10.3076923,20.1948718 C9.8974359,20.5641026 9.8974359,21.2205128 10.3076923,21.6307692 Z" id="Shape"></path>
                </g>
            </g>
        </g>
    </g>
</svg>