<?xml version="1.0" encoding="UTF-8" standalone="no"?>
<svg width="66px" height="72px" viewBox="0 0 66 72" version="1.1" xmlns="http://www.w3.org/2000/svg" xmlns:xlink="http://www.w3.org/1999/xlink">
    <!-- Generator: Sketch 3.8.3 (29802) - http://www.bohemiancoding.com/sketch -->
    <title>noun_54236_cc</title>
    <desc>Created with Sketch.</desc>
    <defs></defs>
    <g id="Page-1" stroke="none" stroke-width="1" fill="none" fill-rule="evenodd">
        <g id="iPhone-5-⟳" transform="translate(-248.000000, -108.000000)" fill="#FFFFFF">
            <g id="Group-2" transform="translate(223.000000, 86.000000)">
                <g id="noun_54236_cc" transform="translate(25.000000, 22.000000)">
                    <g id="Group">
                        <path d="M59.369,55.403 L6.632,55.403 C3.019,55.403 0.078,52.464 0.078,48.85 L0.078,23.15 C0.078,19.537 3.018,16.597 6.632,16.597 L59.369,16.597 C62.982,16.597 65.922,19.537 65.922,23.15 L65.922,48.85 C65.922,52.463 62.982,55.403 59.369,55.403 L59.369,55.403 Z M6.632,19.597 C4.672,19.597 3.078,21.191 3.078,23.15 L3.078,48.85 C3.078,50.809 4.672,52.403 6.632,52.403 L59.369,52.403 C61.328,52.403 62.922,50.809 62.922,48.85 L62.922,23.15 C62.922,21.191 61.328,19.597 59.369,19.597 L6.632,19.597 L6.632,19.597 Z" id="Shape"></path>
                        <path d="M9.957,40.898 C7.257,40.898 5.06,38.7 5.06,35.999 C5.06,33.299 7.257,31.103 9.957,31.103 C12.657,31.103 14.854,33.299 14.854,35.999 C14.854,38.7 12.657,40.898 9.957,40.898 L9.957,40.898 Z M9.957,34.103 C8.911,34.103 8.06,34.954 8.06,35.999 C8.06,37.046 8.912,37.898 9.957,37.898 C11.002,37.898 11.854,37.046 11.854,35.999 C11.854,34.953 11.003,34.103 9.957,34.103 L9.957,34.103 Z" id="Shape"></path>
                        <path d="M58.07,39.221 C57.242,39.221 56.57,38.55 56.57,37.721 L56.57,29.717 C56.57,28.888 57.242,28.217 58.07,28.217 C58.898,28.217 59.57,28.888 59.57,29.717 L59.57,37.721 C59.57,38.549 58.898,39.221 58.07,39.221 L58.07,39.221 Z" id="Shape"></path>
                        <path d="M58.07,43.784 C57.242,43.784 56.57,43.113 56.57,42.284 L56.57,41.803 C56.57,40.974 57.242,40.303 58.07,40.303 C58.898,40.303 59.57,40.974 59.57,41.803 L59.57,42.284 C59.57,43.113 58.898,43.784 58.07,43.784 L58.07,43.784 Z" id="Shape"></path>
                        <g id="Group-3" transform="translate(33.500000, 6.000000) scale(-1, 1) translate(-33.500000, -6.000000) translate(14.000000, -0.000000)">
                            <path d="M36.537,10.071 C36.237,10.071 35.934,9.982 35.671,9.795 C30.78,6.333 25.016,4.502 19,4.502 C13.12,4.502 7.463,6.257 2.641,9.577 C1.96,10.048 1.026,9.875 0.555,9.192 C0.085,8.509 0.257,7.576 0.94,7.106 C6.265,3.44 12.51,1.502 19,1.502 C25.641,1.502 32.005,3.523 37.405,7.346 C38.081,7.825 38.241,8.761 37.762,9.437 C37.47,9.851 37.007,10.071 36.537,10.071 L36.537,10.071 Z" id="Shape"></path>
                            <path d="M29.688,11.4 C28.985,11.4 28.357,10.902 28.217,10.185 C28.06,9.372 28.591,8.584 29.404,8.427 L36.253,7.098 C37.065,6.942 37.854,7.471 38.012,8.285 C38.169,9.098 37.638,9.886 36.825,10.043 L29.976,11.372 C29.879,11.391 29.782,11.4 29.688,11.4 L29.688,11.4 Z" id="Shape"></path>
                            <path d="M36.537,10.071 C35.854,10.071 35.238,9.603 35.077,8.91 L33.532,2.26 C33.344,1.453 33.846,0.647 34.653,0.46 C35.46,0.269 36.265,0.774 36.454,1.582 L37.999,8.232 C38.187,9.039 37.685,9.845 36.878,10.032 C36.764,10.059 36.649,10.071 36.537,10.071 L36.537,10.071 Z" id="Shape"></path>
                        </g>
                        <g id="Group-4" transform="translate(32.500000, 66.000000) scale(-1, 1) translate(-32.500000, -66.000000) translate(13.000000, 60.000000)">
                            <path d="M19.829,10.305 C13.189,10.305 6.825,8.284 1.425,4.46 C0.748,3.981 0.588,3.045 1.067,2.369 C1.546,1.692 2.484,1.533 3.158,2.012 C8.05,5.474 13.815,7.305 19.83,7.305 C25.709,7.305 31.366,5.55 36.189,2.23 C36.871,1.761 37.804,1.932 38.275,2.615 C38.745,3.298 38.573,4.232 37.89,4.701 C32.563,8.367 26.318,10.305 19.829,10.305 L19.829,10.305 Z" id="Shape"></path>
                            <path d="M2.289,4.736 C1.586,4.736 0.958,4.238 0.818,3.521 C0.661,2.708 1.192,1.92 2.005,1.763 L8.854,0.434 C9.667,0.278 10.454,0.807 10.613,1.621 C10.77,2.434 10.239,3.222 9.426,3.379 L2.577,4.708 C2.48,4.727 2.384,4.736 2.289,4.736 L2.289,4.736 Z" id="Shape"></path>
                            <path d="M3.836,11.386 C3.153,11.386 2.537,10.918 2.376,10.225 L0.83,3.575 C0.642,2.768 1.144,1.962 1.951,1.774 C2.759,1.584 3.564,2.088 3.752,2.895 L5.298,9.545 C5.486,10.352 4.984,11.158 4.177,11.346 C4.062,11.374 3.948,11.386 3.836,11.386 L3.836,11.386 Z" id="Shape"></path>
                        </g>
                    </g>
                </g>
            </g>
        </g>
    </g>
</svg>