<?xml version="1.0" encoding="UTF-8"?>
<svg width="52px" height="49px" viewBox="0 0 52 49" version="1.1" xmlns="http://www.w3.org/2000/svg" xmlns:xlink="http://www.w3.org/1999/xlink">
    <!-- Generator: Sketch 48.2 (47327) - http://www.bohemiancoding.com/sketch -->
    <title>Group 7</title>
    <desc>Created with Sketch.</desc>
    <defs></defs>
    <g id="preloader" stroke="none" stroke-width="1" fill="none" fill-rule="evenodd" transform="translate(-792.000000, -519.000000)">
        <g id="Group-7" transform="translate(792.000000, 519.000000)" fill="#FFFFFF">
            <path d="M26.1330084,18.3619792 C22.8741408,18.3619792 20.232763,20.8694483 20.232763,23.9631026 C20.232763,27.056757 22.8741408,29.5642261 26.1330084,29.5642261 C29.391876,29.5642261 32.0332538,27.056757 32.0332538,23.9631026 C32.0332538,20.8694483 29.391876,18.3619792 26.1330084,18.3619792 Z" id="Fill-55"></path>
            <polygon id="Fill-56" points="18.7936103 17.5800965 7.82217438 1.24071375 9.22188159 9.65328783 0 9.54651622"></polygon>
            <path d="M25.2464422,0.0714588146 C25.1658308,0.0868847405 25.076298,0.0917242467 24.9985541,0.111082271 C24.9115703,0.130137827 24.8312775,0.163106963 24.7468426,0.187304494 C24.548341,0.245681037 24.3530256,0.307989679 24.1749158,0.385724247 C24.044918,0.44410079 23.9228857,0.51397116 23.801172,0.583841531 C23.705904,0.636168691 23.608087,0.686983506 23.5198286,0.745360049 C23.3229201,0.879051407 23.1368448,1.025144 22.967975,1.18908227 C22.5942312,1.55023042 22.3103389,1.95977363 22.1054648,2.41105758 C21.9968146,2.6539403 21.9541193,2.82181067 21.9085563,2.98847116 C21.6485606,3.99811314 21.7893916,5.08911931 22.3597253,5.99682918 C22.5005563,6.21944647 22.6410687,6.39366869 22.7952818,6.55881684 C23.0256456,6.80169956 23.2075789,6.95958844 23.409904,7.10326128 C24.0943044,7.57995264 24.9450256,7.8890761 25.9897877,7.95773659 C29.7039664,7.94624277 33.0686166,8.98250202 35.8642075,10.7703971 C41.1590708,13.8156563 43.5885649,18.8789897 43.547144,24.153144 C43.5780504,26.2474403 43.2068555,28.1405946 42.5425283,29.9018724 C40.1758028,36.1705452 33.8603927,40.646181 26.3928448,40.9184033 C5.16814726,41.6927242 0.711897524,21.1166563 0.711897524,21.1166563 C-0.651805382,26.5069588 1.55146695,35.1763292 7.63268977,41.3938847 C11.9363195,45.7948107 18.1794024,48.9698292 26.4881128,48.8809033 C40.6846424,48.7281563 52.1021494,37.6405452 51.9415638,24.1646378 C51.7806596,10.6887304 40.1009266,-0.150856 25.9053529,0.00158844422 C25.6791311,0.00400819731 25.4621494,0.0372798022 25.2464422,0.0714588146 Z" id="Fill-57"></path>
        </g>
    </g>
</svg>